<?xml version="1.0" encoding="utf-8"?>
<!-- Generator: Adobe Illustrator 27.0.1, SVG Export Plug-In . SVG Version: 6.00 Build 0)  -->
<svg version="1.1" id="Layer_1" xmlns="http://www.w3.org/2000/svg" xmlns:xlink="http://www.w3.org/1999/xlink" x="0px" y="0px"
	 viewBox="0 0 103.7 92.3" style="enable-background:new 0 0 103.7 92.3;" xml:space="preserve">
<style type="text/css">
	.st0{fill:#E6BD90;}
	.st1{fill:#1D1D1B;}
	.st2{fill:#7D4B77;}
	.st3{fill:#C9AB94;}
	.st4{fill:#FFFFFF;stroke:#1D1D1B;stroke-miterlimit:10;}
	.st5{fill:#1D1D1B;stroke:#1D1D1B;stroke-width:0.25;stroke-miterlimit:10;}
	.st6{fill:#FFFFFF;}
	.st7{fill:#201A15;}
	.st8{fill:#D5D4D3;fill-opacity:0.4;stroke:#1D1D1B;stroke-miterlimit:10;}
	.st9{fill:#575756;}
</style>
<g>
	<path class="st0" d="M40.2,62.8c-0.1,7.3-4.9,15.4-5,22.7c-0.1,1.9,0.1,3.9,0.6,5.7c0.7,2,2.2,3.7,4.2,4.5c1.6,0.5,3.2,0.8,4.8,0.8
		c7.5,0.5,15.4,1,22.3-1.6c1-0.3,1.9-0.9,2.8-1.5c0.7-0.7,1.3-1.6,1.5-2.6c0.6-2.2,0.2-4.6-0.3-6.8c-1.4-6.4-4.9-16.3-6.3-22.7
		L40.2,62.8z"/>
	<path class="st1" d="M39.6,62.8c-0.1,7-3.9,13.3-4.8,20.2c-0.4,3.1-0.5,6.7,0.9,9.5s4.3,4.2,7.3,4.5c3.7,0.4,7.5,0.6,11.2,0.5
		c3.6,0,7.1-0.4,10.6-1.2c2.9-0.8,6-1.9,7.1-5s0-6.7-0.8-9.8c-1.7-6.8-4.2-13.5-5.8-20.4c-0.1-0.3-0.3-0.5-0.6-0.5L43.3,62l-3.1,0.2
		c-0.8,0-0.8,1.3,0,1.2l21.5-1.3l3.1-0.2l-0.6-0.5c1.2,5.6,3.1,11,4.7,16.5c0.8,2.7,1.5,5.4,2,8.2c0.4,1.8,0.3,3.6-0.4,5.3
		c-0.8,1.7-2.6,2.5-4.3,3.1c-6.4,2.2-13.3,1.8-20,1.4c-3.4-0.2-7-0.3-9-3.5c-1.7-2.7-1.5-6.6-1.1-9.6c1-6.8,4.6-13.1,4.8-20.1
		c-0.1-0.3-0.4-0.6-0.7-0.5C39.8,62.3,39.6,62.5,39.6,62.8z"/>
</g>
<g>
	<g>
		<path class="st2" d="M120.4,154c0.6,0-9.4-49.7-10.4-52c-3.3-7.4-6.5-18-11.4-24.5s-15.4-8.7-23.1-11.3l0,0
			c0.4-0.3,0.8-0.7,1.1-1.2c-2.4-0.7-4.5-2.2-5.8-4.2c-0.2-0.3-0.4-1.1-0.7-1.3c-0.6-0.3-1.2,0.5-1.8,0.8c-2.3,1.3-6,3.2-7.9,5
			l-1.4,1c0.4,0.4,1,1.3,1.3,1.7c-0.7,4.8-1,1.7-2.1,6.6c-0.3,1.1-0.6,2.2-1,3.3c-0.8,2-0.3,1.3-1,2.4l-1.7,4.2
			c-0.4-1.6-3.5-5.2-4.3-6.7c-2.7-5.2-0.2-0.9-2.8-5.9c-0.5-1.2-0.9-2.4-1.2-3.6c0-0.2,0.2-0.6,0.2-0.8s0.4-1.2,0.2-1.2
			c-1.1-0.2-2.1-0.5-3.2-0.9c-1.3-0.7-2.5-1.7-3.5-2.8l-1.6-2.3c-1.7,1.5-4.1,4.6-6.2,5.6l0.2,0.1C26,70.7,18.6,72,13.3,77.1
			c-2,2-3.8,4.3-5.3,6.7c-1.9,3.1-3.6,6.4-5.1,9.7c-1.4,3.1-8.3,38.5-8.3,42c0,4.4,0.6,21.2,1.3,25.6c2,1.2,2.4-0.3,5.8-1.3
			c5.1-1.5,3.1-1.4,8.2-1.6c3.3-0.2,2.3,1.4,5.4,0.1l1.2-23.5l7.5-25l2.6-8.4c0.2-0.8,0.6-1.5,1-2.2l3.4-5.1
			c-2.9,8.1-5.9,15.1-7,20.4l-2.7,14.8c-0.1,0.6-0.2,5.1-0.3,5.7c-0.6,3.2-0.8,7.4-1.5,10.4c-1.3,5.4-1.5,11.1-0.5,16.6
			c0.5,2.9,1.3,5.7,2.3,8.4c1.5,2.8,7.5,2.5,10.6,3c10.1,1.8,20.3,2.6,30.5,2.3c4.6-0.1,11.1-1.1,15.7-1.2c0.8,0,11.7-2,12.4-2.2
			c2.6-1,3.5-2.2,4-6.2c1.4-10.7-1.5-15.7-2.2-26.6c-0.2-3.8-5.4-39.7-9.5-43.4l4.4,8.1c0.2,0.6,3,12,3.1,12.6c2,9.5,3.5,14,3.6,15
			l7.5,25.8c7.9-2.9,1.5-0.5,9-2.8C112.3,154.4,113.4,154.2,120.4,154z"/>
		<path class="st1" d="M120.5,154.6c1-0.3,0.3-2.4,0.2-3c-0.4-2.4-0.8-4.7-1.2-7.1c-1.3-7.1-2.7-14.2-4.2-21.3
			c-1.2-6.1-2.4-12.2-3.8-18.2c-0.4-1.6-0.9-3.2-1.5-4.8c-2.3-5.4-4.2-11-6.8-16.2c-1.2-2.7-2.8-5.3-4.7-7.6c-1.9-2-4.1-3.7-6.6-4.9
			c-2.7-1.3-5.4-2.4-8.2-3.3c-1.5-0.5-3-1-4.4-1.4l-2-0.6c-0.6-0.3-1.1-0.5-1.7-0.6l0.4,1.1c0.5-0.4,0.9-0.8,1.2-1.3
			c0.2-0.3,0.1-0.7-0.2-0.9c0,0-0.1,0-0.1-0.1c-2.4-0.6-4.4-2.2-5.6-4.3c-0.3-0.6-0.5-1.2-1.3-1.3s-1.4,0.6-2.1,1
			c-1.9,1.2-4,2.1-5.8,3.4c-1.2,0.8-2.2,1.7-3.4,2.5c-0.3,0.2-0.4,0.6-0.2,0.9c0,0.1,0.1,0.1,0.1,0.1c0.5,0.5,0.8,1.1,1.3,1.7
			l-0.2-0.6c-0.1,0.9-0.3,1.8-0.6,2.7c-0.2,0.4-0.5,0.7-0.6,1c-1,2-1.2,4.3-2,6.3s-1.7,4.3-2.6,6.4H55c-0.5-1.3-1.2-2.6-2.2-3.7
			c-1-1.3-1.8-2.6-2.6-4c-0.8-1.5-1.4-3.1-2.1-4.7c-0.6-1.1-1-2.3-1.2-3.5c-0.1-0.7,0.3-1.2,0.3-1.8c0.1-1.4-1.7-1.2-2.7-1.5
			c-2.6-0.7-4.2-2.9-5.6-5c-0.2-0.3-0.6-0.4-0.9-0.2c0,0-0.1,0.1-0.1,0.1c-2,1.8-3.6,4.2-6,5.5c-0.3,0.2-0.4,0.6-0.2,0.9
			c0.1,0.1,0.1,0.2,0.2,0.2l0.2,0.1v-1.1c-5.4,4-12.1,5.7-17.5,9.8C8.9,79.6,5.5,86.4,2.5,92.8c-0.8,2.1-1.4,4.3-1.8,6.5
			c-0.9,3.9-1.7,7.9-2.5,11.9c-1.5,7.4-3,14.8-4.1,22.3c-0.2,2.5-0.3,5.1-0.1,7.6c0.2,5,0.3,9.9,0.7,14.9c0.1,1,0.2,2.1,0.3,3.1
			c0,0.8,0.1,1.6,0.3,2.3c0.7,0.7,1.7,0.9,2.6,0.6c1.3-0.4,2.5-1.2,3.9-1.6c2.1-0.8,4.3-1.3,6.5-1.5c1.4-0.2,2.8-0.1,4.1,0.4
			c1,0.3,2.1,0.2,3-0.3c0.3-0.1,0.5-0.3,0.5-0.6l0.7-13.2L17,137c0-0.7,0-1.3,0.1-2c0-0.2,0-0.1,0,0c0-0.2,0.1-0.3,0.1-0.5
			c2.5-8.4,5-16.8,7.6-25.2c0.8-2.6,1.5-5.2,2.4-7.7s2.9-4.9,4.4-7.2L30.5,94c-1.9,5.4-4.2,10.7-5.9,16.2c-0.7,2.4-1.3,4.9-1.7,7.4
			c-0.9,4.9-2,9.8-2.2,14.7c-0.1,1.8-0.3,3.4-0.5,5.2c-0.4,2.8-0.6,5.6-1.2,8.3c-1.2,5.3-1.3,10.8-0.5,16.2c0.3,1.8,0.7,3.7,1.3,5.4
			c0.4,1.5,0.8,3.3,2,4.4s3.3,1.5,5,1.7c2.2,0.3,4.4,0.4,6.5,0.8c5.9,1,11.8,1.6,17.7,1.9c5.6,0.3,11.3,0.3,16.9-0.2
			c2.7-0.3,5.4-0.6,8.1-0.8c1.3-0.1,2.5-0.1,3.8-0.3c3.1-0.5,6.2-1.1,9.4-1.7c2.6-0.5,4.7-1.7,5.5-4.4c1.4-4.6,1.1-10,0.4-14.7
			c-0.7-4.9-1.7-9.8-2.1-14.8c-0.2-1.8-0.4-3.6-0.7-5.3c-0.9-6.6-2-13.2-3.3-19.7c-0.7-3.4-1.4-6.7-2.3-10c-0.6-2.4-1.3-4.7-2.3-6.9
			c-0.3-0.6-0.7-1.2-1.2-1.7c-0.2-0.3-0.6-0.3-0.9-0.1s-0.3,0.6-0.1,0.9l2.9,5.3c0.5,0.9,1,1.7,1.4,2.6c0.2,0.3,0-0.1,0.1,0.2
			s0.2,0.7,0.3,1c1.3,5.1,2.5,10.3,3.7,15.4c1.9,8.4,4.4,16.7,6.8,25l3.4,11.8c0.1,0.3,0.4,0.5,0.8,0.4c1.5-0.6,3-1.2,4.6-1.6
			c0.9-0.2,1.8-0.4,2.6-0.6c1.4-0.5,2.8-0.8,4.2-1c2.4-0.3,4.8-0.3,7.2-0.4c0.8,0,0.8-1.3,0-1.2c-2.4,0.1-4.9,0.1-7.3,0.4
			c-1.4,0.2-2.8,0.5-4.2,1c-1,0.3-1.9,0.5-2.9,0.7c-1.6,0.4-3.1,1-4.6,1.6l0.8,0.4l-7-24.1c-2.6-8.8-4.3-17.9-6.6-26.8
			c-0.2-0.8-0.4-1.7-0.6-2.5c-0.3-0.7-0.7-1.4-1.1-2l-3.4-6.2l-1,0.8c1.2,1.2,1.7,3.2,2.2,4.7c0.9,2.8,1.6,5.7,2.2,8.5
			c1.5,6.6,2.6,13.3,3.7,20.1c0.4,2.4,0.7,4.9,1,7.3c0.3,2.7,0.5,5.5,0.9,8.2c0.7,4.7,1.8,9.3,2,14c0.1,2.7-0.1,5.4-0.6,8.1
			c-0.4,1.9-1.1,3.2-2.8,4c-0.9,0.3-1.8,0.6-2.8,0.7c-1.6,0.3-3.1,0.6-4.7,0.9s-2.9,0.5-4.3,0.7s-2.9,0.2-4.3,0.3
			c-5.2,0.4-10.4,1.1-15.7,1.1c-5.7,0-11.4-0.3-17-0.8c-3-0.3-6-0.8-9-1.3c-1.9-0.3-3.8-0.5-5.8-0.7c-1.7-0.2-4.2-0.4-5.3-2
			c-1-1.4-1.3-3.5-1.7-5.1c-1.2-4.8-1.6-9.8-1-14.7c0.3-2.6,0.9-5,1.3-7.6s0.7-5.1,1-7.7c0.3-2.1,0.1-4.5,0.4-6.3l1.4-7.7
			c0.4-2.2,0.7-4.3,1.1-6.5c1-4.2,2.3-8.3,4-12.2c1-2.8,2.1-5.5,3.1-8.3c0.2-0.7-0.8-1-1.1-0.5c-1.2,1.9-2.7,3.8-3.8,5.8
			c-1.2,2.3-1.8,5-2.5,7.5c-1.1,3.4-2.1,6.8-3.1,10.2l-4.8,16.1c-0.9,2.9-0.7,6.2-0.8,9.2l-0.8,15.8l0.5-0.6
			c-0.8,0.4-1.8,0.5-2.6,0.2c-1.1-0.3-2.3-0.4-3.4-0.3c-1.7,0-3.3,0.3-4.9,0.8c-1.3,0.4-2.6,0.7-3.8,1.2c-0.9,0.4-2.1,1.3-3.1,1.3
			s-0.8-0.4-0.9-1.2s-0.2-1.9-0.3-2.9c-0.4-4.6-0.5-9.3-0.7-14c-0.2-2.8-0.3-5.7-0.1-8.5c0.8-6.8,2.3-13.7,3.7-20.4
			c0.8-3.9,1.6-7.9,2.4-11.8C2,99.7,2.5,97,3.4,94.5c0.9-2.6,2.1-5.2,3.5-7.6c1.8-3.4,4.1-6.6,6.8-9.3c5.4-5.2,13.1-6.8,19-11.2
			c0.3-0.2,0.4-0.6,0.2-0.9c-0.1-0.1-0.1-0.2-0.2-0.2l-0.2-0.1v1.1c2.5-1.3,4.2-3.8,6.3-5.7l-1-0.1c1.4,2,2.7,3.9,4.9,5.1
			c0.7,0.3,1.4,0.6,2.1,0.8c0.4,0.1,0.8,0.2,1.2,0.3c0.3,0.1,0.3,0,0-0.2c0,0.2-0.1,0.3-0.1,0.5c-0.7,1.5,0.2,3.4,0.8,4.8
			c0.4,1,1,2,1.4,3c0.2,0.6,0.5,1.2,0.8,1.8c0.7,1.4,1.6,2.8,2.6,4.1c1,1.2,1.8,2.5,2.4,3.9c0.1,0.3,0.5,0.5,0.8,0.4
			c0.2-0.1,0.3-0.2,0.4-0.4c1.1-2.7,2.4-5.4,3.2-8.3c0.4-1.2,0.6-2.6,1.1-3.8c0.2-0.5,0.6-1,0.8-1.5c0.3-0.8,0.6-1.7,0.6-2.6
			c0.2-1.1-0.7-1.9-1.4-2.7l-0.1,1c1-0.7,1.9-1.5,2.9-2.2c1.8-1.2,3.7-2.4,5.7-3.4c0.5-0.3,1.6-1.3,2-0.9c0.2,0.2,0.3,0.7,0.5,1
			c0.3,0.4,0.6,0.8,0.9,1.2c1.4,1.5,3.2,2.6,5.1,3.2L76,64.7c-0.3,0.4-0.6,0.8-1,1.1c-0.2,0.3-0.2,0.7,0,0.9
			c0.1,0.1,0.3,0.2,0.4,0.2c0.5,0.1,1.1,0.3,1.6,0.6l1.8,0.6c1.2,0.4,2.5,0.8,3.8,1.2c2.5,0.8,4.9,1.7,7.3,2.8
			c2.4,1,4.6,2.4,6.5,4.2c1.8,1.8,3.3,3.9,4.4,6.1c2.8,5.1,4.8,10.6,6.9,15.9c0.9,2,1.7,4,2.2,6.1c2.9,12.2,5.2,24.6,7.6,36.9
			c0.6,3,1.1,5.9,1.6,8.9c0.2,0.9,0.3,1.9,0.4,2.8c0,0.3,0.1,0.4,0.1,0.7c0.1,0.6-0.2,0,0.4-0.2
			C119.4,153.6,119.8,154.8,120.5,154.6z"/>
	</g>
	<g>
		<path class="st2" d="M38.4,60.2c-1.7,1.5-4.1,4.6-6.2,5.6c4.6,1.9,11.6,6.3,13.4,11c0.7-3-0.2-5.6,0.5-8.6c0-0.2,0.6-2,0.4-2
			c-1.1-0.2-2.1-0.5-3.2-0.9c-1.3-0.7-2.5-1.7-3.4-2.8L38.4,60.2z"/>
		<path class="st1" d="M38,59.7c-2,1.8-3.6,4.2-6,5.5c-0.5,0.3-0.3,1,0.2,1.1c2.6,1.1,5.1,2.5,7.4,4.2c2.1,1.6,4.5,3.7,5.5,6.3
			c0.2,0.5,1.1,0.7,1.2,0c0.6-2.8-0.1-5.6,0.5-8.3c0.1-0.7,0.4-1.3,0.5-2c0.2-1-0.4-1.1-1.3-1.3c-1-0.2-1.9-0.5-2.8-1
			c-0.8-0.5-1.5-1-2.1-1.7c-0.7-0.8-1.4-1.7-2-2.7c-0.5-0.7-1.5,0-1.1,0.6c1.6,2.2,3.3,4.6,6,5.6c0.5,0.2,1,0.3,1.4,0.4
			c0.3,0.1,0.5,0.1,0.8,0.2c-0.1-0.4-0.1-0.5-0.1-0.3v0.1c-0.1,0.3-0.2,0.7-0.3,1.1c-0.1,0.3-0.2,0.7-0.2,1.1
			c-0.5,2.7,0.2,5.3-0.4,8h1.2c-1.3-2.7-3.3-5-5.7-6.7c-2.5-1.9-5.2-3.5-8.1-4.7l0.1,1.2c2.5-1.3,4.2-3.9,6.3-5.7
			C39.5,60.1,38.6,59.2,38,59.7z"/>
	</g>
	<g>
		<path class="st2" d="M58.9,66.2c2.7,2.7,2.4,5.6,3.8,9.1c0.5-0.8,5.6-3.1,6-3.9c0.6-1.2,2-1.6,3-2.5c1.5-1.4,3.8-2.1,4.9-3.9
			c-2.4-0.7-4.5-2.2-5.8-4.2c-0.2-0.3-0.4-1.1-0.7-1.3c-0.6-0.3-1.2,0.5-1.8,0.8c-2.3,1.3-6,3.2-7.9,5L58.9,66.2z"/>
		<path class="st1" d="M58.5,66.6c2.3,2.4,2.5,5.8,3.6,8.8c0.1,0.3,0.5,0.5,0.8,0.4c0.1,0,0.3-0.1,0.4-0.3c0.3-0.3,0.6-0.5,1-0.7
			c0.6-0.4,1.2-0.7,1.8-1c1.1-0.5,2.1-1.1,3-1.9c0.2-0.2,0.3-0.5,0.5-0.7c0.3-0.3,0.7-0.6,1.1-0.9c0.8-0.5,1.4-1.1,2.2-1.7
			c1.5-1.1,3.2-1.8,4.3-3.4c0.2-0.3,0.1-0.7-0.2-0.9c0,0-0.1,0-0.1-0.1c-2.3-0.6-4.2-2-5.5-4c-0.4-0.7-0.6-1.5-1.4-1.6
			s-1.6,0.7-2.3,1.1c-1.9,1-3.8,2-5.6,3.3c-1.2,0.8-2.2,1.7-3.4,2.5c-0.7,0.4,0,1.5,0.6,1.1c1-0.7,1.9-1.5,2.9-2.2
			c1.7-1.2,3.5-2.2,5.4-3.2c0.4-0.2,0.8-0.4,1.1-0.6s0.8-0.8,1.2-0.5s0.4,0.9,0.6,1.1c1.4,2.1,3.6,3.6,6,4.3l-0.4-1
			c-1.1,1.6-3,2.3-4.5,3.4c-0.7,0.6-1.5,1.1-2.3,1.7c-0.5,0.5-0.9,0.9-1.3,1.4c-1,0.8-2.1,1.4-3.2,1.9c-1,0.4-1.9,1-2.7,1.9l1.1,0.2
			c-1.2-3.3-1.4-6.8-3.9-9.4C58.8,65.2,57.9,66.1,58.5,66.6z"/>
	</g>
	<path class="st1" d="M53.8,84.5c0.8,2.8,1.2,5.8,1.2,8.7c0,2.9-0.2,5.9-0.2,8.8c0.1,5.9,0.7,11.7,1.7,17.5c1,6,2.2,11.9,2.5,18
		c0.2,5.9,0,11.9-0.5,17.8c-0.6,6.7-1.6,13.4-3,20c-0.2,0.8,1,1.1,1.2,0.3c2.6-11.7,3.8-23.7,3.7-35.7c-0.2-6-0.9-12-2.1-17.9
		c-1.1-6.1-1.8-12.2-2.1-18.3c-0.2-6.6,0.7-13.1-1.1-19.6c-0.1-0.3-0.4-0.5-0.8-0.4C53.9,83.9,53.7,84.2,53.8,84.5L53.8,84.5z"/>
</g>
<g>
	<g>
		<path class="st0" d="M61.7,12.3c-0.6-0.3-1.3-0.6-2-0.7c-3.5-0.5-7-0.8-10.5-0.7c-3.8,0.1-7.9,1.1-10.6,3.8
			c-1.4,1.6-2.5,3.6-3.1,5.7c-2.9,8-3.3,12.1-3.6,20.6c-0.1,2.5,0,4.9,0.4,7.4c0.5,1.7,0.9,5.1,1.7,7c1.5,3.3,3.9,6.1,6.9,8.1
			c6.1,4,17.7,4.3,24.9-0.4c7.6-4.9,7.3-14.5,7.8-23.1c0.2-3,0-6-0.5-9c-1.4-8.5-2.7-12.4-9.4-17.4c-0.2-0.2-0.4-0.4-0.7-0.5
			L61.7,12.3z"/>
		<path class="st1" d="M62,11.7c-1.4-0.6-2.9-1-4.4-1.1c-1.7-0.2-3.3-0.3-5-0.4c-2.9-0.2-5.9,0-8.7,0.7c-2.7,0.7-5.2,2.3-6.9,4.6
			c-1.8,2.5-2.7,5.8-3.5,8.6c-1.5,5.5-2.3,11.1-2.3,16.8c-0.1,2.2,0,4.5,0.3,6.7c0.3,2.5,0.9,4.9,1.7,7.3
			c4.2,10.8,17,13.9,27.2,10.9c5-1.4,9.2-4.5,11.3-9.4s2.1-10.2,2.3-15.3C74.4,34.9,74,28,71.5,22C69.6,17.6,66.3,14,62,11.7
			c-0.3-0.1-0.7,0-0.8,0.3c-0.1,0.3,0,0.6,0.2,0.7c3.6,1.9,6.6,4.8,8.5,8.4c0.8,1.9,1.5,3.8,1.9,5.8c0.7,2.8,1.1,5.7,1.3,8.6
			c0.1,2.8-0.1,5.7-0.2,8.5c-0.1,2.5-0.3,5-0.8,7.5c-0.9,4.8-3.2,9.1-7.7,11.5c-4.6,2.4-9.9,3.2-15,2.4c-5.2-0.5-9.9-3.3-13-7.5
			c-1.5-2.2-2.5-4.7-2.9-7.3c-0.5-2-0.8-4.1-0.9-6.2c-0.2-5,0.1-10.1,1-15c0.6-2.9,1.4-5.8,2.4-8.6c1.2-3.2,2.6-6.1,5.8-7.7
			c2.8-1.5,6-1.7,9.1-1.7c1.6,0,3.2,0.1,4.8,0.2c1.9,0.2,4,0.2,5.7,1.1C62,13.2,62.7,12.1,62,11.7z"/>
	</g>
	<path class="st3" d="M72.1,44.7c-0.8,0.2-1.4,0.7-1.9,1.3c-0.8,1.1-0.7,1.7-1.8,2.5c-1.7,1.1-3.5,2-5.3,2.7l-1.6,0.5l-5.9,1
		c-1.9,0.3-3.8,0.3-5.6,0l-5.3-0.9c-0.1,0-0.3,0-0.4-0.1c-0.7-0.2-1.4-0.4-2-0.7c-0.4-0.3-0.8-0.5-1.2-0.9c-0.7-0.5-1.5-0.5-2.1-1
		c-0.9-0.7-1.5-0.6-2.3-1.5l-1.9-0.9c-0.7-0.4-1.5-0.5-2.2-0.5c-0.1,0-0.2,0-0.1,0.3c0.3,1.2,0.6,2.5,0.8,3.8
		c0.3,3.2,1.6,6.2,3.5,8.8c1.3,1.7,2.9,3.1,4.6,4.3c0.7,0.5,1.9,0.8,2.8,1.4c0.2,0.2,1.5,0.7,1.7,0.8l2.3,0.6
		c1.7,0.5,3.5,0.7,5.3,0.6l3.1-0.4c1.5-0.3,3.6-0.4,4.9-1.2l3.3-1.7c1.1-0.8,2.1-1.6,3.1-2.5c0.8-0.7,1.6-1.6,2.2-2.5
		c0.3-0.6,0.8-1.7,1.1-2.3c0.4-0.9,0.7-1.9,0.9-2.9c1.3-3.3,0.4-2.8,1-5.3c0.1-0.6-0.1-0.9,0-1.4v-0.7v-0.5c0.1-0.3-0.1-0.4,0-0.9
		L72.1,44.7z"/>
	<path class="st4" d="M61.3,34.9c-0.5,0.3-1,0.8-1.3,1.3c-0.2,0.3-0.3,0.6-0.4,1c-0.2,0.6-0.3,1.2-0.3,1.8c0,1.4,0.2,2.8,0.9,3.5
		c1.1,1.2,3.2,1.2,4.8,1.2c0.5,0.1,1.1,0,1.6-0.2c0.9-0.6,1.4-1.7,1.5-2.8c0.1-0.7,0.1-1.4-0.1-2.1c-0.1-0.4-0.3-0.8-0.6-1.2
		c-0.4-0.6-0.9-1.2-1.4-1.7c-1.4-1-1.7-1.2-3.5-1L61.3,34.9z"/>
	<path class="st4" d="M43.7,35.6c-0.2-0.1-0.4-0.2-0.6-0.3c-0.7-0.2-1.5-0.3-2.3-0.3c-0.6,0.1-1.2,0.3-1.8,0.7
		c-1.2,0.7-1.9,1.9-2,3.3c-0.2,1.5,0.1,3.2,1.2,4c0.7,0.4,1.5,0.7,2.3,0.7c1.1,0.1,2.2,0.2,3.2,0.2c0.5-0.1,1-0.4,1.3-0.8
		c0.4-0.4,0.7-0.8,1-1.2c0.8-2.9,0.8-4.3-1.7-5.8L43.7,35.6z"/>
	<circle class="st5" cx="41.7" cy="39.4" r="1.8"/>
	<circle class="st5" cx="63.5" cy="39.4" r="1.8"/>
	<path class="st6" d="M43,38.7c0.3,0,0.6-0.4,0.5-0.7c0-0.3-0.3-0.5-0.5-0.5c-0.3,0-0.6,0.4-0.5,0.7C42.5,38.4,42.7,38.7,43,38.7z"
		/>
	<path class="st6" d="M64.7,38.5c0.3,0,0.6-0.4,0.5-0.7c0-0.3-0.3-0.5-0.5-0.5c-0.3,0-0.6,0.4-0.5,0.7
		C64.2,38.3,64.4,38.5,64.7,38.5z"/>
	<path class="st1" d="M62,11.7c-1.4-0.6-2.9-1-4.4-1.1c-1.7-0.2-3.3-0.3-5-0.4c-2.9-0.2-5.9,0-8.7,0.7c-2.7,0.7-5.2,2.3-6.9,4.6
		c-1.8,2.5-2.7,5.8-3.5,8.6c-1.5,5.5-2.3,11.1-2.3,16.8c-0.1,2.2,0,4.5,0.3,6.7c0.3,2.5,0.9,4.9,1.7,7.3c4.2,10.8,17,13.9,27.2,10.9
		c5-1.4,9.2-4.5,11.3-9.4s2.1-10.2,2.3-15.3C74.4,34.9,74,28,71.5,22C69.6,17.6,66.3,14,62,11.7c-0.3-0.1-0.7,0-0.8,0.3
		c-0.1,0.3,0,0.6,0.2,0.7c3.6,1.9,6.6,4.8,8.5,8.4c0.8,1.9,1.5,3.8,1.9,5.8c0.7,2.8,1.1,5.7,1.3,8.6c0.1,2.8-0.1,5.7-0.2,8.5
		c-0.1,2.5-0.3,5-0.8,7.5c-0.9,4.8-3.2,9.1-7.7,11.5c-4.6,2.4-9.9,3.2-15,2.4c-5.2-0.5-9.9-3.3-13-7.5c-1.5-2.2-2.5-4.7-2.9-7.3
		c-0.5-2-0.8-4.1-0.9-6.2c-0.2-5,0.1-10.1,1-15c0.6-2.9,1.4-5.8,2.4-8.6c1.2-3.2,2.6-6.1,5.8-7.7c2.8-1.5,6-1.7,9.1-1.7
		c1.6,0,3.2,0.1,4.8,0.2c1.9,0.2,4,0.2,5.7,1.1C62,13.2,62.7,12.1,62,11.7z"/>
	<path class="st1" d="M53.9,41.4c-1.4,0.6-3,0.9-4.2,1.9c-1,1.1-1.5,2.6-1.2,4.1c0.1,0.8,0.2,1.5,0.5,2.2c0.2,0.7,0.6,1.3,1.2,1.8
		c0.7,0.3,1.6,0.4,2.3,0.3c0.8-0.1,1.7-0.2,2.5-0.5c0.3-0.1,0.6-0.4,0.5-0.8s-0.4-0.6-0.8-0.5c-0.7,0.2-1.3,0.3-2,0.4
		c-0.6,0.1-1.3,0.1-1.9-0.1c-0.2-0.1-0.3-0.4-0.4-0.6c-0.1-0.3-0.2-0.5-0.3-0.8c-0.2-0.6-0.3-1.2-0.3-1.8c-0.2-1.1,0.2-2.3,1.1-3
		c1.1-0.6,2.2-1.1,3.4-1.4c0.3-0.1,0.5-0.4,0.4-0.8C54.6,41.5,54.2,41.3,53.9,41.4L53.9,41.4z"/>
	<path class="st1" d="M47.6,58.5c2.1,0.5,4.2,0,6.3-0.5c2-0.3,3.9-1.1,5.5-2.3c0.6-0.5-0.3-1.4-0.9-0.9c-1.5,1-3.2,1.7-5,2
		c-1.8,0.4-3.8,1-5.6,0.5C47.2,57.1,46.8,58.3,47.6,58.5L47.6,58.5z"/>
	<g>
		<path class="st7" d="M74.1,40.6c0.9-3.9,0.1-8-0.7-11.9l-1.3-6.4c-0.2-1.3-0.6-2.7-1.1-3.9c-0.4-0.9-1-1.7-1.6-2.5
			c-0.9-1.3-1.8-2.5-2.8-3.6c-4.1-4.2-10.2-5.7-16-5.9c-1.8-0.1-3.6,0-5.3,0.3c-3.5,1-6.5,3.1-8.6,6.1c-2,3-3.4,6.3-4.2,9.8
			c-1.5,6.2-2,12.6-1.3,18.9l0.9,0.2c0.1,0,0.3,0,0.4,0c1.2-0.3,2.1-1.2,2.4-2.3c0.4-1.3,0.6-2.7,0.5-4.1c0-1.7,1.1-3.1,1.8-4.5
			l2.8-5c0.6-1.4,1.6-2.6,2.8-3.5c1.7-0.9,3.7-0.9,5.4-0.1c1.7,0.8,3.3,1.8,4.7,3c0.2,0.2,0.5,0.3,0.8,0.3c0.3-0.1,0.6-0.3,0.8-0.6
			c1.4-1.5,3.2-2.6,5.2-2.9c2-0.3,4.1,0.2,5.8,1.5c2.4,2,3.1,5.4,4.5,8.2c0.8,1.2,1.3,2.6,1.6,4c0,1,0,2,0.1,2.9
			c0.2,1,1.1,1.9,2,1.7L74.1,40.6z"/>
		<path class="st1" d="M74.7,40.8c0.5-3.4,0.4-6.9-0.3-10.3c-0.7-3.4-1.2-7.1-2.2-10.4c-1-2.9-2.7-5.5-4.8-7.7
			c-1.9-2-4.1-3.5-6.7-4.5c-2.6-1-5.4-1.6-8.2-1.8c-3-0.4-6.1-0.2-9.1,0.8C38,8.8,34.7,14,32.8,19.3c-2.4,7.2-3.1,14.9-2.3,22.4
			c0,0.3,0.2,0.5,0.5,0.6c1.3,0.5,2.8,0.1,3.7-1c1.6-2,0.9-4.3,1.5-6.6c0.4-1.2,0.9-2.3,1.7-3.4c0.7-1.2,1.4-2.5,2.1-3.8
			c1.3-2.3,2.5-5.1,5.6-5.1c2.9,0,4.9,2,7.2,3.5c1.9,1.2,3-1.1,4.5-2c2.2-1.4,4.9-1.5,7.2-0.3c2.2,1.2,3.1,3.6,4,5.8
			c1,2.6,2.8,5.1,2.7,7.9c-0.1,1,0.1,2.1,0.6,3c0.3,0.4,0.6,0.7,1,0.8c0.4,0.1,0.8,0.2,1.2,0.2C74.3,41.3,74.7,41.1,74.7,40.8
			c0.1-0.3-0.1-0.7-0.4-0.8l0,0c-0.4,0-0.8-0.1-1.1-0.3c-0.8-0.4-0.8-1.4-0.8-2.2c0.1-1.2-0.1-2.4-0.5-3.5c-0.4-1.1-1.1-2.1-1.5-3.2
			s-0.9-2.2-1.3-3.3c-0.7-1.9-1.8-3.5-3.4-4.7c-1.7-1.2-3.9-1.6-5.9-1.3c-1,0.2-2,0.5-2.8,1c-0.9,0.6-1.8,1.3-2.7,2.1
			c-0.6,0.4-0.7,0.3-1.2-0.1s-0.9-0.7-1.4-1c-1-0.7-2.1-1.4-3.3-1.8c-2-0.9-4.3-0.7-6.1,0.5c-1.9,1.3-2.9,3.8-4,5.8
			c-1.2,2.2-3.2,4.7-3.4,7.3c-0.1,1.6,0,3.3-0.8,4.8c-0.5,1-1.7,1.4-2.7,1l0.5,0.6c-0.7-6.2-0.3-12.5,1.2-18.6
			C34.3,17.7,36.8,12,41.7,9c4.6-2.9,11-2.2,16.1-0.8c5.5,1.5,10.1,5.3,12.6,10.4c0.7,1.7,1.2,3.4,1.4,5.2c0.4,1.8,0.7,3.6,1.1,5.4
			c0.8,3.7,1.4,7.5,0.7,11.3C73.3,41.2,74.6,41.5,74.7,40.8z"/>
	</g>
	<path class="st8" d="M37.7,34.7c2.6,0,4.9-0.6,7.7-0.4c1,0.1,1.7,0,2.7,0.1c0.2,0,1,0,1.2,0.1c0.5,0.3,0.3,1.7,0.2,2.2
		c-0.1,0.5-0.1,0.9-0.1,1.4c0.1,0.4,0,1.2,0.1,1.6c0,0.7-0.1,1.3-0.2,2c-0.2,2.2-0.7,2-2.6,2.1c-0.9,0.1-1.6,0.2-2.5,0.2l-1.7,0
		l-5.1,0.1c-0.3,0-0.6,0-0.9-0.1c-0.3-0.2-0.5-0.5-0.6-0.8c-0.2-0.6-0.4-1.3-0.5-1.9c-0.1-0.6-0.1-1.3-0.1-1.9
		c0.1-1.2,0.3-2.4,0.6-3.6C36.1,35.1,36.9,34.6,37.7,34.7z"/>
	<path class="st8" d="M55.5,36.4c0,1,0,2,0.2,3c0.1,0.4,0.1,0.7,0.2,1.1c0.3,1-0.3,2.5,0.7,3.1c0.8,0.5,3,0.1,4,0.2
		c2.2,0.2,4.4,0.2,6.6,0.1c0.6,0,2.2,0.2,2.5-0.2c0.1-0.3,0.2-0.6,0.2-0.9c0.1-0.8-0.1-0.7,0-1.5c0-0.3,0-0.5,0-0.8
		c0-0.2,0-0.8-0.1-1.5s0-1.6,0-1.9c0-1.6-0.2-2.2-2-2.8c-1-0.4-3.3,0-4.5,0h-3.9c-0.9,0-1.8,0-2.6,0c-0.8,0-1.4,0.6-1.4,1.3
		c0,0.1,0,0.2,0,0.3V36.4z"/>
	<path class="st1" d="M49.8,40.3c1.8-0.6,3.8-0.7,5.7-0.2c0.4,0.1,0.7-0.1,0.9-0.5c0.1-0.4-0.1-0.8-0.5-0.9
		c-2.2-0.6-4.6-0.5-6.7,0.4c-0.3,0.2-0.5,0.6-0.3,0.9c0,0,0,0,0,0.1C49.1,40.4,49.5,40.5,49.8,40.3C49.9,40.3,49.9,40.3,49.8,40.3
		L49.8,40.3z"/>
	<path class="st1" d="M34.8,42.9c0.3,0,0.6-0.4,0.5-0.7c0-0.3-0.3-0.5-0.5-0.5c-0.3,0-0.6,0.4-0.5,0.7
		C34.3,42.6,34.5,42.9,34.8,42.9z"/>
	<g>
		<path class="st9" d="M35.3,41.3c-0.8,0-2.5,0-3.3,0c-0.3,0-0.5,0-0.8-0.1c-0.5-0.2-0.4-0.3-0.4-0.9c0-0.3,0-0.7,0.1-1
			c0-0.2,0.2-0.5,0.4-0.5c1.3,0,2.7,0.2,3.9,0.6L35.3,41.3z"/>
		<path class="st1" d="M35.3,40.7c-0.7,0-1.4,0-2.2,0h-1.5c0,0,0.2,0,0,0h-0.2h-0.1c-0.1,0,0.1,0.1,0,0s0-0.1,0,0
			c0,0,0.1,0.1,0.1,0.2c0-0.1,0,0.1,0,0.1s0-0.1,0-0.1c0-0.1,0-0.2,0-0.2c0-0.2,0-0.3,0-0.5s0-0.2,0-0.3c0,0,0-0.1,0-0.2
			c0,0,0-0.1,0-0.1l0,0c0,0,0-0.1,0,0l0.1-0.1c0.1-0.1,0,0,0,0s-0.3,0-0.2,0.1s0.3,0,0.4,0h0.5h0.3c0.1,0-0.1,0,0,0h0.2
			c0.8,0.1,1.6,0.3,2.3,0.5l-0.5-0.6l0.1,1.9c0,0.3,0.3,0.6,0.6,0.6c0.3,0,0.6-0.3,0.6-0.6c0,0,0,0,0,0l-0.1-1.9
			c0-0.3-0.2-0.5-0.5-0.6c-0.8-0.2-1.5-0.4-2.3-0.5c-0.4-0.1-0.9-0.1-1.3-0.1h-0.5c-0.3,0-0.6,0.2-0.8,0.5c-0.2,0.5-0.3,1-0.3,1.5
			c-0.1,0.4,0,0.8,0.1,1.1c0.3,0.4,0.8,0.6,1.3,0.6c0.3,0,0.6,0,1,0c0.9,0,1.8,0,2.7,0c0.3,0,0.6-0.3,0.6-0.6
			C35.9,40.9,35.6,40.6,35.3,40.7L35.3,40.7L35.3,40.7z"/>
	</g>
	<g>
		<path class="st9" d="M70.2,40.6c0.6-0.5,1.2-0.6,1.8-1c0.6-0.6,1.4-1,2.2-1.2c0.1,0,0.2-0.3,0.3-0.4c0.2-0.2,0.2-0.6,0.1-0.9
			l-0.6-0.3c-1.2,0.6-2.6,1.5-3.9,2.1L70.2,40.6z"/>
		<path class="st1" d="M70.5,41.1c0.4-0.3,0.8-0.5,1.3-0.7c0.4-0.2,0.8-0.5,1.1-0.8c0.3-0.2,0.6-0.4,0.9-0.5c0,0,0.1-0.1,0.1,0
			l0.1,0l0.3-0.1c0.3-0.1,0.5-0.3,0.6-0.5c0,0,0.1-0.1,0-0.1s0.2-0.3,0.1-0.1c0-0.1,0.1-0.1,0.1-0.2c0.1-0.2,0.2-0.5,0.2-0.7
			c0-0.3-0.1-0.5-0.3-0.7c-0.1-0.1-0.2-0.1-0.3-0.2c-0.2-0.2-0.5-0.3-0.8-0.3c-0.3,0-0.5,0.1-0.8,0.3l-0.6,0.3
			c-0.9,0.5-1.9,1.1-2.8,1.5c-0.2,0.1-0.3,0.3-0.3,0.5l0.1,1.7c0,0.3,0.3,0.6,0.6,0.6c0.3,0,0.6-0.3,0.6-0.6l-0.1-1.7l-0.3,0.5
			c1.3-0.7,2.6-1.5,3.9-2.1h-0.6l0.6,0.3L74,37.4l0,0l0,0c0,0,0-0.1,0,0s0-0.1,0,0s0,0.1,0,0l0,0c-0.1,0.1,0,0,0,0
			c-0.1,0.1-0.1,0.1-0.2,0.2c0,0-0.1,0.1-0.1,0.1l0,0l0.1-0.1c0,0-0.3,0.1-0.4,0.1l-0.4,0.2c-0.2,0.1-0.4,0.2-0.5,0.3
			c-0.4,0.3-0.8,0.6-1.2,0.9c-0.5,0.2-1,0.5-1.5,0.8c-0.3,0.2-0.4,0.5-0.2,0.8C69.7,41.1,70.1,41.3,70.5,41.1
			C70.4,41.1,70.4,41.1,70.5,41.1z"/>
	</g>
</g>
</svg>
