<?xml version="1.0" encoding="UTF-8"?>
<svg id="Layer_1" data-name="Layer 1" xmlns="http://www.w3.org/2000/svg" viewBox="0 0 50 50" width="30" height="30">
  <defs>
    <style>
      .cls-1 {
        fill: #000;
      }

      .cls-1, .cls-2 {
        stroke-width: 0px;
      }

      .cls-2 {
        fill: #7ec346;
      }
    </style>
  </defs>
  <path class="cls-2" d="M25,0C11.21,0,0,11.21,0,25s11.21,25,25,25,25-11.21,25-25S38.79,0,25,0Z"/>
  <g>
    <path class="cls-1" d="M12.94,15.17l4.32-4.32,3.98,3.98-4.26,4.26c-.74.74-1.38,1.97-1.38,3.04v1.88h7.51v13.15h-13.15v-15.03c0-2.78,1.14-5.12,2.97-6.96Z"/>
    <path class="cls-1" d="M29.85,15.17l4.32-4.32,3.98,3.98-4.26,4.26c-.74.74-1.38,1.97-1.38,3.04v1.88h7.51v13.15h-13.15v-15.03c0-2.78,1.14-5.12,2.97-6.96Z"/>
  </g>
</svg>