<?xml version="1.0" encoding="UTF-8"?><svg id="Layer_1" xmlns="http://www.w3.org/2000/svg" viewBox="0 0 202 180"><path d="m80.72,114.26c1.95,6.83-.84,11.9-2.2,19.71-.35,2.02-22.39,4.39-21.82,6.31.42,1.39,12.28,10.84,13.21,11.62,2.21,1.86,5.04,3.19,5.67,5.71,6.98,28.03,27.96,30.03,37.56.98,1.1-3.32,5.82-.14,9.21-1.15.98-.29,6.67-2.13,7.41-3.07.96-1.24,9.19-12.17,9.11-13.99-.19-4.17-19.74-3.57-20.52-7.61-.72-3.79-2.31-6.97-2.9-10.81-.47-3.09.29-9.17-.7-12.01-.61-1.74-1.94-6.19-3.21-6.54-5.19-1.42-24.59.25-26.05.37-1.87.17-4.76,10.47-4.76,10.47" fill="#f6b07c" stroke="#1e1e1c" stroke-miterlimit="10" stroke-width="3.28"/><path d="m79.54,114.58c1,3.91.49,7.55-.45,11.41-.45,1.87-.95,3.71-1.35,5.59,0-.01-.77,2.47-.3,1.91.29-.35-.36.08-.48.14-3.24,1.71-7.86,1.92-11.42,2.63-2.68.54-7.06.74-9.28,2.57-2.32,1.9,1.53,4.49,2.84,5.65,3.1,2.75,6.33,5.36,9.56,7.97,1.97,1.6,4.82,3,5.73,5.49,1.2,3.26,1.92,6.59,3.43,9.75,3.48,7.31,10.44,14.97,19.39,12.63,4.09-1.07,7.42-3.99,9.97-7.26,1.89-2.41,3.41-5.09,4.69-7.87.67-1.47,1.19-2.98,1.82-4.46.3-.71.52-2.04,1.2-2.4.78-.4,2.24.1,3.02.22,3.85.58,9.1-.41,12.27-2.94,1-.8,1.72-2.06,2.47-3.08,1.42-1.94,2.83-3.89,4.17-5.88,1.31-1.95,4.58-5.6,2.55-8.01-2.1-2.49-7.02-2.74-9.94-3.25-2.93-.51-9.3-.55-10.12-3.96-.86-3.56-2.48-6.98-2.76-10.67-.23-3.06.18-6.15-.22-9.2-.33-2.48-1.31-5.31-2.57-7.48-1-1.72-2.22-2.01-4.08-2.22-5.39-.61-10.97-.19-16.37.13-2.43.15-7.65-.47-9.51,1.52-2.39,2.56-3.33,7.14-4.26,10.41-.43,1.52,1.93,2.17,2.36.65.84-2.96,1.69-6.35,3.38-8.95.57-.88,1.02-.69,2.4-.8,1.87-.15,3.74-.27,5.61-.39,4.61-.27,9.27-.52,13.89-.31,1.6.07,3.4-.12,4.45,1.19,1.36,1.69,2.18,5.35,2.35,7.46.2,2.66-.08,5.33.11,7.98.22,3.24,1.41,6.26,2.32,9.34.51,1.75.5,3.57,2,4.75,1.1.87,2.58,1.27,3.91,1.62,3.88,1.03,7.91,1.34,11.8,2.35.81.21,3.14.6,3.47,1.5.32.86-1.8,3.43-2.22,4.08-1.13,1.73-2.32,3.42-3.53,5.09-.89,1.24-1.8,2.92-2.92,3.96-1.34,1.23-3.72,1.76-5.43,2.33-2.31.77-4.22.42-6.6.13-1.77-.21-3.49-.11-4.56,1.5-.67,1.01-.9,2.41-1.33,3.53-.68,1.79-1.46,3.55-2.34,5.24-2.25,4.31-5.35,8.71-9.82,10.91-8.8,4.32-15.93-4.08-19.22-11.35-1.34-2.97-1.82-6.25-3.11-9.19-1.1-2.52-3.67-3.89-5.73-5.53-2.61-2.08-5.19-4.21-7.73-6.37-1.55-1.32-2.98-2.9-4.59-4.13-.09-.07-.44-.6-.55-.6-.26,0-.26.73-.11.81.16.08,1.41-.53,1.67-.6,4.16-1.23,8.52-1.82,12.76-2.73,2.05-.44,6.42-.76,7.44-3,.66-1.44.73-3.48,1.11-5.06.43-1.75.91-3.49,1.27-5.27.68-3.43.73-6.74-.14-10.14-.39-1.52-2.76-.88-2.36.65" fill="#1e1e1c" stroke-width="0"/><path d="m54.57,139.47s-20.06-2.38-44.54,60.87c-.82,2.11-12.86,46.42-14.41,61.92-.6,6-5.46,33.08,2.25,62.64.11.42,3.24-2.09,12.61.2,4.73,1.16,8.41-2.83,13.75-3,6.21-.2,8.01-3.67,9.26-6.6.74-1.73-4.52-64.75-.95-74.8,3.23-9.12,5.23-18.21,8.11-26.35,7.51-21.27,13.07-37.11,12.88-36.47-1.06,3.52-2.35,7.33-3.94,11.12-5.47,13.03-4.49,44.8-3.41,55.2,1.72,16.73-8.48,100.12-8.48,100.12,4.01,1.72,13.44,4.55,29.09,3.08,28.78-2.69,43.3-.63,43.3-.63,0,0,53.54,3.91,52.55-1.89-3.08-18.05-12.6-66-8.83-104.04,3.14-31.69-.46-53.7-3.57-63.13-1.5-4.54,14.24,57.28,13.24,53.46-1-3.83,6.44,45.25,6.1,42.04-.6-5.56,2.62,35.32,5.25,37.83,8.06,7.69,22.38-6.31,33.52-.63,1.14.58-5.96-46.84-12.13-83.9-1.87-11.23-10.47-32.9-15.74-50.43-7.7-25.61-27.1-32.47-27.1-32.47l-21.56-7.86c-1.12,3.73-13.18,4.66-33.07,7.61-3.55.53-19.48-1.5-22.81-4.24l-4.52-2.94-2.85-2.02-13.99,5.33Z" fill="#d56aa6" stroke-width="0"/><path d="m54.57,139.47s-20.06-2.38-44.54,60.87c-.82,2.11-12.86,46.42-14.41,61.92-.6,6-5.46,33.08,2.25,62.64.11.42,3.24-2.09,12.61.2,4.73,1.16,8.41-2.83,13.75-3,6.21-.2,8.01-3.67,9.26-6.6.74-1.73-4.52-64.75-.95-74.8,3.23-9.12,5.23-18.21,8.11-26.35,7.51-21.27,13.07-37.11,12.88-36.47-1.06,3.52-2.35,7.33-3.94,11.12-5.47,13.03-4.49,44.8-3.41,55.2,1.72,16.73-8.48,100.12-8.48,100.12,4.01,1.72,13.44,4.55,29.09,3.08,28.78-2.69,43.3-.63,43.3-.63,0,0,53.54,3.91,52.55-1.89-3.08-18.05-12.6-66-8.83-104.04,3.14-31.69-.46-53.7-3.57-63.13-1.5-4.54,14.24,57.28,13.24,53.46-1-3.83,6.44,45.25,6.1,42.04-.6-5.56,2.62,35.32,5.25,37.83,8.06,7.69,22.38-6.31,33.52-.63,1.14.58-5.96-46.84-12.13-83.9-1.87-11.23-10.47-32.9-15.74-50.43-7.7-25.61-27.1-32.47-27.1-32.47l-21.56-7.86c-1.12,3.73-13.18,4.66-33.07,7.61-3.55.53-19.48-1.5-22.81-4.24l-4.52-2.94-2.85-2.02-13.99,5.33Z" fill="none" stroke="#1e1e1c" stroke-miterlimit="10" stroke-width="3.4"/><path d="m112.05,24.43c-1.11-.62-2.34-1.05-3.6-1.24-7.18-1.09-12.46-1.31-18.61-1.21-6.79.11-13.99,1.91-18.77,6.73-2.73,2.76-4.27,6.46-5.59,10.1-5.12,14.14-7.15,22.27-4.36,37.04.61,3.21,2.83,11.42,3.54,14.11.81,3.07,3.94,8.88,6.54,11.59,3.24,3.36,8.63,6.59,12.15,12.82,3.6,6.35,22.04,7.62,26.85.22q4.47-6.87,7.38-11.18c3.01-4.45,5.23-6.78,8.08-11.05,2.76-4.14,5.23-14.94,5.46-19.26.28-5.36,2.18-10.23,1.29-15.52-2.57-15.14-4.74-22.02-16.79-31.03-.4-.3-.83-.57-1.26-.82l-2.32-1.3Z" fill="#f6b07c" stroke="#010101" stroke-miterlimit="10" stroke-width="2.19"/><path d="m111.89,62.32c-1.09.48-1.91,1.21-2.63,1.91-.44.43-.64.97-.85,1.47-.39.91-.68,1.87-.64,2.83.09,2.19.4,4.26,1.73,5.34,2.21,1.79,6.25,1.77,9.49,1.86,1.07.03,2.2.02,3.16-.34,1.95-.72,2.65-2.56,2.94-4.2.19-1.08.29-2.22-.27-3.22-.31-.55-.63-1.35-1.12-1.8-.93-.86-1.68-1.99-2.88-2.63-2.85-1.52-3.31-1.88-6.85-1.47l-2.08.25Z" fill="#fff" stroke-width="0"/><path d="m111.89,62.32c-1.09.48-1.91,1.21-2.63,1.91-.44.43-.64.97-.85,1.47-.39.91-.68,1.87-.64,2.83.09,2.19.4,4.26,1.73,5.34,2.21,1.79,6.25,1.77,9.49,1.86,1.07.03,2.2.02,3.16-.34,1.95-.72,2.65-2.56,2.94-4.2.19-1.08.29-2.22-.27-3.22-.31-.55-.63-1.35-1.12-1.8-.93-.86-1.68-1.99-2.88-2.63-2.85-1.52-3.31-1.88-6.85-1.47l-2.08.25Z" fill="none" stroke="#1e1e1c" stroke-miterlimit="10" stroke-width="1.96"/><path d="m119.69,69.2c0,1.93-1.56,3.49-3.49,3.49s-3.49-1.56-3.49-3.49,1.56-3.49,3.49-3.49,3.49,1.56,3.49,3.49" fill="#1e1e1c" stroke-width="0"/><path d="m119.69,69.2c0,1.93-1.56,3.49-3.49,3.49s-3.49-1.56-3.49-3.49,1.56-3.49,3.49-3.49,3.49,1.56,3.49,3.49Z" fill="none" stroke="#1e1e1c" stroke-miterlimit="10" stroke-width=".56"/><path d="m118.52,67.43c1.59,0,1.6-2.48,0-2.48s-1.6,2.48,0,2.48" fill="#fff" stroke-width="0"/><path d="m99.79,70.09c-1.96,2.57-1.79,1.15-4.06,6.31-.29.65-7.2,11.52-2.84,13.22,2.91,1.13,5.89-.98,8.37-1.92" fill="#f6b07c" stroke-width="0"/><path d="m98.72,69.46c-1.05,1.36-2.2,2.41-2.99,3.98-.79,1.58-1.55,3.12-2.39,4.67-1.07,1.99-2.09,4.07-2.7,6.26-.51,1.79-.85,4.16.61,5.63,1.18,1.19,3.12,1.31,4.68,1.06,2.02-.33,3.78-1.42,5.66-2.17,1.47-.58.83-2.98-.66-2.39-1.5.6-2.92,1.41-4.46,1.89-.72.22-1.45.37-2.2.3-.55-.06-1.07-.24-1.26-.43-.27-.28-.34-.85-.3-1.52.06-.85.31-1.7.58-2.51.61-1.81,1.48-3.53,2.39-5.2.77-1.4,1.44-2.79,2.15-4.22.4-.82.81-1.54,1.26-2.03.62-.67,1.22-1.33,1.78-2.05.41-.53.08-1.38-.45-1.7-.64-.38-1.29-.08-1.7.44" fill="#1e1e1c" stroke-width="0"/><path d="m87.05,104c4.09.92,8.33,2.04,12.55,1.56,2.51-.28,5.03-.74,7.44-1.47,1.94-.59,4.63-1.65,5.52-3.65.64-1.45-1.49-2.71-2.14-1.25-.81,1.83-3.82,2.49-5.52,2.91-1.94.48-3.95.89-5.95,1.05-3.79.31-7.58-.72-11.24-1.54-1.56-.35-2.22,2.04-.66,2.39" fill="#1e1e1c" stroke-width="0"/><path d="m81.5,62.9c-.37-.19-.78-.34-1.2-.44-1.56-.36-2.75-.5-4.5-.55-1.12-.03-2.53.73-3.57,1.11-2.35.86-3.52,3.21-3.87,5.42-.38,2.39.13,5.15,2.38,6.55,1.31.81,2.97,1.02,4.56,1.14,2.62.21,3.81.31,6.44.25.88-.02,2.04-.67,2.66-1.22.34-.31,1.76-1.61,1.91-2.02,1.6-4.69,1.62-7.05-3.26-9.43l-1.55-.8Z" fill="#fff" stroke-width="0"/><path d="m81.5,62.9c-.37-.19-.78-.34-1.2-.44-1.56-.36-2.75-.5-4.5-.55-1.12-.03-2.53.73-3.57,1.11-2.35.86-3.52,3.21-3.87,5.42-.38,2.39.13,5.15,2.38,6.55,1.31.81,2.97,1.02,4.56,1.14,2.62.21,3.81.31,6.44.25.88-.02,2.04-.67,2.66-1.22.34-.31,1.76-1.61,1.91-2.02,1.6-4.69,1.62-7.05-3.26-9.43l-1.55-.8Z" fill="none" stroke="#1e1e1c" stroke-miterlimit="10" stroke-width="2.03"/><path d="m80.85,69.2c0,1.93-1.56,3.49-3.49,3.49s-3.49-1.56-3.49-3.49,1.56-3.49,3.49-3.49,3.49,1.56,3.49,3.49" fill="#1e1e1c" stroke-width="0"/><path d="m80.85,69.2c0,1.93-1.56,3.49-3.49,3.49s-3.49-1.56-3.49-3.49,1.56-3.49,3.49-3.49,3.49,1.56,3.49,3.49Z" fill="none" stroke="#1e1e1c" stroke-miterlimit="10" stroke-width=".56"/><path d="m80.03,67.8c1.59,0,1.6-2.48,0-2.48s-1.6,2.48,0,2.48" fill="#fff" stroke-width="0"/><path d="m51.5,128.49c-.39,2.21-.75,4.43-1.17,6.64-.2,1.06-.48,2.17-1.95,1.9-1.25-.24-2.47-.64-2.53-2.25-.03-.95-.06-1.91.02-2.86.77-8.84.45-17.71.48-26.57.05-11.92,1.39-23.75,2.49-35.6.9-9.67,1.79-19.33,3.81-28.85,3.1-14.62,10.48-26.05,24.4-32.53,7.12-3.31,14.4-5.32,21.84-.73.85.52,1.62.18,2.45-.09,5.88-1.86,11.72-1.54,17.35.84,11.47,4.85,18.45,13.61,22.24,25.32,4.09,12.63,5.32,25.65,6.4,38.75,1.44,17.5.62,35.04,1.08,52.55.12,4.66.48,9.32.74,13.98.04.73.4,1.61-.76,1.79-.91.14-1.35-.4-1.68-1.2-1.34-3.22-.98-6.77-2.1-10.48-1.04,3.61-.84,6.95-1.21,10.22-.1.91.22,2.09-.95,2.45-1.12.34-2.07-.29-2.66-1.24-.91-1.45-1.77-1.89-2.91-.2-1.77,2.61-4.39,2.64-6.91,1.73-5.47-1.98-10.68-4.58-15.75-7.43-.39-.22-1.11-1.6-1.8-3.39-1.62-4.24-.12-5.86-1.25-11.26-.09-.45-.06-1.5-.12-2.97-.1-2.14-.17-3.13-.18-3.45-.09-2.7,2.42-4.81,5.98-9.06,2.84-3.4,4.72-6.22,6.32-8.63,1.31-1.98,2.8-4.2,4.26-7.07,0,0,2.96-5.8,4.88-23.32.05-.45.14-1.51-.48-2.36-.21-.29-.52-.55-.96-.76-9.26-4.39-15.83-11.32-20.97-20.19-3.43-5.91-6.19-12.24-10.36-17.74-1.92-2.53-1.83-2.53-3.18.22-4.15,8.48-10.2,15.62-16.39,22.62-4.86,5.49-10.07,10.69-15.77,15.35-.73.59-1.17,1.26-1.02,2.2.29,1.8-1.41,13.49.61,21.39.59,2.29,3.07,5.84,8.05,12.95,3.38,4.83,6.57,9.87,10.68,14.1.4.41,1.66,1.68,2.29,3.72.27.89.35,1.69.36,2.78.03,4.69-1.29,6.63-2.46,11.63-.1.43-.33,1.38-1.11,2.2-.43.45-.99.79-1.69,1.05-4.92,1.8-9.83,3.63-14.76,5.43-.52.19-1.35.51-1.62.28-2.69-2.28-5.87-1.03-8.81-1.27-2.19-.18-2.83-1.03-2.43-3.1.47-2.46.15-4.92-.78-7.5ZM125.15,57.75c-2.96-4.5-7.38-7.66-10.67-11.85,1.83,5.53,6.59,8.38,10.67,11.85Z" fill="#2b1c12" stroke-width="0"/></svg>