<?xml version="1.0" encoding="utf-8"?>
<!-- Generator: Adobe Illustrator 25.2.2, SVG Export Plug-In . SVG Version: 6.00 Build 0)  -->
<svg version="1.1" id="Layer_1" xmlns="http://www.w3.org/2000/svg" xmlns:xlink="http://www.w3.org/1999/xlink" x="0px" y="0px"
	 viewBox="0 0 56.7 50.6" style="enable-background:new 0 0 56.7 50.6;" xml:space="preserve">
<style type="text/css">
	.st0{fill:none;}
	.st1{fill:#625E5D;}
	.st2{fill:#1D1D1B;}
	.st3{fill:#4F5AA4;}
	.st4{fill:#E6BD90;stroke:#1D1D1B;stroke-width:0.5006;stroke-miterlimit:10;}
	.st5{fill:#FFFFFF;stroke:#1D1D1B;stroke-width:0.5006;stroke-miterlimit:10;}
	.st6{fill:#1D1D1B;stroke:#1D1D1B;stroke-width:0.1252;stroke-miterlimit:10;}
	.st7{fill:#FFFFFF;}
</style>
<g>
	<path class="st0" d="M18.8,31.1c-0.3,0.5-0.2,1.2,0.2,1.6c0.4,0.5,0.9,0.7,1.5,1c2.2,1,4.5,2.2,5.9,4.2c0.4,0.6,0.6,1.2,0.9,1.8
		c0.3,0.8,1.4,7.3,1.6,8.2l0.8,7.7c0.5-4.8,1.4-11.9,3-16.2c0.6-1.6,1.2-3.3,2.6-4.2c0.6-0.4,0.8-0.4,1.4-0.8
		c0.6-0.4,1.3-1.1,1.4-1.8c0.1-0.5,0.3-1.1,0.1-1.5l-0.4-0.4c0.2,0.1,0.3,0.2,0.4,0.4l1.4,1.3c0.1-0.3,0.2-0.4,0.3-0.5
		c0.3-0.3,0.2-0.9-0.1-1.2c-0.3-0.3-0.7-0.5-1.2-0.5c-0.4,0-0.9-0.3-1.3-0.4c-0.5-0.1-1.3,0-1.8-0.2l-14.3,0.3
		c-0.9,0.1-2.5,0.5-3.3,1.1c-0.3,0.2-0.6,0.6-0.7,1c-0.1,0.4-0.2,0.5,0.2,1l0.2,0.2c0.1-0.1,0.1-0.1,0.2-0.2L18.8,31.1z"/>
	<g>
		<path class="st1" d="M24.3,37.6c-1.2-1.2-2.8-1.4-4.3-2.3c-1-0.6-1.2-1.4-2-2.1l-0.6-0.4c-0.4-0.5-0.3-0.6-0.2-1
			c0.1-0.4,0.3-0.7,0.7-1c0.7-0.6,2.4-1,3.3-1.1l14.3-0.3c0.5,0.2,1.3,0.1,1.8,0.2c0.4,0.1,0.9,0.3,1.3,0.4s0.9,0.2,1.2,0.5
			c0.3,0.3,0.4,0.9,0.1,1.2c-0.1,0.1-0.2,0.3-0.3,0.6L39,33.1c-0.7,0.7-0.8,1.1-1.4,1.9c-0.6,1-1.5,1.9-2.6,2.5
			c-0.5,0.3-1.1,0.6-1.5,1"/>
		<g>
			<path class="st2" d="M24.5,37.4c-1.5-1.4-3.9-1.5-5.2-3.1c-0.4-0.5-0.8-1-1.3-1.4c-1.2-0.9-0.1-1.8,1-2.3
				c1.7-0.7,3.5-0.6,5.3-0.6c4.1-0.1,8.3-0.4,12.4-0.1c0.6,0,1.2,0.2,1.8,0.4c0.1,0,0.2,0,0.3,0.1c0.2,0.4,0.4,0.8,0.7,1.3
				c0,0.1-0.2,0.2-0.2,0.3c-0.2,0.7-0.6,1.2-1,1.7c-0.7,0.9-1.1,1.9-2,2.7c-0.9,0.8-2,1.2-2.8,2c-0.3,0.3,0.2,0.7,0.4,0.4
				c0.8-0.8,2-1.2,2.8-2c0.8-0.8,1.3-1.7,1.9-2.6c0.4-0.6,0.8-1,1.1-1.7c0.3-0.6,0.8-1.1,0.5-1.8c-0.4-0.8-1.3-0.8-2-1.1
				c-0.9-0.3-1.8-0.3-2.7-0.4c-0.6-0.1-1.3,0-1.9,0c-2.9,0.1-5.8,0.1-8.8,0.2c-2.2,0-4.4-0.1-6.4,0.9c-0.7,0.4-1.4,0.9-1.4,1.8
				c0,0.7,0.4,1,0.9,1.4c0.9,0.7,1.4,1.8,2.5,2.4c1.3,0.7,2.8,1,3.9,2C24.4,38.1,24.8,37.6,24.5,37.4L24.5,37.4z"/>
		</g>
	</g>
	<g>
		<path class="st3" d="M20.6,34c0.7,0.3,1.4,0.5,2.1,0.8c1.8,0.6,3.6,1.3,5.4,1.4c3,0.2,5.9-1,8.7-1.9c0.2-0.1,0.5-0.1,0.7-0.1
			c0.3,0.1,0.3,0.4,0.5,0.7c0.4,0.6,0.4,0.9,0.8,1.6c0.2,0.3-0.2,0.6-0.1,0.9c0.1,0.6-0.2,0.6-0.5,1.2c-0.4,1.1-0.8,1-1.1,2.1
			c-0.2,0.8-0.4,1.5-0.9,2.3c-1.2,2-0.8,2.8-2,5.8c-0.2,0.5-0.5,4.8-1,5.1c-0.4,0.3-0.8,1.4-1.1,1.7c-0.9,0.8-1.5,2.6-2.4,2.5
			c-1.3-0.2-1.9-2.1-2.9-2.9c-1.8-1.4-1.7-2.9-2.5-5.1c-1.1-3.1-0.2-3.7-1.7-6.7c-0.4-0.8-1-2.8-1.2-3.6c-0.2-0.9-2.1-2.7-1.5-3.3
			c0.6-0.7-0.7-2.6,0.1-2.4L20.6,34z"/>
		<g>
			<path class="st2" d="M20.5,34.3c2.9,1.1,5.9,2.4,9.1,2.2c1.4-0.1,2.7-0.4,4-0.8c0.7-0.2,1.4-0.4,2.1-0.7c0.3-0.1,0.9-0.4,1.2-0.4
				c0.8,0,0.8,0.4,1.1,1c0.3,0.6,0.4,1,0.4,1.6c-0.1,0.6-0.3,1.1-0.6,1.6c-0.2,0.4-0.6,0.8-0.8,1.2c-0.3,0.7-0.4,1.4-0.8,2.1
				c-0.4,0.9-1,1.7-1.2,2.6c-0.4,1.2-0.6,2.4-1,3.5c-0.6,1.5-0.4,3.2-0.8,4.8c-0.2,0.6-0.6,1.2-1,1.8c-0.3,0.5-0.7,0.8-1,1.3
				c-0.5,0.6-0.9,1.9-1.9,1.5c-0.9-0.3-1.4-1.8-2.1-2.4c-0.5-0.5-1-0.8-1.4-1.4c-0.4-0.6-0.6-1.2-0.7-1.8c-0.3-1.2-0.8-2.4-1-3.6
				c-0.2-1-0.2-2.1-0.5-3.1c-0.3-1.3-1-2.4-1.4-3.6c-0.3-1-0.5-2.1-1.1-3c-0.3-0.4-0.7-0.9-0.9-1.3c-0.2-0.5,0-0.7,0.1-1.2
				c0.1-0.4-0.1-0.8-0.2-1.2C20.1,34.1,19.9,34.2,20.5,34.3c0.4,0.1,0.6-0.5,0.2-0.6c-0.4-0.1-1-0.3-1.2,0.2
				c-0.1,0.3,0.1,0.7,0.1,0.9c0.1,0.2,0.2,0.5,0.2,0.7c0,0.3-0.1,0.5-0.2,0.8c-0.2,0.9,0.6,1.7,1,2.4c0.7,1,0.8,2.3,1.3,3.5
				c0.5,1.3,1.2,2.5,1.4,3.9c0.2,1.3,0.3,2.5,0.7,3.7c0.4,1.3,0.6,2.7,1.3,3.9c0.6,1.1,1.8,1.9,2.6,3c0.5,0.7,1.2,1.6,2.1,1.5
				c0.9-0.1,1.4-1.3,1.9-1.9c0.6-0.8,1.3-1.6,1.8-2.5c0.4-0.7,0.4-1.7,0.5-2.5c0.3-2.3,0.9-4.4,1.6-6.6c0.4-1.3,1.2-2.5,1.7-3.9
				c0.4-1.1,1.4-2,1.7-3.2c0.1-0.4,0.2-0.9,0.1-1.4c-0.2-0.6-0.7-1.7-1.1-2.1c-0.4-0.4-0.8-0.3-1.3-0.2c-1,0.2-1.9,0.6-2.9,0.9
				c-2.3,0.7-4.6,1.2-7,0.8c-2.1-0.4-4.2-1.3-6.2-2C20.3,33.5,20.1,34.1,20.5,34.3z"/>
		</g>
	</g>
	<g>
		<path class="st1" d="M61.4,63.6c-0.5-1.7-1.3-6.3-1.8-5c-0.6,1.4-1.7-5.4-4.5-10.5c-3.5-6.5-9.6-11.2-15.5-15.7l-0.2-0.2
			c0,0,0,0,0,0.1L39,33.1c-0.7,0.7-0.8,1.1-1.4,1.9c-0.6,1-1.5,1.9-2.6,2.5c-0.5,0.3-1.1,0.6-1.5,1c0.4-0.5,1-0.7,1.5-1
			c1.1-0.6,2-1.5,2.6-2.5c0.5-0.9,0.7-1.2,1.4-1.9l0.4-0.8c0,0,0,0,0-0.1l-1.4-1.3c0.2,0.4,0,1-0.1,1.5c-0.1,0.7-0.8,1.4-1.4,1.8
			c-0.6,0.4-0.8,0.4-1.4,0.8c-1.4,1-2,2.7-2.6,4.2c-1.5,4.4-2.5,11.4-3,16.2l-0.8-7.7c-0.2-0.8-1.3-7.4-1.6-8.2
			c-0.2-0.6-0.5-1.2-0.9-1.8c-1.3-2-3.7-3.2-5.9-4.2c-0.5-0.3-1.1-0.5-1.5-1c-0.4-0.5-0.5-1.2-0.2-1.6l-1.1,1.8
			c-0.1,0.1-0.1,0.1-0.2,0.2l0.4,0.3c0.9,0.7,1.1,1.5,2,2.1c1.4,0.9,3.1,1.1,4.3,2.3c-1.2-1.2-2.8-1.4-4.3-2.3c-1-0.6-1.2-1.4-2-2.1
			L17.6,33c-1,0.8-2,1.4-3.1,2c-1,0.5-2.1,0.9-3,1.5c-2.5,1.5-4.3,4-5.9,6.4c-1.1,1.5-2.1,3.1-3.2,4.6c-0.3,0.4-0.6,0.9-0.8,1.4
			c-0.2,0.4-0.3,0.9-0.4,1.3c-1.6,7.7-3.1,6.4-2.9,14.2c0,1.4,0.3,3.1,1.6,3.7c0.4,0.2,0.9,0.3,1.4,0.3c2.3,0.2,4.7,0.3,7,0.2
			c0.6,0,1.3,0,1.8-0.5c0.4-0.3,0.5-0.8,0.6-1.3c0.6-2.7,0.8-0.5,0.4-3.3c-0.1-1.1-0.3-0.1-0.3-1.1c0-2.6,1.1-3,1.9-5.4
			c0.4-1.3,1.1-2.6,1.7-3.8l0.1,1.1c0.4,4.7,0,8.7-0.2,13.4C14,69.1,14,70.6,13.8,72c-0.2,1.3-0.5,2.7-0.7,4
			c-0.2,1.6-0.4,3.2-0.3,4.8c0,1.2-0.8,2.8-0.4,4c0.3,0.8,0.8,1.3,2.4,1.8c1.6,0.5,4.7,0.3,6.3,0.4c2.7,0.1,6.5,0.4,9.3,0.4
			c4.9-0.1,9.8,0.5,14.7-0.1c0.7-0.1,1.6,0.1,2.1-0.3c1.1-0.7,1-2.5,0.8-3.8c-0.3-3.2-1.5-6.3-2.1-9.5c-0.9-4.5-0.9-9.1-0.9-13.7
			c0-3.6,0.2-7.2-1.4-10.4L43.3,49c2.5,3.3,3.6,7.4,4.6,11.5c0.1,0.6-1.1-1.4-0.7,2.8c0.1,0.8,0.2,1.6,0.6,2.3
			c0.5,1.1,1.6,1.8,2.8,2.2c1.2,0.4,2.4,0.4,3.6,0.5c1.6,0,3.2,0,4.9,0c0.8,0,1.7-0.2,2.2-0.9c0.2-0.2,0.2-0.6,0.2-0.9
			C61.6,64.2,62,65.7,61.4,63.6z"/>
		<g>
			<path class="st2" d="M61.7,63.5c-0.3-1.1-0.5-2.2-0.8-3.3c-0.1-0.5-0.3-1.7-0.8-2c-0.2-0.1-0.3-0.1-0.4,0c-0.1,0-0.1,0.1-0.2,0.2
				c-0.3,0.3,0,0.1,0.1,0.2c-0.5-0.6-0.7-1.9-1-2.6c-0.9-2.9-1.9-5.8-3.4-8.5c-1.7-3-4-5.6-6.5-8c-1.4-1.4-3-2.7-4.5-3.9
				c-1.5-1.2-3.1-2.2-4.5-3.5c-0.2-0.2-0.4-0.1-0.5,0.1c-0.3,1-1.2,1.9-1.7,2.7c-0.6,0.9-1.3,1.6-2.1,2.2c-0.7,0.4-1.4,0.7-1.9,1.3
				c-0.3,0.3,0.2,0.7,0.4,0.4c0.7-0.7,1.7-1.1,2.5-1.7c0.6-0.5,1.2-1.2,1.6-1.9c0.6-1,1.4-1.8,1.8-2.9c0-0.1,0-0.2-0.1-0.3
				c-0.5-0.4-0.9-0.9-1.4-1.3c-0.2-0.2-0.6,0-0.5,0.3c0.4,1.9-1.2,2.7-2.5,3.5c-0.8,0.5-1.4,1.1-1.8,1.9c-1.1,1.8-1.6,3.9-2.1,5.9
				c-1.1,4.3-1.6,8.7-2.1,13.2c0.2,0,0.4,0,0.6,0c-0.3-3.3-0.6-6.5-1.1-9.7c-0.4-2.3-0.6-4.8-1.5-6.9c-0.7-1.5-1.8-2.7-3.1-3.6
				c-0.8-0.5-1.6-0.9-2.4-1.3c-1-0.5-3.3-1.2-2.6-2.7c0.2-0.4-0.3-0.7-0.5-0.3c-0.3,0.5-0.6,1.4-1.1,1.8c-0.2,0.1-0.2,0.4,0,0.5
				c0.9,0.7,1.5,1.8,2.5,2.4c1.4,0.9,3,1.1,4.2,2.2c0.3,0.3,0.7-0.2,0.4-0.4c-1.2-1.1-2.7-1.3-4-2.1c-1.1-0.6-1.7-1.8-2.8-2.6
				c-0.1-0.1-0.2-0.1-0.3,0c-2.3,1.7-5.1,2.5-7.4,4.3c-2.2,1.7-3.7,4-5.2,6.3c-0.9,1.4-1.9,2.7-2.8,4.1c-0.9,1.3-1.1,2.6-1.5,4.1
				c-0.5,1.9-1.2,3.8-1.8,5.6c-0.6,1.7-0.8,3.4-0.8,5.2c0,1.8-0.3,4.8,1.5,6c0.9,0.6,2.2,0.5,3.3,0.6C4.3,68.9,6,69,7.8,69
				c1,0,2.1,0,2.7-0.8c0.5-0.7,0.6-1.8,0.9-2.6c0.2-0.5,0.1-0.9,0-1.5c-0.1-0.4-0.1-0.8-0.3-1.1c0-0.1-0.1-0.1-0.2-0.1
				c-0.1-0.2,0-0.8,0.1-1.1c0.1-1.3,0.9-2.3,1.4-3.5c0.7-1.6,1.3-3.2,2-4.8c-0.2-0.1-0.4-0.1-0.6-0.2c0.2,3.3,0.2,6.5,0.1,9.8
				c-0.1,2-0.2,4.1-0.3,6.1c-0.1,2.2-0.5,4.4-0.9,6.6c-0.3,1.9-0.2,3.8-0.5,5.7c-0.2,1.2-0.8,2.6-0.2,3.8c1.1,2.2,4.7,2.1,6.8,2.1
				c7.5,0,15.1,0.8,22.6,0.5c1,0,2-0.1,2.9-0.2c0.8-0.1,1.7,0,2.4-0.2c1-0.4,1.3-1.4,1.4-2.3c0.3-3.6-1.2-7.2-2-10.6
				c-1.1-4.6-1.1-9.3-1.1-14c0-2.2,0.1-4.5-0.2-6.7c-0.2-1.8-1-3.2-1.4-4.9C43.4,49,43.2,49,43,49.1c1.4,1.9,2.4,4.1,3.2,6.4
				c0.4,1.1,0.7,2.2,0.9,3.3c0,0.2,0.3,1.7,0.4,1.7c1.2,0.2,0.1-0.3,0.2-0.3c-0.4-0.3-0.8,0.4-0.9,0.7c-0.4,1.3,0,3.3,0.5,4.5
				c1.6,4,7.8,3.3,11.2,3.1c1.4-0.1,2.9-0.3,3.2-1.8C62,65.4,62.1,64.7,61.7,63.5c-0.1-0.4-0.7-0.2-0.6,0.2c0.3,1,0.2,1.7,0,2.7
				c-0.4,1.7-2,1.5-3.3,1.5c-1.1,0-2.1,0-3.2,0c-2.1,0-4.5-0.1-6-1.7c-0.8-0.8-1-1.9-1.1-3c-0.1-0.6-0.2-1.5-0.1-2.1
				c0.2-0.8,0.1,0,0.5-0.3c0.6-0.4,0-1.6-0.2-2.2c-0.9-3.5-2-6.9-4.2-9.9c-0.2-0.3-0.7-0.1-0.6,0.2c0.4,1.4,1,2.6,1.3,4
				c0.4,1.9,0.3,3.8,0.3,5.7c0,3.7-0.1,7.4,0.3,11.1c0.4,3.6,1.4,6.9,2.2,10.4c0.4,1.5,0.7,3.2,0.6,4.7c-0.1,1.4-0.5,2-2,2.1
				c-1,0.1-2.1,0.2-3.2,0.2c-3.8,0.2-7.5-0.1-11.3-0.1c-3.3,0-6.6-0.2-9.9-0.4c-2.5-0.1-6.3,0.6-8.3-1.2c-1.2-1.1-0.3-2.8-0.2-4.2
				c0.2-2,0.2-4.1,0.5-6.1c0.7-3.9,0.9-7.8,1.1-11.8c0.2-3.5,0.2-6.9-0.1-10.3c0-0.3-0.4-0.5-0.6-0.2c-0.5,1.2-1.1,2.3-1.6,3.5
				c-0.4,1.2-1,2.3-1.5,3.4c-0.3,0.8-0.7,2-0.4,2.8c0,0.1,0.1,0.3,0.2,0.4c0.1,0.3,0.2,0.8,0.3,1.2c0.1,0.6,0,0.6-0.2,1.1
				c-0.2,0.5-0.2,1-0.4,1.4c-0.6,1.6-1.7,1.4-3,1.4c-1.6,0-3.1-0.1-4.7-0.1c-0.7,0-1.7,0-2.4-0.3c-1-0.4-1.4-1.3-1.6-2.3
				c-0.4-2.2-0.3-4.9,0.3-7.1c0.4-1.6,1.1-3,1.5-4.5c0.4-1.2,0.7-2.5,1-3.7c0.4-1.8,1.5-3.1,2.5-4.6c1.6-2.4,3.2-5,5.3-7.1
				c1.3-1.3,2.7-2.1,4.3-2.9c0.8-0.3,1.5-0.7,2.2-1.1c0.5-0.3,1.1-0.9,1.7-1.1c0.3-0.1-0.1-0.2,0.4,0c0.3,0.1,0.6,0.6,0.8,0.8
				c0.4,0.5,0.8,1,1.3,1.3c1.4,0.9,3,1.1,4.2,2.2c0.3,0.3,0.7-0.2,0.4-0.4c-1.2-1.1-2.7-1.3-4-2.1c-1.1-0.6-1.7-1.8-2.8-2.6
				c0,0.2,0,0.4,0,0.5c0.6-0.5,1-1.4,1.4-2c-0.2-0.1-0.4-0.2-0.5-0.3c-0.7,1.5,0.6,2.4,1.8,3c1.8,0.9,3.7,1.7,5.1,3.3
				c1.9,2.1,2,5.2,2.5,7.8c0.6,3.5,0.9,6.9,1.3,10.5c0,0.4,0.6,0.4,0.6,0c0.5-4.7,1.1-9.5,2.3-14c0.6-2.3,1.4-5.2,3.5-6.4
				c1.6-0.9,3-2,2.7-4.1c-0.2,0.1-0.3,0.2-0.5,0.3c0.4,0.3,0.7,0.8,1.1,1.1c0.1,0.1,0.2,0.3,0.2,0.1c0-0.3-0.2,0.2-0.2,0.2
				c-0.2,0.3-0.4,0.6-0.6,0.9c-0.7,0.9-1.2,2-2,2.8c-0.9,0.9-2.1,1.3-3,2.2c-0.3,0.3,0.2,0.7,0.4,0.4c0.7-0.7,1.7-1.1,2.5-1.7
				c0.6-0.5,1.2-1.2,1.6-1.9c0.6-1,1.4-1.8,1.8-2.9c-0.2,0-0.3,0.1-0.5,0.1c1.1,1.1,2.5,1.9,3.7,2.9c1.4,1.1,2.7,2.2,4,3.3
				c2.6,2.3,5.1,4.9,7,7.9c1.8,2.8,2.9,5.9,4,9.1c0.2,0.5,0.7,3.6,1.7,3.5c0.2,0,0.3-0.3,0.4-0.3c-0.1,0,0,0.1,0.1,0.3
				c0.1,0.3,0.2,0.5,0.2,0.8c0.4,1.2,0.6,2.5,0.9,3.7C61.2,64,61.8,63.9,61.7,63.5z"/>
		</g>
	</g>
	<g>
		<path class="st1" d="M37.7,30.6l0.4,0.4C38,30.8,37.9,30.6,37.7,30.6z"/>
		<g>
			<path class="st2" d="M37.5,30.8c0.1,0.1,0.2,0.2,0.3,0.3c0,0,0,0,0,0c0,0,0,0,0.1,0c0,0,0.1,0,0.1,0c0,0,0.1,0,0.1,0
				c0,0,0.1,0,0.1,0c0,0,0.1-0.1,0.1-0.1c0,0,0-0.1,0-0.1c0,0,0-0.1,0-0.1c0-0.1-0.1-0.1-0.1-0.2c0-0.1-0.1-0.1-0.1-0.2
				c-0.1-0.1-0.2-0.2-0.4-0.2c0,0-0.1,0-0.1,0c0,0-0.1,0-0.1,0c0,0-0.1,0-0.1,0.1c0,0,0,0.1-0.1,0.1C37.4,30.6,37.4,30.7,37.5,30.8
				c0,0,0.1,0.1,0.1,0.1c0,0,0,0,0.1,0c0,0,0,0-0.1,0c0,0,0.1,0,0.1,0.1c0,0,0,0-0.1,0c0,0,0.1,0.1,0.1,0.1c0,0,0,0,0-0.1
				c0,0,0.1,0.1,0.1,0.1c0,0,0,0,0-0.1c0,0,0,0,0,0c0.2-0.1,0.3-0.2,0.5-0.3c-0.1-0.1-0.2-0.2-0.3-0.3c0,0,0,0,0,0
				c-0.1-0.1-0.1-0.1-0.2-0.1c0,0-0.1,0-0.1,0c0,0-0.1,0-0.1,0.1c-0.1,0.1-0.1,0.1-0.1,0.2C37.4,30.7,37.4,30.7,37.5,30.8z"/>
		</g>
	</g>
	<g>
		<g>
			<path class="st2" d="M29.2,55.5c0.3,2.7,0,5.4-0.1,8.1c-0.1,2.8,0.4,5.4,0.5,8.2c0,2.6-0.1,5.3-0.2,7.9c-0.1,1.3,0,2.6,0.1,3.9
				c0.1,1.3,0.6,2.5,0.4,3.8c-0.1,0.4,0.5,0.6,0.6,0.2c0.1-1,0-1.9-0.2-2.9c-0.3-1.3-0.4-2.7-0.4-4c0-2.8,0.2-5.6,0.2-8.4
				c0.1-2.7-0.6-5.4-0.5-8.2c0.1-2.8,0.4-5.7,0.1-8.5C29.8,55.1,29.2,55.1,29.2,55.5L29.2,55.5z"/>
		</g>
	</g>
</g>
<g>
	<path class="st4" d="M22.3,30c-0.3,1.1-1.1,2.7-1.5,3.8c0.5,0.2,1.3,0.8,1.8,1c0.6,0.2,0.7,0.4,1.1,0.5c0.5,0.2,0.8,0.4,1.3,0.5
		c1.9,0.3,3.8,0.5,5.8,0.2c1.9-0.2,3.6-1,5.2-2.1c-0.4-0.6-0.6-0.9-0.9-1.7c-0.2-0.7-0.4-2-0.9-2.6L22.3,30z"/>
	<path class="st4" d="M32.6,6c-0.3-0.2-0.7-0.3-1-0.4c-2-0.3-3.5-0.4-5.2-0.3c-1.9,0-3.9,0.5-5.3,1.9C20.3,8,19.8,9,19.5,10.1
		c-1.4,4-1.7,6.1-1.8,10.3c0,0.8,0.1,2.9,0.3,3.6c0.2,0.9,0.9,1.8,1.4,2.7c0.7,1.6,1.2,2.7,2.4,4c2.9,3.2,8.3,3.3,11.7,0.6
		s4.9-7.2,5.1-11.5c0.1-1.5,0-3-0.2-4.5c-0.7-4.3-1.3-6.2-4.7-8.7c-0.1-0.1-0.2-0.2-0.4-0.2L32.6,6z"/>
	<path class="st5" d="M32.4,17.4c-0.3,0.2-0.5,0.4-0.7,0.6c-0.1,0.1-0.2,0.3-0.2,0.5c-0.1,0.3-0.2,0.6-0.2,0.9
		c0,0.7,0.1,1.4,0.4,1.8c0.6,0.6,1.6,0.6,2.4,0.6c0.3,0,0.6,0,0.8-0.1c0.5-0.2,0.7-0.8,0.7-1.4c0-0.4,0.1-0.7-0.1-1.1
		c-0.1-0.2-0.2-0.4-0.3-0.6c-0.2-0.3-0.4-0.7-0.7-0.9c-0.7-0.5-0.8-0.6-1.7-0.5L32.4,17.4z"/>
	<path class="st5" d="M23.6,17.7c-0.1-0.1-0.2-0.1-0.3-0.1c-0.4-0.1-0.7-0.2-1.1-0.2c-0.3,0-0.6,0.2-0.9,0.3c-0.6,0.3-0.9,1-1,1.7
		c-0.1,0.7,0,1.6,0.6,2c0.3,0.2,0.7,0.3,1.2,0.4c0.7,0.1,1,0.1,1.6,0.1c0.2,0,0.5-0.2,0.7-0.4c0.1-0.1,0.4-0.5,0.5-0.6
		c0.4-1.4,0.4-2.2-0.8-2.9L23.6,17.7z"/>
	<circle class="st6" cx="22.6" cy="19.6" r="0.9"/>
	<circle class="st6" cx="33.5" cy="19.6" r="0.9"/>
	<g>
		<path class="st7" d="M23.2,18.9"/>
		<g>
			<path class="st7" d="M23.2,19.3c0.4,0,0.4-0.6,0-0.6C22.8,18.6,22.8,19.3,23.2,19.3L23.2,19.3z"/>
		</g>
	</g>
	<g>
		<path class="st7" d="M34.1,18.8"/>
		<g>
			<path class="st7" d="M34.1,19.2c0.4,0,0.4-0.6,0-0.6C33.7,18.5,33.7,19.2,34.1,19.2L34.1,19.2z"/>
		</g>
	</g>
	<g>
		<g>
			<path class="st2" d="M28.7,20.6c-0.7,0.3-1.5,0.4-2.1,1c-0.6,0.5-0.7,1.3-0.6,2.1c0,0.4,0.1,0.8,0.3,1.1c0.1,0.3,0.3,0.7,0.6,0.9
				c0.3,0.2,0.8,0.2,1.2,0.1c0.4,0,0.8-0.1,1.3-0.2c0.4-0.1,0.2-0.7-0.2-0.6c-0.3,0.1-0.7,0.2-1,0.2c-0.3,0-0.7,0.1-0.9-0.1
				C27.1,25,27,24.9,27,24.8c-0.1-0.1-0.1-0.3-0.2-0.4c-0.1-0.3-0.1-0.6-0.2-0.9c0-0.6,0-1.2,0.5-1.6c0.5-0.4,1.1-0.5,1.7-0.7
				c0.2-0.1,0.3-0.2,0.2-0.4C29,20.7,28.9,20.5,28.7,20.6L28.7,20.6z"/>
		</g>
	</g>
	<g>
		<g>
			<path class="st2" d="M25.6,29.2c1,0.2,2.1,0,3.1-0.3c1-0.2,2-0.5,2.8-1.1c0.3-0.3-0.1-0.7-0.4-0.4c-0.7,0.6-1.6,0.8-2.5,1
				c-0.9,0.2-1.9,0.5-2.8,0.3C25.3,28.5,25.2,29.1,25.6,29.2L25.6,29.2z"/>
		</g>
	</g>
	<g>
		<path class="st2" d="M17.6,20.3c0.6-0.2,1-0.8,1.3-1.4c0.3-0.6,0.4-1.2,0.8-1.8c0.4-0.7,0.7-1.1,1-1.9c0.2-0.5,0.1-1.3,0.4-1.6
			c0.5-0.6,0-0.3,1.2-0.9c0.1-0.1,0.9-0.1,1.1-0.1c1,0.2,0.6,0.1,1.5,0.3c0.7,0.2,1.4,1,2.2,1c0.2,0,0.5,0,0.7,0c0.3,0,0.4,0,0.7,0
			c0.6,0,1.2-0.4,1.7-0.8c1.1-0.8,2-1.2,3.3-0.9c0.5,0.1,1.4,0.5,1.8,0.8c0.3,0.2,0.6,0.4,0.8,0.8c0.3,0.4,0.6,0.6,0.7,1.2
			c0.4,1.5,0.7,3,1.1,4.5c0,0.2,0.1,0.4,0.2,0.5s0.4,0.2,0.5,0.1c0.1-0.1,0.1-0.1,0.2-0.2c0.3-0.5,0.6-1.1,0.9-1.6
			c0.1-0.2,0.3-0.5,0.2-0.8c0-0.3-0.3-0.6-0.5-0.9c-0.5-0.8-0.4-1.8-0.2-2.7c0.1-0.4,0.2-0.8,0.1-1.1C39,12,38.2,11.5,38,10.7
			c-0.1-0.4,0.9-1.4,0.9-1.9c0-0.5-1.2-0.5-1.6-0.6c-0.2-0.1-0.4,0-0.6-0.1c-0.3-0.1-0.4-0.4-0.5-0.7c-0.3-1-0.1-2.9-0.8-3.7
			c-0.1,0.3-1,1.6-1.3,1.7c-0.3,0-0.5-0.2-0.7-0.3c-0.2,0-1.4-0.2-1.6-0.2c-1.7,0.2-2.5-0.5-2.9-2.2c-0.1-0.3-0.5,1-0.8,1.2
			c-0.1,0.1-1.2,0.3-1.4,0.4c-0.3,0.3-0.8,0.3-1.2,0.4c-0.5,0.1-1.1-0.2-1.6-0.2c-0.9-0.1-1.6,0.8-2.6,0.8c-0.3,0-1.2,0.3-1.3-0.3
			C20,4.4,20.3,7,19.8,7.5c-0.4,0.3-1,0.3-1.3,0.7c-0.1,0.1-0.2,0.3-0.3,0.4C17.9,8.7,17.3,8,16.9,7c0-0.1-0.4,2.3-0.4,2.4
			c-0.4,1.3,0.5,2.1,1.1,3.3c0.3,0.6,0.7,1.2,0.5,1.9c-0.1,0.3-0.3,0.5-0.4,0.8c-0.1,0.3-0.2,0.6-0.2,0.9c-0.1,0.8-0.2,1.7-0.2,2.5
			c0,0.4-0.2,1,0.1,1.2L17.6,20.3z"/>
		<g>
			<path class="st2" d="M17.7,20.6c0.7-0.4,1.1-0.9,1.4-1.6c0.5-1,1.1-2,1.6-3.1c0.7-1.4,0.3-3.1,2.4-3c0.6,0,1.4,0.2,2,0.5
				c0.7,0.4,1.2,0.7,2,0.8c0.8,0,1.5,0,2.2-0.3c1.2-0.6,2.1-1.7,3.6-1.4c1,0.1,2,0.6,2.7,1.4c0.9,0.9,1,2.1,1.3,3.3
				c0.1,0.6,0.4,4.1,1.8,3.3c0.5-0.3,1.2-1.8,1.3-2.4c0.3-1-0.6-1.5-0.7-2.4c-0.2-1,0.4-2,0.2-2.9c-0.2-0.9-1.3-1.5-0.9-2.5
				c0.2-0.5,0.8-0.9,0.6-1.5C39.1,8.2,38.4,8.1,38,8c-0.5-0.1-1.2-0.1-1.5-0.7c-0.2-0.4-0.2-1-0.2-1.5c-0.1-0.8-0.1-1.6-0.6-2.2
				c-0.1-0.2-0.4-0.2-0.5,0c-0.3,0.5-0.7,1.5-1.4,1.4c-0.5-0.1-1-0.3-1.6-0.3c-0.7-0.1-1.5,0.2-2.2-0.4c-0.6-0.5-0.6-1.3-1-1.8
				c-0.1-0.1-0.3-0.1-0.4,0c-0.5,0.4-0.4,1.1-1.1,1.3c-0.9,0.3-1.9,0.8-2.8,0.6c-0.7-0.2-1.2-0.2-1.9,0.1c-0.1,0-2.3,1-2.4,0.5
				c-0.1-0.4-0.6-0.4-0.6,0c0,0.6,0.2,1.7-0.1,2.2c-0.1,0.2-1,0.7-1.3,0.8c-0.3,0.2-0.1,0.2-0.4,0c-0.3-0.2-0.5-0.8-0.7-1.1
				c-0.1-0.2-0.4-0.2-0.5,0c-0.4,0.5-0.3,1.6-0.4,2.2c-0.2,1.2,0,1.9,0.6,2.9c0.2,0.4,0.4,0.8,0.6,1.2c0.4,0.8,0.2,1.2-0.1,2
				c-0.2,0.6-0.2,1.2-0.3,1.9c-0.1,0.8-0.3,1.7-0.2,2.5c0.1,0.4,0.3,0.6,0.4,0.9c0.2,0.4,0.7,0,0.5-0.3c-0.6-1.1-0.2-2.7,0-3.9
				c0.2-1.3,0.9-1.8,0.3-3.2c-0.3-0.6-0.7-1.2-1-1.8c-0.4-0.7-0.4-1.2-0.3-2c0.1-0.5,0-1.6,0.3-2c-0.2,0-0.4,0-0.5,0
				c0.2,0.5,0.7,1.6,1.4,1.7c0.2,0,0.3,0,0.4-0.1c0.4-0.2,0.9-0.7,1.3-0.9C20.6,7.2,20.4,6,20.3,5c-0.2,0-0.4,0-0.6,0
				c0.1,0.6,0.5,0.8,1.1,0.8c0.4,0,0.9-0.1,1.3-0.3c0.9-0.3,1.3-0.6,2.3-0.5c1.2,0.2,2-0.3,3.2-0.6c0.3-0.1,0.6-0.1,0.8-0.4
				c0.3-0.3,0.3-0.9,0.6-1.1c-0.1,0-0.3,0-0.4,0c0.2,0.3,0.3,0.9,0.5,1.3c0.2,0.3,0.4,0.6,0.8,0.7c0.8,0.5,1.6,0.2,2.4,0.3
				c0.5,0.1,0.9,0.2,1.4,0.4c0.3,0.1,0.4,0.1,0.7,0c0.6-0.2,1.1-1.2,1.3-1.7c-0.2,0-0.4,0-0.5,0c0.8,1.2,0,3.2,1.1,4.3
				c0.4,0.4,1.1,0.4,1.6,0.5c1.3,0.2,0.2,0.9,0,1.6c-0.2,0.4,0,0.8,0.2,1.2c0.2,0.3,0.5,0.6,0.7,1c0.3,0.7,0,1.4,0,2.2
				c-0.1,0.9,0.1,1.4,0.4,2.2c0.3,0.9,0.2,1.4-0.2,2.2c-0.1,0.1-0.4,0.8-0.4,0.8c-0.3,0.1-0.4-0.8-0.5-1c-0.4-1.7-0.5-3.8-1.7-5.2
				c-0.9-1.1-2.5-1.9-4-1.8c-0.8,0.1-1.4,0.4-2.1,0.8c-1,0.7-2,1.2-3.3,1c-0.9-0.1-1.6-0.8-2.4-1c-0.5-0.1-1-0.2-1.6-0.2
				c-1,0-2,0.5-2.4,1.4c-0.2,0.4-0.1,0.8-0.2,1.2c-0.1,0.6-0.5,1.2-0.8,1.7c-0.7,1.1-0.9,2.8-2.1,3.4C17,20.2,17.4,20.7,17.7,20.6z"
				/>
		</g>
	</g>
	<g>
		<g>
			<path class="st2" d="M18.2,22C18.2,21.9,18.2,22,18.2,22C18.2,22,18.2,22,18.2,22c-0.1,0.1-0.1,0.2-0.2,0.2
				c-0.1,0.1-0.2,0.2-0.3,0.3c-0.1,0.1-0.2,0.2-0.2,0.3c-0.1,0.1-0.2,0.1-0.3,0.2c-0.5,0.3-0.9,0.7-0.9,1.3c0,0.2,0.1,0.3,0.3,0.3
				c0.2,0,0.3-0.1,0.3-0.3c0-0.1,0-0.2,0.1-0.3c0.1-0.1,0.1-0.2,0.2-0.2c0.2-0.1,0.4-0.2,0.6-0.4c0.2-0.1,0.4-0.4,0.6-0.6
				c0.2-0.2,0.4-0.4,0.5-0.7c0.1-0.2-0.1-0.3-0.2-0.4C18.4,21.7,18.3,21.8,18.2,22L18.2,22z"/>
		</g>
	</g>
	<g>
		<g>
			<path class="st2" d="M19.1,24.1c-0.4,0.3-0.7,0.6-1,0.9c-0.1,0.2-0.3,0.4-0.3,0.6c-0.1,0.2-0.1,0.5-0.1,0.7
				c0,0.2,0.2,0.3,0.3,0.3c0.2,0,0.3-0.1,0.3-0.3c0-0.2,0-0.4,0.1-0.6c0-0.1,0.1-0.1,0.1-0.2c0-0.1,0.1-0.2,0.2-0.2
				c0.2-0.3,0.5-0.6,0.8-0.7c0.1-0.1,0.2-0.3,0.1-0.4C19.4,24.1,19.2,24,19.1,24.1L19.1,24.1z"/>
		</g>
	</g>
	<g>
		<g>
			<path class="st2" d="M18.5,23.6C18.5,23.6,18.5,23.6,18.5,23.6C18.5,23.5,18.5,23.6,18.5,23.6C18.5,23.6,18.5,23.5,18.5,23.6
				C18.5,23.5,18.5,23.5,18.5,23.6C18.5,23.6,18.5,23.6,18.5,23.6C18.5,23.6,18.5,23.6,18.5,23.6c-0.1,0-0.1,0-0.2,0
				c-0.1,0.1-0.3,0.2-0.4,0.4c-0.3,0.2-0.6,0.5-0.8,0.7c-0.1,0.1-0.1,0.3,0,0.4c0.1,0.1,0.3,0.1,0.4,0c0.3-0.3,0.6-0.6,1-0.8
				c0.2-0.1,0.3-0.3,0.4-0.4c0.1-0.1,0.1-0.2,0.1-0.4c0-0.1,0-0.3-0.1-0.4c-0.1-0.1-0.3-0.1-0.4,0C18.4,23.3,18.4,23.5,18.5,23.6
				L18.5,23.6z"/>
		</g>
	</g>
	<g>
		<g>
			<path class="st2" d="M19.3,24.9C19,25,19,25.3,19,25.5c0,0.3-0.1,0.5-0.2,0.8c-0.1,0.5-0.3,1.1-0.4,1.6c-0.1,0.4,0.5,0.6,0.6,0.2
				c0.1-0.5,0.3-1,0.4-1.5c0.1-0.2,0.1-0.5,0.2-0.7c0-0.1,0-0.3,0.1-0.4c0,0,0-0.1,0-0.1c0,0,0,0,0-0.1c0,0,0,0,0,0.1
				C19.9,25.2,19.6,24.7,19.3,24.9L19.3,24.9z"/>
		</g>
	</g>
	<g>
		<g>
			<path class="st2" d="M19.8,26.8C19.9,26.8,19.8,26.7,19.8,26.8C19.8,26.8,19.8,26.8,19.8,26.8c0,0.1,0,0.2,0,0.3
				c0,0.2,0,0.4,0,0.6c-0.1,0.1-0.2,0.3-0.3,0.4c-0.1,0.2-0.3,0.3-0.4,0.5c-0.1,0.1-0.1,0.3,0,0.4c0.1,0.1,0.3,0.1,0.4,0
				c0.2-0.2,0.3-0.4,0.5-0.6c0.1-0.2,0.3-0.4,0.4-0.6c0-0.3,0-0.5,0-0.8c0-0.2,0-0.5-0.2-0.7c-0.1-0.1-0.3-0.1-0.4,0
				C19.7,26.4,19.7,26.6,19.8,26.8L19.8,26.8z"/>
		</g>
	</g>
	<g>
		<g>
			<path class="st2" d="M21.1,28c-0.2,0.4-0.5,0.8-0.7,1.2c-0.3,0.4-0.6,0.8-0.9,1.2c-0.1,0.1,0,0.3,0.1,0.4c0.2,0.1,0.3,0,0.4-0.1
				c0.3-0.4,0.6-0.8,0.9-1.3c0.3-0.4,0.6-0.8,0.8-1.3c0.1-0.2-0.1-0.3-0.2-0.4C21.3,27.7,21.2,27.8,21.1,28L21.1,28z"/>
		</g>
	</g>
	<g>
		<g>
			<path class="st2" d="M21.7,28.8c-0.1,0.6-0.3,1.2-0.3,1.8c0,0.4,0,1-0.4,1.2c-0.2,0.1-0.2,0.3-0.1,0.4c0.1,0.2,0.3,0.2,0.4,0.1
				c0.6-0.3,0.7-0.9,0.7-1.4c0-0.3,0-0.6,0.1-0.9c0.1-0.3,0.1-0.6,0.2-1c0-0.2,0-0.3-0.2-0.4C22,28.6,21.8,28.6,21.7,28.8L21.7,28.8
				z"/>
		</g>
	</g>
	<g>
		<g>
			<path class="st2" d="M22.2,30.3c0.1,0.1,0.1,0.3,0.1,0.4c0,0.2,0,0.4,0,0.5c0,0.5,0.1,0.9,0.2,1.4c0.1,0.4,0.7,0.2,0.6-0.2
				C23,31.9,23,31.5,22.9,31c0-0.4,0-0.8-0.3-1.2c-0.1-0.1-0.3-0.1-0.4,0C22,29.9,22.1,30.1,22.2,30.3L22.2,30.3z"/>
		</g>
	</g>
	<g>
		<g>
			<path class="st2" d="M23,30.6c0.2,0.7,0.3,1.3,0.4,2c0,0.3,0,0.7,0,1c0,0.3,0,0.6-0.1,0.9c-0.2,0.4,0.4,0.7,0.5,0.3
				c0.3-0.7,0.3-1.4,0.2-2.2c-0.1-0.8-0.2-1.5-0.4-2.2C23.5,30.1,22.9,30.2,23,30.6L23,30.6z"/>
		</g>
	</g>
	<g>
		<g>
			<path class="st2" d="M24.3,31.3c0,0.7,0.2,1.3,0.3,1.9c0.1,0.3,0.1,0.6,0.2,0.9c0,0.2,0.1,0.6-0.1,0.7c-0.3,0.3,0.1,0.7,0.4,0.4
				c0.5-0.5,0.3-1.3,0.2-1.9C25.2,32.7,25,32,25,31.3C25,30.9,24.3,30.9,24.3,31.3L24.3,31.3z"/>
		</g>
	</g>
	<g>
		<g>
			<path class="st2" d="M26,31.4c-0.3,0.9,0.2,1.6,0.6,2.4c0.3,0.5,0.6,1.4,0,1.8c-0.4,0.2,0,0.7,0.3,0.5c0.7-0.4,0.8-1.3,0.5-2
				c-0.3-0.8-1.1-1.6-0.8-2.5C26.8,31.2,26.1,31,26,31.4L26,31.4z"/>
		</g>
	</g>
	<g>
		<g>
			<path class="st2" d="M27.6,31.6c0.2,0.2,0.4,0.3,0.4,0.6c0,0.4-0.1,0.7-0.1,1.1c0,0.4,0,0.7,0.1,1.1c0.1,0.4,0.1,0.7,0,1
				c-0.1,0.4,0.5,0.5,0.6,0.2c0.1-0.4,0.1-0.8,0-1.2c-0.1-0.4-0.2-0.8-0.1-1.3c0-0.4,0.2-0.8,0.1-1.2c-0.1-0.4-0.4-0.6-0.7-0.8
				C27.6,30.9,27.3,31.4,27.6,31.6L27.6,31.6z"/>
		</g>
	</g>
	<g>
		<g>
			<path class="st2" d="M29.2,31.6c0,0,0,0.2,0,0.3c0,0.1,0,0.2,0,0.3c0,0.2,0,0.4,0,0.6c0,0.4,0.1,0.8,0.2,1.2
				c0.1,0.4,0.3,0.7,0.3,1.1c0,0.4,0,0.7,0.2,1.1c0.2,0.3,0.7,0,0.5-0.3c-0.2-0.3-0.1-0.7-0.1-1.1c-0.1-0.4-0.3-0.8-0.3-1.2
				c-0.1-0.4-0.1-0.8-0.1-1.3c0-0.4,0-0.9-0.3-1.1C29.4,30.9,28.9,31.4,29.2,31.6L29.2,31.6z"/>
		</g>
	</g>
	<g>
		<g>
			<path class="st2" d="M30.7,31.7c0.2,0,0.2,0.4,0.2,0.5c0,0.3-0.2,0.5-0.3,0.8c-0.1,0.3-0.1,0.6-0.2,0.9c0,0.3-0.1,0.6-0.2,0.9
				c-0.1,0.4,0.5,0.5,0.6,0.2c0.1-0.4,0.2-0.7,0.2-1.1c0-0.2,0-0.4,0.1-0.6c0.1-0.2,0.1-0.3,0.2-0.5c0.2-0.6,0.1-1.7-0.7-1.7
				C30.3,31,30.3,31.6,30.7,31.7L30.7,31.7z"/>
		</g>
	</g>
	<g>
		<g>
			<path class="st2" d="M31.7,31.3c0.1,0.3,0.3,0.5,0.5,0.7c0.2,0.3,0.2,0.6,0.2,1c0,0.4,0.1,0.7,0.2,1.1c0.1,0.4,0.2,0.7,0.4,1
				c0.2,0.3,0.7,0,0.5-0.3c-0.2-0.3-0.3-0.7-0.4-1c-0.1-0.3-0.2-0.7-0.2-1c0-0.3,0-0.7-0.2-1c-0.1-0.2-0.4-0.4-0.5-0.7
				C32.2,30.8,31.6,30.9,31.7,31.3L31.7,31.3z"/>
		</g>
	</g>
	<g>
		<g>
			<path class="st2" d="M32.8,31c0.2,0.2,0.5,0.4,0.7,0.5c0.1,0.1,0.2,0.1,0.3,0.2c0,0.1,0.1,0.1,0.1,0.2c0,0.2,0,0.5,0.1,0.7
				c0,0.3,0.2,0.5,0.3,0.7c0.3,0.3,0.7-0.2,0.4-0.4c-0.1-0.1-0.2-0.3-0.2-0.5c0-0.3,0-0.5-0.1-0.8c-0.1-0.3-0.3-0.5-0.6-0.6
				c-0.2-0.2-0.5-0.4-0.7-0.6c-0.1-0.1-0.3,0-0.4,0.1C32.6,30.7,32.7,30.9,32.8,31L32.8,31z"/>
		</g>
	</g>
	<g>
		<g>
			<path class="st2" d="M33.7,29.3c0.1,0.3,0.2,0.5,0.3,0.7c0.2,0.2,0.3,0.4,0.5,0.6c0.1,0.2,0.2,0.4,0.3,0.7
				c0.1,0.3,0.1,0.6,0.1,0.9c0,0.2,0.2,0.3,0.4,0.2c0.2,0,0.2-0.2,0.2-0.4c-0.1-0.5-0.1-1.2-0.4-1.6c-0.1-0.2-0.3-0.4-0.5-0.6
				c-0.2-0.2-0.3-0.4-0.4-0.7c-0.1-0.2-0.2-0.3-0.4-0.2C33.8,28.9,33.7,29.1,33.7,29.3L33.7,29.3z"/>
		</g>
	</g>
	<g>
		<g>
			<path class="st2" d="M35,28.4c0.2,0.1,0.5,0.1,0.7,0.2c0.2,0,0.5,0.1,0.7,0.2c0.2,0.1,0.3,0.1,0.4,0.3c0,0,0.1,0.1,0.1,0.2
				c0,0,0,0.1,0,0.1c0,0,0,0,0,0.1c0,0,0,0,0,0c0,0,0,0.1,0,0.1c0,0.2,0.2,0.3,0.3,0.3c0.2,0,0.3-0.1,0.3-0.3c0.1-0.5-0.4-1-0.8-1.2
				C36.5,28.1,36.3,28,36,28c-0.3-0.1-0.6-0.1-0.8-0.2c-0.2,0-0.3,0.1-0.4,0.2C34.7,28.2,34.8,28.3,35,28.4L35,28.4z"/>
		</g>
	</g>
	<g>
		<g>
			<path class="st2" d="M35.6,27.6c0.4,0.3,0.9,0.2,1.3,0.2c0.2,0,0.4,0,0.5,0.1c0,0,0,0,0,0c0,0,0,0,0.1,0.1c0,0,0,0,0,0
				c0,0,0,0,0,0.1c0,0,0,0.1,0,0c0,0,0,0,0,0.1c0,0,0,0,0,0.1c0-0.1,0,0,0,0c0,0.2,0.1,0.3,0.3,0.3c0.2,0,0.3-0.1,0.3-0.3
				c0-0.3-0.1-0.5-0.3-0.7c-0.2-0.2-0.5-0.3-0.7-0.3c-0.2,0-0.5,0-0.7,0c-0.2,0-0.4,0-0.6-0.1c-0.1-0.1-0.4,0-0.4,0.1
				C35.4,27.3,35.5,27.5,35.6,27.6L35.6,27.6z"/>
		</g>
	</g>
	<g>
		<g>
			<path class="st2" d="M35.9,26.8c0.9,0,1.7-0.3,2.5-0.6c0.2-0.1,0.3-0.2,0.2-0.4c0-0.2-0.2-0.3-0.4-0.2c-0.7,0.3-1.5,0.5-2.3,0.6
				c-0.2,0-0.3,0.1-0.3,0.3C35.6,26.7,35.8,26.9,35.9,26.8L35.9,26.8z"/>
		</g>
	</g>
	<g>
		<g>
			<path class="st2" d="M36.9,24.9C36.8,24.9,36.8,24.8,36.9,24.9C36.8,24.9,36.8,24.9,36.9,24.9c0,0.1,0.1,0.1,0.1,0.2
				c0.1,0.1,0.2,0.2,0.3,0.3c0.2,0.2,0.4,0.4,0.6,0.6c0.3,0.4,0.6,0.8,1.1,0.9c0.2,0,0.3-0.1,0.4-0.2c0-0.2-0.1-0.3-0.2-0.4
				c0,0-0.1,0-0.1,0c0,0,0,0,0,0c0,0,0,0,0,0c-0.1,0-0.1-0.1-0.2-0.1c0,0,0,0-0.1-0.1c0,0-0.1-0.1-0.1-0.1c-0.2-0.2-0.3-0.4-0.5-0.6
				c-0.2-0.2-0.4-0.4-0.6-0.6c-0.2-0.2-0.5-0.5-0.9-0.4c-0.2,0.1-0.3,0.2-0.2,0.4C36.5,24.8,36.7,24.9,36.9,24.9L36.9,24.9z"/>
		</g>
	</g>
	<g>
		<g>
			<path class="st2" d="M37.1,23.2c0,0.1,0,0.3,0.1,0.4c0.1,0.1,0.1,0.2,0.2,0.2c0.2,0.1,0.3,0.2,0.5,0.3c0.2,0.1,0.3,0.1,0.5,0.1
				c0.1,0,0.2,0,0.2,0.1c0,0,0,0,0.1,0c0,0,0.1,0,0,0c0,0,0.1,0,0.1,0.1c0.1,0.1,0.4,0,0.4-0.1c0.1-0.2,0-0.3-0.1-0.4
				c-0.3-0.2-0.6-0.2-0.9-0.3c0,0-0.1,0-0.1,0c0,0,0,0-0.1,0c0,0,0,0,0,0c-0.1,0-0.1-0.1-0.2-0.1c-0.1,0-0.1-0.1-0.2-0.1
				c0,0,0,0,0,0c0,0,0,0,0,0c0,0,0,0,0,0c0,0,0,0,0,0c0,0,0,0,0,0.1c0-0.2,0-0.3-0.2-0.4C37.3,22.9,37.1,23,37.1,23.2L37.1,23.2z"/>
		</g>
	</g>
	<g>
		<g>
			<path class="st2" d="M38,22.6C38,22.6,38,22.6,38,22.6C38.1,22.5,38.1,22.5,38,22.6c0.1-0.1,0.1-0.1,0.1-0.1c0,0,0.1-0.1,0.1-0.1
				c0,0,0,0,0,0c0,0,0,0,0,0c0.1,0,0.1-0.1,0.2-0.1c0,0,0.1,0,0.1,0c0,0,0.1,0,0,0c0,0,0,0,0,0c0.1,0,0.1,0,0.2-0.1c0,0,0.1,0,0.1,0
				c0,0,0.1,0,0,0c0,0,0,0,0,0c0.1,0,0.1,0,0.2,0c0,0,0.1,0,0.1,0c0,0-0.1,0,0,0c0,0,0,0,0.1,0c0.2,0,0.3,0,0.4-0.2
				c0-0.2,0-0.3-0.2-0.4c-0.8-0.2-1.6,0.2-2,0.8c-0.1,0.1,0,0.4,0.1,0.4C37.8,22.8,37.9,22.7,38,22.6L38,22.6z"/>
		</g>
	</g>
	<g>
		<g>
			<path class="st2" d="M38,21.2C38,21.2,38,21.2,38,21.2C38.1,21.2,38.1,21.2,38,21.2c0.1,0.1,0.2,0.1,0.2,0.1
				c0.1,0.1,0.1,0.1,0.2,0.2c0.1,0.1,0.2,0.3,0.4,0.4c0.3,0.3,0.6,0.6,0.9,0.7c0.2,0,0.3-0.1,0.4-0.2c0-0.2-0.1-0.3-0.2-0.4
				c0,0,0,0-0.1,0c0,0,0,0,0,0c0,0-0.1,0-0.1-0.1c0,0-0.1,0-0.1-0.1c0,0,0,0,0,0c0,0,0,0-0.1,0c-0.1-0.1-0.2-0.3-0.4-0.4
				c-0.2-0.3-0.5-0.6-0.8-0.8c-0.1-0.1-0.4,0-0.4,0.1C37.8,20.9,37.9,21.1,38,21.2L38,21.2z"/>
		</g>
	</g>
	<g>
		<g>
			<path class="st2" d="M18.3,20.6c-0.2,0-0.4,0-0.6,0.1c-0.2,0.1-0.4,0.1-0.6,0.2c-0.3,0.2-0.7,0.5-0.7,0.8c0,0.2,0,0.3,0.2,0.4
				c0.2,0,0.4,0,0.4-0.2c0,0,0-0.1,0-0.1c0-0.1,0,0,0,0c0,0,0,0,0,0c0,0,0-0.1,0.1-0.1c0,0,0,0.1,0,0c0,0,0,0,0,0c0,0,0,0,0.1-0.1
				c0,0,0,0,0,0c0,0,0,0,0.1,0c0.1,0,0.1-0.1,0.2-0.1c0,0,0,0,0,0c0,0,0,0,0.1,0c0,0,0.1,0,0.1,0c0.1,0,0.2-0.1,0.2-0.1
				c0.1,0,0.2-0.1,0.2-0.1c0,0,0,0,0.1,0c0,0,0,0,0,0c0,0,0,0,0,0c0,0,0.1,0,0.1,0c0.2,0,0.3-0.1,0.3-0.3
				C18.6,20.7,18.4,20.6,18.3,20.6L18.3,20.6z"/>
		</g>
	</g>
	<g>
		<g>
			<path class="st2" d="M25.5,26.7c-0.1,0.2-0.3,0.4-0.4,0.6c0,0,0,0,0-0.1c-0.1,0.1-0.2,0.2-0.2,0.3c-0.1,0.1-0.1,0.1-0.1,0.2
				c0,0.1,0,0.2,0.1,0.2c0.1,0.1,0.3,0.1,0.4,0c0.3-0.3,0.5-0.6,0.7-1c0.1-0.1,0-0.4-0.1-0.4C25.7,26.5,25.6,26.6,25.5,26.7
				L25.5,26.7z"/>
		</g>
	</g>
	<g>
		<g>
			<path class="st2" d="M26.2,27.3C26.2,27.3,26.2,27.3,26.2,27.3C26.2,27.3,26.2,27.3,26.2,27.3C26.2,27.3,26.2,27.3,26.2,27.3
				C26.2,27.3,26.1,27.3,26.2,27.3C26.1,27.3,26.1,27.3,26.2,27.3C26.1,27.3,26.1,27.3,26.2,27.3C26.1,27.3,26.1,27.3,26.2,27.3
				C26.1,27.3,26.1,27.3,26.2,27.3C26.1,27.3,26.1,27.3,26.2,27.3C26.1,27.3,26.1,27.2,26.2,27.3C26.1,27.2,26.1,27.3,26.2,27.3
				C26.1,27.3,26.1,27.2,26.2,27.3C26.1,27.3,26.1,27.3,26.2,27.3C26.1,27.3,26.1,27.3,26.2,27.3c-0.1,0-0.1,0.1-0.1,0.1
				c0,0.1,0,0.2,0,0.2c0,0.1,0.1,0.1,0.2,0.1c0.1,0,0.2,0,0.2,0c0.1,0,0.1-0.1,0.1-0.2c0-0.1,0-0.2,0-0.3c0-0.1,0-0.1,0-0.2
				c0-0.1,0-0.1-0.1-0.2c0-0.1-0.1-0.2-0.2-0.2c-0.1-0.1-0.2-0.1-0.3-0.1c-0.1,0-0.2,0-0.2,0.1c-0.1,0.1-0.1,0.1-0.1,0.2
				c0,0.1,0,0.2,0.1,0.2C26,27.3,26.1,27.3,26.2,27.3L26.2,27.3z"/>
		</g>
	</g>
	<g>
		<g>
			<path class="st2" d="M27,26.8c0,0,0,0.1,0.1,0.1C27.1,26.9,27.1,26.9,27,26.8c0.1,0.2,0.2,0.4,0.2,0.6c0,0,0-0.1,0-0.1
				c0,0,0,0.1,0,0.1c0,0.1,0,0.2,0.1,0.2c0.1,0.1,0.1,0.1,0.2,0.1c0.1,0,0.2,0,0.2-0.1c0.1-0.1,0.1-0.1,0.1-0.2c0-0.3-0.1-0.7-0.3-1
				c-0.1-0.1-0.3-0.2-0.4-0.1C27,26.5,27,26.7,27,26.8L27,26.8z"/>
		</g>
	</g>
	<g>
		<g>
			<path class="st2" d="M28.1,26.6c0.1,0.2,0.2,0.5,0.3,0.8c0,0.1,0.1,0.1,0.1,0.2c0.1,0,0.2,0.1,0.2,0c0.2-0.1,0.3-0.2,0.2-0.4
				c-0.1-0.3-0.2-0.5-0.3-0.8c0,0,0-0.1-0.1-0.1c0,0-0.1-0.1-0.1-0.1c-0.1,0-0.2-0.1-0.2,0c-0.1,0-0.1,0.1-0.2,0.1
				C28.1,26.4,28.1,26.5,28.1,26.6L28.1,26.6z"/>
		</g>
	</g>
	<g>
		<g>
			<path class="st2" d="M29.3,26.6c0.3,0.2,0.6,0.4,0.9,0.5c0.1,0,0.2,0.1,0.2,0c0.1,0,0.2-0.1,0.2-0.1c0-0.1,0.1-0.2,0-0.2
				c0-0.1-0.1-0.2-0.1-0.2c-0.3-0.1-0.6-0.3-0.9-0.5c-0.1,0-0.2-0.1-0.2,0c-0.1,0-0.2,0.1-0.2,0.1c0,0.1-0.1,0.2,0,0.2
				C29.1,26.5,29.2,26.6,29.3,26.6L29.3,26.6z"/>
		</g>
	</g>
	<g>
		<g>
			<path class="st2" d="M30.8,26.3c0.4,0.3,0.9,0.5,1.4,0.6c0.2,0,0.3,0,0.4-0.2c0-0.2,0-0.4-0.2-0.4c-0.2,0-0.5-0.1-0.7-0.2
				c0,0,0,0,0,0c0,0,0,0,0,0c0,0-0.1,0-0.1,0c-0.1,0-0.1-0.1-0.2-0.1c-0.1-0.1-0.2-0.1-0.3-0.2c-0.1-0.1-0.4,0-0.4,0.1
				C30.6,26,30.7,26.2,30.8,26.3L30.8,26.3z"/>
		</g>
	</g>
	<g>
		<g>
			<path class="st2" d="M24.8,26.5c-0.1,0.1-0.2,0.2-0.3,0.2c0,0,0,0,0.1,0c-0.1,0.1-0.3,0.2-0.4,0.3C24.1,27,24,27,24,27.1
				c0,0.1,0,0.2,0,0.2c0.1,0.1,0.3,0.2,0.4,0.1c0.3-0.2,0.5-0.4,0.8-0.6c0.1-0.1,0.1-0.1,0.1-0.2c0-0.1,0-0.2-0.1-0.2
				C25.1,26.3,24.9,26.3,24.8,26.5L24.8,26.5z"/>
		</g>
	</g>
</g>
</svg>
