<?xml version="1.0" encoding="utf-8"?>
<!-- Generator: Adobe Illustrator 25.2.2, SVG Export Plug-In . SVG Version: 6.00 Build 0)  -->
<svg version="1.1" id="Layer_1" xmlns="http://www.w3.org/2000/svg" xmlns:xlink="http://www.w3.org/1999/xlink" x="0px" y="0px"
	 viewBox="0 0 56.7 50.6" style="enable-background:new 0 0 56.7 50.6;" xml:space="preserve">
<style type="text/css">
	.st0{fill:#E7C39E;}
	.st1{fill:#1D1D1B;}
	.st2{fill:#C61617;}
	.st3{fill:#181F35;}
	.st4{fill:#E7C39E;stroke:#1D1D1B;stroke-width:0.5256;stroke-miterlimit:10;}
	.st5{fill:#FFFFFF;stroke:#1D1D1B;stroke-width:0.5256;stroke-miterlimit:10;}
	.st6{fill:#1D1D1B;stroke:#1D1D1B;stroke-width:0.1238;stroke-miterlimit:10;}
	.st7{fill:#FFFFFF;}
	.st8{fill:#E6BD90;}
	.st9{fill:#E0D8B7;}
</style>
<g>
	<path class="st0" d="M22,29.7c-0.5,1.9-0.9,3.7-1.4,5.6c-0.1,0.5,0.6,1.4,0.8,1.9c0.1,0.3,0.4,0.6,0.7,0.8c0.7,0.4,1.6,0.6,2.5,0.7
		c2.8,0.3,5.5,0.2,8.3-0.2c1.1-0.2,2.3-0.4,3.4-0.7c0.3-0.1,0.7-0.1,0.9-0.4c0.3-0.3,0.4-0.8,0.4-1.2c-0.1-1-0.5-1.9-0.8-2.9
		c-0.2-0.9-0.3-1.8-0.5-2.8c-0.2-0.7-0.4-1.5-0.7-2.1c-0.2-0.4-0.4-0.8-0.8-1.1c-0.4-0.2-0.8-0.3-1.2-0.4c-1.7-0.3-3.5-0.5-5.2-0.5
		c-0.7,0-1.4,0-2,0.2c-0.5,0.1-0.9,0.4-1.4,0.4c-0.6,0-1.3-0.2-1.8,0.1c-0.5,0.4-0.9,1.2-0.8,1.9L22,29.7z"/>
	<g>
		<path class="st1" d="M21.7,29.6c-0.3,1-0.5,2.1-0.8,3.1c-0.2,0.8-0.6,1.8-0.6,2.7c0,0.5,0.4,1,0.6,1.5c0.3,0.6,0.6,1.1,1.2,1.4
			c1.5,0.8,3.7,0.8,5.4,0.8c2,0,4.1-0.1,6.1-0.5c0.9-0.2,1.8-0.3,2.8-0.6c0.6-0.2,1.2-0.4,1.4-1.1c0.2-0.7,0.1-1.4-0.1-2.1
			c-0.3-1-0.6-1.9-0.8-2.9c-0.2-1.6-0.5-3.9-1.9-4.9c-0.6-0.4-1.3-0.5-2-0.6c-1.1-0.2-2.1-0.3-3.2-0.4c-1-0.1-2.1-0.1-3.1,0.1
			c-0.5,0.1-1,0.4-1.5,0.5c-0.5,0.1-1.1-0.1-1.6,0C22,26.8,22.1,28.5,21.7,29.6c-0.1,0.4,0.5,0.6,0.6,0.2c0.4-1.1,0.2-2.5,1.7-2.5
			c0.6,0,1.1,0,1.7-0.2c0.8-0.3,1.6-0.4,2.5-0.4c1.7,0,3.5,0.2,5.1,0.5c0.9,0.2,1.4,0.5,1.8,1.4c0.4,0.7,0.6,1.5,0.8,2.4
			c0.1,0.7,0.2,1.4,0.4,2.2c0.2,0.8,0.5,1.5,0.7,2.3c0.2,1,0.2,1.8-0.9,2.1c-0.8,0.2-1.6,0.4-2.4,0.5c-3.2,0.6-6.7,0.8-9.9,0.2
			c-0.9-0.2-1.7-0.4-2.2-1.2c-0.3-0.6-0.8-1.2-0.6-1.9c0.3-1.8,0.9-3.5,1.3-5.3C22.4,29.3,21.8,29.2,21.7,29.6z"/>
	</g>
</g>
<g>
	<path class="st2" d="M58.3,52.9c-0.6-1.3-1.6-6-2.2-7.6c-0.3-0.7-2-5.1-2.2-5.7c-1.3-3.2-2.3-4.1-5.2-5.1c-1-0.3-2.7-0.2-4.4-0.6
		c0,0-3.9,0.2-4.2,0.2c-0.3,0.1-1.8-0.9-2.1-0.7c-1.9,1.3-1.4,1-2.8,1.9c-0.4,0.3-3.1,0.8-3.7,1c-0.4,0.1-6.8,0-7.9-0.6
		c-1.3-0.6-3.8-2.4-4.1-2.3c-0.6,0.2-0.7,0.9-1.7,1c-4.3,0.5-7.1,1-9.9,2.8c-3,1.9-4.4,4.9-5.4,8.4c-0.5,1.7-2.2,6.5-2.5,8.2
		c-0.3,2.3-2,6.4-2.3,8.6c-0.3,3.1-0.2,3.5-1,8.6c-0.4,2.5,8.6,1.4,9.1,0.4c0.2-0.3,2.8-5.9,2.9-6.3c0.4-1.9,1.2-3.6,1.7-4.6
		c0.5-1.1,2-3.9,2.4-4.6l0.9,8.5c0.1,3.1,0.5,5,0.4,8l0.4,5.9c0,4.3-0.6,3.5-0.6,7.8c0,1-1.1,4.2-0.6,5.1c0.8,1.5,4,0.9,6.1,0.7
		c6-0.6,4.7-0.5,10.7-0.6c2.5,0,9.8-0.1,12.2,0.6c0.6,0.2,4,0.3,4.4,0.2c1.4-0.5,0.6-2.4,0.4-4c-0.5-6-1.5-9.5-1.5-15.4
		c0-2.1,0.6-8.1,0.6-9.9V56c0.5,1.6,0.4,2.5,2.2,5.5c0.5,0.9,2.6,4,3,4.7c0.6,0.9,1.6,5.8,2.4,5.3c0.8-0.6,7.8-3.2,8.3-3.3
		c0.4-0.1-1.6-5.4-1.6-6.2C60.7,61.6,58.5,53.2,58.3,52.9z"/>
	<g>
		<path class="st1" d="M58.6,52.7c-1-2.2-1.2-4.7-2-7c-0.7-1.9-1.4-3.7-2.1-5.5c-0.7-1.8-1.5-3.7-3.2-4.8c-2.1-1.4-4.8-1.7-7.2-1.7
			c-0.9,0-1.8,0.1-2.7,0.1c-0.9,0.1-1.4,0.1-2.3-0.3c-1-0.5-1.2-0.3-2.2,0.3c-0.7,0.5-1.4,1.1-2.2,1.4c-1.6,0.6-3.2,0.9-4.9,0.8
			c-1.9,0-4.3,0.1-6.1-0.6c-1.2-0.5-2.2-1.3-3.3-1.9c-0.6-0.3-0.9-0.5-1.6,0c-0.3,0.2-0.5,0.5-0.8,0.6c-0.5,0.2-1.2,0.2-1.7,0.2
			c-0.7,0.1-1.5,0.2-2.2,0.3c-1.4,0.2-2.7,0.6-4,1.1C7.5,36.8,5.4,38.6,4,41c-1.3,2.3-1.9,4.8-2.7,7.3c-0.8,2.3-1.3,4.6-1.9,6.9
			c-0.7,2.7-1.9,5.2-2.1,8c-0.2,2.2-0.4,4.4-0.7,6.5c-0.1,0.7-0.4,1.6,0.1,2.3c0.4,0.5,1.1,0.7,1.7,0.8c1.8,0.4,3.8,0.2,5.6-0.1
			c1.2-0.2,2.1-0.4,2.6-1.5c0.8-1.7,1.7-3.5,2.4-5.2c0.4-0.9,0.5-1.9,0.9-2.9c0.5-1.3,1.2-2.6,1.8-3.9c0.5-1,1-2,1.6-3
			c-0.2-0.1-0.4-0.1-0.6-0.2c0.3,2.5,0.5,5.1,0.8,7.6c0.3,3.5,0.4,7,0.6,10.5c0.1,1.4,0.2,2.8,0.3,4.2c0.1,1.7-0.2,3.3-0.4,5
			c-0.1,1-0.1,2.1-0.2,3.1c-0.1,1-0.4,2-0.5,2.9c-0.2,1.3-0.4,2.6,1.1,3.2c2,0.8,4.6,0,6.7-0.2c1.7-0.2,3.3-0.4,5-0.4
			c4.1-0.1,8.2-0.2,12.3,0c1.6,0.1,3.1,0.4,4.7,0.6c0.8,0.1,1.7,0.1,2.6,0.2c0.6,0,1.3,0.1,1.9-0.2c0.6-0.4,0.7-1,0.7-1.6
			c0-1.2-0.3-2.5-0.5-3.7c-0.3-2.8-0.7-5.5-1-8.3c-0.5-5,0-9.9,0.2-14.9c0.1-2.6,0-5.2,0-7.8c-0.2,0-0.5,0.1-0.7,0.1
			c0.5,1.9,1.1,3.6,2.1,5.3c0.9,1.6,2,3.1,3,4.7c0.8,1.3,1,2.9,1.6,4.4c0.4,0.9,0.7,1.6,1.6,1.1c1.5-0.7,3-1.3,4.6-1.9
			c0.8-0.3,1.5-0.6,2.3-0.9c0.3-0.1,1-0.2,1.2-0.4c0.6-0.6-0.4-2.5-0.6-3.2c-0.4-1.2-0.7-2.4-1-3.6c-0.3-1.6-0.8-3.2-1.2-4.8
			C59.4,55.5,59.2,54,58.6,52.7c-0.1-0.3-0.8-0.1-0.6,0.3c0.9,2.3,1.4,5,2,7.4c0.6,2.3,1.3,4.5,1.9,6.8c0.1,0.2,0.1,0.5,0.2,0.7
			c0,0,0.3-0.1-0.1,0c-0.6,0.1-1.1,0.4-1.7,0.6c-1.5,0.6-3.1,1.2-4.6,1.8c-0.5,0.2-1,0.5-1.5,0.7C54,71,54,71.1,53.9,71.1
			c-0.3-0.1-0.5-0.9-0.5-1.1c-0.5-1.3-0.7-2.7-1.4-3.9c-0.8-1.5-1.9-3-2.8-4.4c-1.1-1.8-1.8-3.6-2.4-5.7c-0.1-0.4-0.7-0.3-0.7,0.1
			c0,2.3,0,4.5,0,6.8c0,3.3-0.5,6.5-0.5,9.8c-0.1,5.3,0.8,10.7,1.5,15.9c0.1,0.8,0.7,2.4,0.1,3.1c-0.5,0.5-2,0.2-2.6,0.2
			c-1.4-0.1-2.8-0.4-4.2-0.6c-7.5-0.8-15.1-0.2-22.6,0.6c-1,0.1-2.1,0.2-3-0.1c-1.3-0.4-1-1.7-0.8-2.7c0.2-0.8,0.4-1.6,0.5-2.4
			c0.1-1,0-2,0.1-3c0.2-1.7,0.6-3.4,0.5-5.2c0-1.1-0.2-2.2-0.2-3.3c-0.3-3.7-0.3-7.4-0.6-11.2c-0.3-2.6-0.5-5.3-0.8-7.9
			c0-0.3-0.5-0.5-0.6-0.2c-1.1,2-2.2,4-3.1,6.1c-0.5,1.1-0.7,2.2-1.1,3.4c-0.3,0.8-0.7,1.6-1,2.3c-0.4,0.8-0.8,1.7-1.2,2.5
			c-0.2,0.4-0.4,1.1-0.7,1.4c-0.4,0.4-1.3,0.5-1.8,0.6c-1,0.2-2,0.3-3.1,0.3c-0.8,0-1.7,0-2.5-0.2c-1.3-0.3-1.1-1-1-2.2
			c0.3-2,0.5-3.9,0.7-5.9c0.2-2.7,1.1-5.1,1.9-7.7c0.6-2.1,1-4.2,1.6-6.2c0.7-2.3,1.4-4.7,2.3-6.9c1.1-2.9,3.1-5.1,5.9-6.5
			c1.3-0.6,2.7-1,4-1.3c0.6-0.1,1.2-0.2,1.8-0.3c0.9-0.1,2-0.1,2.8-0.4c0.4-0.1,0.6-0.4,1-0.7c0.5-0.3,0.5-0.2,1,0.1
			c1.1,0.6,2.1,1.4,3.2,1.9c1.4,0.7,3.4,0.6,4.9,0.6c1.5,0.1,2.9,0.1,4.3-0.2c0.9-0.2,1.8-0.3,2.6-0.7c0.6-0.3,1.2-0.8,1.8-1.2
			c0.6-0.4,0.9-0.8,1.6-0.5c0.4,0.2,0.7,0.4,1.1,0.5c0.6,0.1,1.2,0,1.8-0.1c0.9,0,1.8-0.2,2.7-0.1c1.5,0.1,3.3,0.2,4.7,0.7
			c1.2,0.4,2.3,1,3.2,2c0.8,1,1.3,2.2,1.7,3.4c0.7,1.9,1.5,3.7,2.2,5.6c0.8,2.3,1.1,4.8,2.1,7.1C58.2,53.4,58.8,53.1,58.6,52.7z"/>
	</g>
</g>
<g>
	<path class="st3" d="M46.4,56c0-0.6-0.4-2.1-0.5-2.7c-0.6-4-0.3-2-1.1-4.4"/>
	<g>
		<path class="st1" d="M46.8,56c0-0.9-0.3-1.7-0.4-2.6c-0.1-0.8-0.2-1.7-0.4-2.5c-0.1-0.8-0.5-1.4-0.7-2.2c-0.1-0.4-0.8-0.2-0.7,0.2
			c0.2,0.5,0.3,1,0.5,1.4c0,0,0,0.1,0,0.1c0-0.1,0,0,0,0c0,0,0,0.1,0.1,0.1c0,0.1,0.1,0.3,0.1,0.5c0.1,0.8,0.2,1.6,0.4,2.4
			c0.1,0.8,0.4,1.7,0.4,2.5C46.1,56.5,46.8,56.5,46.8,56L46.8,56z"/>
	</g>
</g>
<g>
	<path class="st3" d="M14.2,48.9c-0.6,1.1-1.4,5.7-1.2,7.2"/>
	<g>
		<path class="st1" d="M13.9,48.7c-0.2,0.4-0.4,0.9-0.5,1.4c-0.2,0.7-0.3,1.4-0.4,2.1c-0.2,1.2-0.5,2.6-0.3,3.8c0,0.4,0.7,0.4,0.7,0
			c-0.1-1.2,0.1-2.4,0.3-3.6c0.1-0.7,0.3-1.4,0.4-2c0.1-0.4,0.2-0.9,0.5-1.3C14.7,48.7,14.1,48.3,13.9,48.7L13.9,48.7z"/>
	</g>
</g>
<g>
	<path class="st4" d="M33.2,4.1c-0.3-0.2-0.7-0.3-1.1-0.4c-2.2-0.3-3.9-0.4-5.8-0.4c-2.1,0-4.3,0.6-5.8,2.1c-0.8,0.9-1.3,2-1.7,3.1
		c-1.6,4.4-1.1,5.3-1.3,10c0,0.9,0.3,5,0.5,5.8c0.3,1.7,0.5,2.8,1.3,3.8c1.1,1.5,2.9,2.6,4.5,3.7c3.5,2.4,7.2,1.7,10.9-1.1
		c3-2.3,2.8-2.3,3.9-5.4c0.6-1.8,0.8-5.8,0.6-7.4C38.2,9.7,38,7.5,34.3,4.7c-0.1-0.1-0.3-0.2-0.4-0.3L33.2,4.1z"/>
	<path class="st5" d="M32.5,16.8c-0.3,0.2-0.5,0.4-0.7,0.6c-0.1,0.1-0.2,0.3-0.2,0.5c-0.1,0.3-0.2,0.6-0.2,0.9
		c0,0.7,0.1,1.4,0.4,1.7c0.6,0.6,1.6,0.6,2.4,0.6c0.3,0,0.5,0,0.8-0.1c0.5-0.2,0.7-0.8,0.7-1.4c0-0.4,0.1-0.7-0.1-1
		c-0.1-0.2-0.2-0.4-0.3-0.6c-0.2-0.3-0.4-0.6-0.7-0.9c-0.7-0.5-0.8-0.6-1.7-0.5L32.5,16.8z"/>
	<path class="st5" d="M23.8,17.1c-0.1-0.1-0.2-0.1-0.3-0.1c-0.4-0.1-0.7-0.2-1.1-0.2c-0.3,0-0.6,0.2-0.9,0.3c-0.6,0.3-0.9,1-1,1.6
		c-0.1,0.7,0,1.6,0.6,2c0.3,0.2,0.7,0.3,1.1,0.3c0.7,0.1,1,0.1,1.6,0.1c0.2,0,0.5-0.2,0.7-0.4c0.1-0.1,0.4-0.5,0.5-0.6
		c0.4-1.4,0.4-2.1-0.8-2.8L23.8,17.1z"/>
	<circle class="st6" cx="22.8" cy="19" r="0.9"/>
	<circle class="st6" cx="33.6" cy="19" r="0.9"/>
	<g>
		<path class="st7" d="M23.4,18.3"/>
		<g>
			<path class="st7" d="M23.4,18.6c0.4,0,0.4-0.6,0-0.6C23,18,23,18.6,23.4,18.6L23.4,18.6z"/>
		</g>
	</g>
	<g>
		<path class="st7" d="M34.2,18.2"/>
		<g>
			<path class="st7" d="M34.2,18.6c0.4,0,0.4-0.6,0-0.6C33.8,17.9,33.8,18.6,34.2,18.6L34.2,18.6z"/>
		</g>
	</g>
	<g>
		<path class="st8" d="M25.5,29.2c0.3,0.1,0.7,0.1,1,0.1c0.3,0,0.5,0,0.8-0.1c0.8-0.1,1.6-0.3,2.4-0.5c0.7-0.2,1.5-0.5,2-0.9"/>
		<g>
			<path class="st1" d="M25.5,29.5c1.1,0.3,2.3,0,3.4-0.3c1.1-0.3,2.2-0.5,3-1.2c0.3-0.3-0.1-0.7-0.5-0.5c-0.8,0.6-1.8,0.9-2.7,1.1
				c-1,0.2-2.1,0.5-3.1,0.3C25.2,28.8,25,29.4,25.5,29.5L25.5,29.5z"/>
		</g>
	</g>
	<g>
		<path class="st0" d="M29,20.4c-0.5,0.2-1,0.3-1.4,0.5c-0.5,0.2-0.9,0.5-1.1,1c-0.1,0.2-0.1,0.4-0.2,0.6c-0.1,0.9,0,1.8,0.5,2.6
			c0,0.1,0.1,0.2,0.2,0.2c0.1,0.1,0.2,0.1,0.3,0.1c0.7,0.2,1.5,0,2.2-0.2"/>
		<g>
			<path class="st1" d="M28.9,20.1c-0.8,0.3-1.6,0.5-2.3,1c-0.6,0.6-0.7,1.5-0.7,2.3c0,0.4,0.1,0.8,0.3,1.2c0.1,0.3,0.3,0.8,0.6,1
				c0.4,0.2,0.9,0.2,1.3,0.2c0.5,0,0.9-0.1,1.4-0.3c0.4-0.1,0.2-0.7-0.2-0.6c-0.4,0.1-0.7,0.2-1.1,0.2c-0.3,0-0.8,0.1-1-0.1
				C27.1,25,27,24.8,27,24.7c-0.1-0.1-0.1-0.3-0.2-0.5c-0.1-0.3-0.2-0.6-0.2-1c0-0.6,0.1-1.3,0.6-1.7c0.5-0.4,1.3-0.5,1.9-0.8
				C29.5,20.6,29.3,19.9,28.9,20.1L28.9,20.1z"/>
		</g>
	</g>
	<g>
		<path class="st8" d="M31.3,27.1c0.3,0,0.5,0.2,0.7,0.5c0.2,0.2,0.2,0.5,0.3,0.8"/>
		<g>
			<path class="st1" d="M31.3,27.4c0.1,0,0.1,0,0.2,0c0,0-0.1,0,0,0c0,0,0,0,0,0c0,0,0.1,0,0.1,0.1c0,0,0.1,0,0,0c0,0,0,0,0,0
				c0,0,0,0,0.1,0.1c0,0,0,0,0.1,0.1c0,0,0,0.1,0,0c0,0,0,0,0,0c0,0.1,0.1,0.1,0.1,0.2c0,0,0,0.1,0,0.1c0,0,0,0.1,0,0c0,0,0,0,0,0
				c0.1,0.1,0.1,0.3,0.1,0.4c0,0.2,0.2,0.3,0.4,0.2c0.2-0.1,0.3-0.2,0.2-0.4c-0.1-0.3-0.2-0.7-0.4-0.9c-0.2-0.3-0.5-0.5-0.8-0.6
				c-0.1,0-0.2,0-0.3,0c-0.1,0-0.1,0.1-0.2,0.2c0,0.1,0,0.2,0,0.3C31.1,27.3,31.2,27.4,31.3,27.4L31.3,27.4z"/>
		</g>
	</g>
	<g>
		<path class="st9" d="M28.6,2.7c-1.5-0.1-3.5,0.4-4.8,0.9c-2.3,0.8-3.9,1.5-4.9,3.7c-0.3,0.7-0.7,2.2-0.9,3.2
			c-0.1,0.5-0.4,4.4-0.4,4.9c-0.1,2.1-0.2,4.6,0.1,6.2c0,0,0.6-2.5,1.8-5c0.1-0.2,0.7-3,0.8-3.2c0.6-0.7,1.5-1.4,2.6-1.7
			c2.1-0.6,2.5,0.1,5.4,1.3c1.6-0.6,1.6-1.3,2.7-1.6c1.1-0.3,2.8-0.4,3.8,0c1,0.4,1.4,0.5,2,2c0.8,1.8,0.2,1.8,0.6,3.7
			c0,0.2,0.9,2,1.1,2.1c0.1,0,0.6,2.4,0.7,2.4c0,0,0.1-3.2,0.1-4.1c0-4.7,0.5-4.4-0.6-7.9c-0.3-1.2-1.2-3-2-3.9
			C34.6,3.6,31.3,2.9,28.6,2.7z"/>
		<g>
			<path class="st1" d="M28.6,2.5c-2.4-0.1-5.1,0.7-7.3,1.8c-2.1,1.1-3,3.1-3.4,5.3c-0.4,1.6-0.4,3.4-0.5,5c-0.2,2.4-0.4,4.8,0,7.2
				c0,0.3,0.4,0.2,0.5,0c0.5-2.2,1.6-4.1,2.1-6.3c0.1-0.5,0.2-0.9,0.3-1.4c0.2-0.7,0.9-1.2,1.6-1.6c1.4-0.8,2.7-0.6,4.1,0
				c0.6,0.3,1.2,0.7,1.9,0.8c0.6,0.1,1.1-0.2,1.5-0.6c0.5-0.3,0.9-0.7,1.5-0.9c0.8-0.2,1.7-0.3,2.5-0.2c1.8,0.2,2.7,1,3.2,2.7
				c0.3,1.1,0.1,2.2,0.4,3.2c0.3,0.8,0.8,1.4,1.1,2.2c0.3,0.6,0.2,1.9,0.8,2.3c0.2,0.1,0.4,0,0.4-0.2c0-1.8,0-3.5,0.1-5.3
				c0-1.8,0.2-3.6-0.2-5.4c-0.5-2.3-1.5-4.8-3.4-6.3C33.8,3.1,31.1,2.6,28.6,2.5c-0.3,0-0.3,0.5,0,0.5C31.2,3.1,34,3.7,36,5.5
				c1.7,1.6,2.6,4.2,3,6.5c0.3,1.8,0,3.6,0,5.4c0,1.4,0,2.9-0.1,4.3c0.1-0.1,0.3-0.2,0.4-0.2c-0.1-0.1-0.3-1.1-0.3-1.3
				c-0.1-0.3-0.2-0.7-0.3-1c-0.5-1-1.1-1.8-1.2-3c-0.2-2.4-0.7-4.6-3.4-5.1c-1.2-0.2-2.9-0.1-3.9,0.5c-0.5,0.3-1,1-1.6,1.1
				c-0.8,0.2-1.9-0.7-2.7-1c-1.1-0.5-2.2-0.5-3.4-0.1c-1,0.3-2.2,1.1-2.5,2.1c-0.4,1.2-0.5,2.4-1,3.5c-0.6,1.4-1.1,2.8-1.5,4.3
				c0.2,0,0.3,0,0.5,0c-0.4-2.2-0.2-4.5,0-6.7c0.1-1.4,0.2-2.9,0.4-4.3c0.3-2.3,1.1-4.7,3.2-5.8c2.1-1.1,4.7-1.9,7.1-1.8
				C28.9,3,28.9,2.5,28.6,2.5z"/>
		</g>
	</g>
</g>
<g>
	<g>
		<path class="st1" d="M17.6,34.7c2.5,3.8,7.6,4.4,11.7,4.6c2.3,0.1,4.6-0.7,6.7-1.4c2-0.6,3.3-1.7,4.4-3.4c0.2-0.4-0.4-0.7-0.6-0.3
			c-1.1,1.8-2.4,2.6-4.4,3.3c-2,0.6-4,1.3-6.1,1.2c-3.9-0.2-8.8-0.6-11.1-4.2C17.9,33.9,17.3,34.3,17.6,34.7L17.6,34.7z"/>
	</g>
</g>
<g>
	<g>
		<path class="st1" d="M19.8,34.7C19.8,34.7,19.8,34.7,19.8,34.7C19.8,34.6,19.8,34.6,19.8,34.7C19.8,34.6,19.8,34.6,19.8,34.7
			c0-0.1,0-0.1,0-0.2c0,0,0,0,0,0c0,0,0-0.1,0-0.1c0,0,0,0,0,0c0,0,0,0,0.1-0.1c0,0,0,0,0,0c0,0,0,0,0.1-0.1
			c-0.1,0.1-0.3,0.2-0.4,0.3c0,0-0.1,0.1-0.1,0.1c0,0-0.1,0.1-0.1,0.1c0,0,0,0.1,0,0.1c0,0,0,0.1,0,0.1c0,0.1,0.1,0.1,0.2,0.2
			c0.1,0,0.2,0,0.3,0c0.1-0.1,0.2-0.1,0.3-0.2c0.1,0,0.1-0.1,0.2-0.1c0,0,0,0,0,0c0,0,0.1-0.1,0.1-0.1c0,0,0-0.1,0-0.1
			c0,0,0,0,0-0.1c0-0.1,0-0.1,0-0.2c0,0,0-0.1-0.1-0.1c0,0-0.1-0.1-0.1-0.1c0,0-0.1,0-0.1,0c0,0-0.1,0-0.1,0c-0.1,0-0.2,0.1-0.2,0.2
			c0,0,0,0.1,0,0.1C19.8,34.5,19.8,34.6,19.8,34.7L19.8,34.7z"/>
	</g>
</g>
<g>
	<g>
		<path class="st1" d="M20.9,35.3C20.9,35.3,20.9,35.3,20.9,35.3C21,35.2,21,35.2,20.9,35.3C21,35.2,21,35.2,20.9,35.3
			c0-0.1,0-0.1,0-0.1C21,35.1,21,35.2,20.9,35.3c0-0.1,0.1-0.1,0.1-0.2C21,35.1,21,35.1,20.9,35.3c-0.1,0-0.1,0-0.1,0.1
			c0,0.1-0.1,0.1-0.1,0.2c0,0,0,0,0.1-0.1c0,0,0,0-0.1,0.1c0,0,0,0,0.1-0.1c0,0,0,0-0.1,0c0,0,0.1,0,0.1,0c0,0,0,0,0,0
			c0,0-0.1,0-0.1,0.1c0,0-0.1,0.1-0.1,0.1c0,0,0,0.1,0,0.1c0,0,0,0.1,0,0.1c0,0.1,0.1,0.2,0.2,0.2c0,0,0.1,0,0.1,0
			c0.1,0,0.1,0,0.2,0c0,0,0.1,0,0.1-0.1c0,0,0.1,0,0.1-0.1c0,0,0.1-0.1,0.1-0.1c0-0.1,0.1-0.1,0.1-0.2c0,0,0,0-0.1,0.1
			c0,0,0.1-0.1,0.1-0.1c0.1-0.1,0.2-0.2,0.2-0.4c0-0.1,0-0.2-0.1-0.2c-0.1-0.1-0.2-0.1-0.2-0.1c-0.1,0-0.2,0-0.2,0.1
			C21,35.1,20.9,35.2,20.9,35.3L20.9,35.3z"/>
	</g>
</g>
<g>
	<g>
		<path class="st1" d="M22.4,36c0,0.1-0.1,0.2-0.1,0.3c0,0,0-0.1,0-0.1c0,0.1-0.1,0.1-0.1,0.2c0,0.1-0.1,0.2,0,0.3
			c0,0.1,0.1,0.2,0.2,0.2c0.1,0,0.2,0.1,0.3,0c0.1,0,0.2-0.1,0.2-0.2c0.1-0.2,0.2-0.4,0.3-0.6c0-0.1,0-0.2,0-0.3
			c0-0.1-0.1-0.1-0.2-0.2c-0.1,0-0.2,0-0.3,0C22.5,35.9,22.5,35.9,22.4,36L22.4,36z"/>
	</g>
</g>
<g>
	<g>
		<path class="st1" d="M23.9,36.7c0,0.3,0,0.5,0,0.8c0,0.1,0,0.2,0.1,0.2c0.1,0.1,0.2,0.1,0.2,0.1c0.1,0,0.2,0,0.2-0.1
			c0.1-0.1,0.1-0.2,0.1-0.2c0-0.3,0-0.5,0-0.8c0-0.1,0-0.2-0.1-0.2c-0.1-0.1-0.2-0.1-0.2-0.1c-0.1,0-0.2,0-0.2,0.1
			C24,36.5,23.9,36.6,23.9,36.7L23.9,36.7z"/>
	</g>
</g>
<g>
	<g>
		<path class="st1" d="M25.8,37.4C25.8,37.4,25.8,37.4,25.8,37.4C25.8,37.4,25.7,37.4,25.8,37.4C25.7,37.4,25.7,37.4,25.8,37.4
			c-0.1,0-0.1,0-0.2,0c0,0,0,0,0,0c0,0-0.1,0-0.1,0c0,0,0,0,0,0c0,0,0,0-0.1-0.1c0,0,0,0,0,0c0,0,0,0-0.1-0.1c0,0,0,0,0,0
			c0,0,0-0.1,0-0.1c0,0,0,0,0,0c0,0,0-0.1,0-0.1c0,0.1,0,0.2,0,0.3c0,0.1,0,0.2,0,0.3c0,0.1,0,0.2,0.1,0.2c0.1,0.1,0.2,0.1,0.2,0.1
			c0.1,0,0.2,0,0.2-0.1c0.1-0.1,0.1-0.1,0.1-0.2c0-0.1,0-0.3,0-0.4c0-0.1,0-0.2,0-0.3c-0.1-0.2-0.3-0.3-0.5-0.3
			c-0.1,0-0.2,0.1-0.2,0.2c0,0.1-0.1,0.2,0,0.3c0,0.1,0.1,0.2,0.2,0.2C25.6,37.4,25.7,37.4,25.8,37.4L25.8,37.4z"/>
	</g>
</g>
<g>
	<g>
		<path class="st1" d="M26.9,37.6C26.9,37.6,26.9,37.6,26.9,37.6C26.9,37.6,26.8,37.5,26.9,37.6C26.8,37.5,26.9,37.6,26.9,37.6
			C26.9,37.6,26.8,37.5,26.9,37.6c0.1,0.1,0.1,0.4,0.2,0.6c0,0.1,0.1,0.2,0.2,0.2c0.1,0,0.2,0.1,0.3,0c0.1,0,0.2-0.1,0.2-0.2
			c0-0.1,0.1-0.2,0-0.3c0-0.1-0.1-0.3-0.1-0.4c0-0.1,0-0.1-0.1-0.2c0-0.1-0.1-0.2-0.2-0.3c0,0-0.1-0.1-0.1-0.1c0,0-0.1,0-0.1,0
			c-0.1,0-0.2,0-0.2,0.1c-0.1,0.1-0.1,0.2-0.1,0.2C26.8,37.4,26.8,37.5,26.9,37.6L26.9,37.6z"/>
	</g>
</g>
<g>
	<g>
		<path class="st1" d="M28.5,37.6c0.2,0.2,0.4,0.5,0.6,0.7c0.1,0.1,0.2,0.1,0.2,0.1c0.1,0,0.2,0,0.2-0.1c0.1-0.1,0.1-0.2,0.1-0.2
			c0,0,0-0.1,0-0.1c0-0.1,0-0.1-0.1-0.2c-0.2-0.2-0.4-0.5-0.6-0.7C28.9,37,28.8,37,28.7,37c-0.1,0-0.2,0-0.2,0.1
			c-0.1,0.1-0.1,0.2-0.1,0.2c0,0,0,0.1,0,0.1C28.4,37.5,28.4,37.5,28.5,37.6L28.5,37.6z"/>
	</g>
</g>
<g>
	<g>
		<path class="st1" d="M30.4,37.3c0.1,0.3,0.1,0.5,0.2,0.8c0,0.1,0.1,0.2,0.2,0.2c0.1,0,0.2,0.1,0.3,0c0.2-0.1,0.3-0.2,0.2-0.4
			c-0.1-0.3-0.1-0.5-0.2-0.8c0-0.1-0.1-0.2-0.2-0.2c-0.1,0-0.2-0.1-0.3,0C30.5,37,30.4,37.2,30.4,37.3L30.4,37.3z"/>
	</g>
</g>
<g>
	<g>
		<path class="st1" d="M31.8,37.5C31.8,37.5,31.8,37.6,31.8,37.5C31.8,37.5,31.8,37.5,31.8,37.5C31.8,37.5,31.8,37.5,31.8,37.5
			C31.8,37.5,31.8,37.5,31.8,37.5C31.8,37.5,31.8,37.6,31.8,37.5c0.1,0.2,0.2,0.2,0.2,0.3c0.1,0.1,0.2,0.2,0.3,0.3
			c0.1,0.1,0.1,0.1,0.2,0.1c0.1,0,0.2,0,0.2-0.1c0.1-0.1,0.1-0.2,0.1-0.2c0-0.1,0-0.2-0.1-0.2c-0.1-0.1-0.2-0.2-0.3-0.3
			c0,0,0,0,0.1,0.1c0,0-0.1-0.1-0.1-0.2c0,0-0.1-0.1-0.1-0.1c0,0-0.1-0.1-0.1-0.1c-0.1,0-0.2-0.1-0.3,0c-0.1,0-0.2,0.1-0.2,0.2
			c0,0.1-0.1,0.2,0,0.3c0,0,0,0.1,0,0.1C31.7,37.5,31.8,37.5,31.8,37.5L31.8,37.5z"/>
	</g>
</g>
<g>
	<g>
		<path class="st1" d="M33.6,37.2C33.6,37.2,33.7,37.2,33.6,37.2C33.6,37.2,33.6,37.2,33.6,37.2C33.6,37.2,33.6,37.2,33.6,37.2
			c-0.1,0-0.1,0-0.2,0c0,0,0,0,0,0c0,0-0.1,0-0.1,0c0,0,0,0,0,0c0,0,0,0-0.1-0.1c0,0,0.1,0.1,0.1,0.1c0,0,0.1,0.1,0.1,0.1
			c0.1,0.1,0.2,0.2,0.3,0.3c0.1,0.1,0.2,0.1,0.2,0.1c0.1,0,0.2,0,0.2-0.1c0.1-0.1,0.1-0.2,0.1-0.2c0-0.1,0-0.2-0.1-0.2
			c-0.1-0.1-0.2-0.2-0.3-0.3c-0.1-0.1-0.1-0.1-0.2-0.2c0,0-0.1-0.1-0.1-0.1c0,0-0.1,0-0.1,0c-0.1,0-0.1,0-0.2,0c0,0-0.1,0-0.1,0.1
			c0,0-0.1,0.1-0.1,0.1c0,0.1-0.1,0.2,0,0.3c0,0.1,0.1,0.2,0.2,0.2C33.5,37.2,33.6,37.2,33.6,37.2L33.6,37.2z"/>
	</g>
</g>
<g>
	<g>
		<path class="st1" d="M34.9,36.5c0.1,0.1,0.2,0.2,0.3,0.2c0.1,0.1,0.1,0.1,0.2,0.1c0,0,0.1,0,0.1,0c0,0,0.1,0,0.1,0
			c0,0,0.1,0,0.1-0.1c0,0,0.1-0.1,0.1-0.1c0-0.1,0.1-0.2,0-0.3c0-0.1-0.1-0.2-0.2-0.2c-0.1,0-0.2-0.1-0.2-0.2c0,0,0,0,0.1,0.1
			c-0.1,0-0.1-0.1-0.2-0.2c0,0-0.1-0.1-0.1-0.1c0,0-0.1,0-0.1,0c0,0-0.1,0-0.1,0c0,0-0.1,0-0.1,0.1c-0.1,0.1-0.1,0.2-0.1,0.2
			C34.8,36.4,34.9,36.4,34.9,36.5L34.9,36.5z"/>
	</g>
</g>
<g>
	<g>
		<path class="st1" d="M36.3,36C36.3,36,36.3,36,36.3,36C36.3,36,36.2,36,36.3,36C36.2,36,36.2,36,36.3,36C36.2,36,36.2,36,36.3,36
			c0.1,0,0.2,0.1,0.3,0.2c0.2,0.1,0.3,0.1,0.5,0.2c0.1,0,0.2,0,0.3,0c0.1,0,0.1-0.1,0.2-0.2c0-0.1,0-0.2,0-0.3
			c0-0.1-0.1-0.1-0.2-0.2c-0.1,0-0.2,0-0.3-0.1c0,0,0.1,0,0.1,0c-0.1,0-0.2-0.1-0.3-0.2c-0.1-0.1-0.3-0.2-0.5-0.2
			c-0.1,0-0.2,0-0.2,0.1c-0.1,0.1-0.1,0.2-0.1,0.2c0,0.1,0,0.2,0.1,0.2C36.1,36,36.2,36,36.3,36L36.3,36z"/>
	</g>
</g>
<g>
	<g>
		<path class="st1" d="M37.4,35.2c0.2,0.2,0.5,0.3,0.8,0.4c0.1,0,0.2,0,0.3,0c0.1,0,0.1-0.1,0.2-0.2c0-0.2-0.1-0.4-0.2-0.4
			c-0.1,0-0.1-0.1-0.2-0.1c0,0,0.1,0,0.1,0c-0.2-0.1-0.4-0.2-0.5-0.3c-0.1,0-0.2-0.1-0.3,0c-0.1,0-0.2,0.1-0.2,0.2
			c0,0.1-0.1,0.2,0,0.3c0,0,0,0.1,0,0.1C37.3,35.1,37.4,35.2,37.4,35.2L37.4,35.2z"/>
	</g>
</g>
</svg>
