<?xml version="1.0" encoding="UTF-8"?>
<svg xmlns="http://www.w3.org/2000/svg" viewBox="0 0 103.65 92.33">
  <g>
    <g>
      <g>
        <path d="M34.85,76.08c1.69-4.15,2.96-6.72,4.73-10.83,.26-.6,11.34-2.37,13.34-2.43,5.04-.14,10.21,.63,10.71,1.42,2.11,3.31,3.67,9.98,3.57,10.53-.08,.44-15.74,11.29-16.17,11.96-.36,.55-16.18-10.65-16.18-10.65Z" fill="#e6bd90"/>
        <path d="M35.52,76.26c1.02-2.51,2.14-4.97,3.24-7.44,.26-.58,.52-1.16,.77-1.74,.15-.34,.34-.69,.45-1.04,.07-.23,.41-.52,.04-.27,.27-.18,.76-.26,1.1-.34,2.97-.75,6.05-1.2,9.09-1.62,3.82-.52,7.93-.51,11.68,.43,.78,.19,1.13,.28,1.52,.98,.53,.95,.95,1.95,1.33,2.97,.66,1.78,1.21,3.61,1.61,5.46,.05,.25,.06,.56,.15,.79,.16,.43-.28,.17,.18-.11-.19,.11-.37,.33-.54,.46-.78,.62-1.59,1.19-2.39,1.78-2.46,1.79-4.94,3.55-7.41,5.33-1.81,1.3-3.73,2.54-5.43,4-.04,.04-.5,.39-.46,.45-.48-.83,.62-.2,.61-.3,0,.04-.11-.12-.03,0-.05-.08-.31-.15-.4-.2-.88-.46-1.72-1.02-2.55-1.56-4.37-2.82-8.64-5.82-12.89-8.82-.73-.51-1.41,.68-.7,1.19,4.14,2.93,8.29,5.84,12.54,8.6,1.11,.72,3.41,2.72,4.54,1.85,1.47-1.13,3.47-2.61,5.15-3.81,2.68-1.93,5.37-3.84,8.04-5.78,.84-.61,1.7-1.21,2.49-1.88,.57-.47,.67-.82,.56-1.57-.28-1.8-.83-3.58-1.41-5.29-.35-1.02-.73-2.02-1.18-3-.34-.74-.68-1.71-1.33-2.23-1.35-1.08-3.89-1.08-5.51-1.24-2.18-.21-4.43-.32-6.61-.09-3.65,.4-7.37,.96-10.94,1.84-.46,.11-1.05,.21-1.46,.47-.77,.48-1.05,1.85-1.39,2.63-1.29,2.9-2.6,5.79-3.81,8.73-.34,.82,1,1.18,1.33,.37Z" fill="#1d1d1b"/>
      </g>
      <path d="M74.67,40.02c0,17.46-10.6,31.61-23.68,31.61s-24.02-17.77-23.68-31.61c.19-7.8,3.79-13.72,5.43-16.41,2.1-3.45,8.97-14.75,18.25-15.2,11.59-.56,23.68,15.95,23.68,31.61Z" fill="#e6bd90"/>
      <path d="M27.72,46.9l.13-4.97c.18,1.26,.52,3.09,1.16,5.22,1.48,4.92,3,9.99,6.65,11.55,2.49,1.07,3.16-.73,11.25-1.44,3.66-.32,6.84-.27,8.31-.23,6.16,.18,7.09,.92,8.98,.56,2.95-.57,6.83-3.62,10.1-15.5,.01,1.55,.03,3.11,.04,4.66-.2,1.45-.56,3.38-1.23,5.59-.47,1.54-1.43,4.59-3.51,7.85-1.22,1.92-3.59,5.68-8.28,8.38-1.69,.97-5.96,3.36-11.64,2.97-8.88-.61-14.23-7.55-15.69-9.44-1.8-2.33-2.89-4.66-3.44-5.85-1.71-3.69-2.46-7.02-2.82-9.35Zm15.59,20.14c-.03,1.09,6.68,3.37,6.52,.43-.16-2.94,2.39-2.4,2.83-1.88s-.47,1.34,2.93,2.08,3.27-5.88,3.64-7.34c.37-1.46-2.46-.91-2.46-.91,0,0-2.83,.43-4.08,.06s-10.15,1.26-10.15,1.26c-1.45,4.65,.81,5.23,.78,6.31Z" fill="#5a481e" opacity=".2"/>
      <path d="M74.67,40.02c0,17.46-10.6,31.61-23.68,31.61s-23.34-17.89-23.68-31.61c-.04-1.65-.08-8.78,4.16-16.36,.99-1.77,8.63-15.04,19.52-15.24,12.35-.23,23.68,16.44,23.68,31.61Z" fill="none" stroke="#1d1d1b" stroke-miterlimit="10" stroke-width="1.14"/>
      <path d="M60.52,36.7c-.61,.35-1.06,.89-1.46,1.4-.24,.31-.35,.71-.47,1.08-.22,.67-.38,1.37-.35,2.07,.05,1.61,.22,3.12,.96,3.91,1.23,1.31,3.47,1.29,5.27,1.36,.6,.02,1.22,.02,1.76-.25,1.08-.53,1.47-1.88,1.63-3.08,.11-.79,.16-1.62-.15-2.36-.17-.4-.35-.98-.62-1.32-.51-.63-.93-1.46-1.6-1.93-1.58-1.11-1.83-1.38-3.81-1.08l-1.16,.19Z" fill="#fff" stroke="#1d1d1b" stroke-miterlimit="10" stroke-width="1.1"/>
      <path d="M41.11,37.44c-.21-.13-.43-.24-.67-.3-.87-.25-1.52-.34-2.5-.37-.62-.02-1.4,.49-1.98,.75-1.31,.58-1.96,2.18-2.15,3.68-.21,1.62,.07,3.51,1.32,4.46,.73,.55,1.65,.69,2.53,.78,1.46,.15,2.11,.21,3.58,.17,.49-.01,1.13-.45,1.47-.83,.19-.21,.98-1.1,1.06-1.38,.89-3.19,.9-4.8-1.81-6.42l-.86-.54Z" fill="#fff" stroke="#1d1d1b" stroke-miterlimit="10" stroke-width="1.1"/>
      <ellipse cx="38.81" cy="41.69" rx="1.94" ry="1.96" fill="#1d1d1b" stroke="#1d1d1b" stroke-miterlimit="10" stroke-width=".28"/>
      <ellipse cx="62.92" cy="41.69" rx="1.94" ry="1.96" fill="#1d1d1b" stroke="#1d1d1b" stroke-miterlimit="10" stroke-width=".28"/>
      <path d="M40.29,40.89c.89,0,.89-1.39,0-1.39s-.89,1.39,0,1.39h0Z" fill="#fff"/>
      <path d="M64.21,40.68c.89,0,.89-1.39,0-1.39s-.89,1.39,0,1.39h0Z" fill="#fff"/>
      <path d="M52.32,43.87c-1.56,.63-3.29,.95-4.57,2.13s-1.5,2.97-1.36,4.6c.07,.85,.25,1.69,.56,2.49,.27,.7,.62,1.61,1.31,2,.74,.41,1.78,.4,2.59,.33,.93-.08,1.85-.3,2.75-.53s.5-1.56-.37-1.34c-.73,.18-1.46,.38-2.2,.46-.58,.07-1.55,.19-2.08-.13-.23-.14-.35-.48-.47-.71-.15-.3-.27-.61-.38-.93-.21-.64-.33-1.31-.36-1.98-.06-1.29,.1-2.62,1.19-3.46s2.5-1.08,3.75-1.59c.35-.14,.59-.46,.48-.85-.09-.33-.51-.62-.85-.48h0Z" fill="#1d1d1b"/>
      <path d="M44.68,64.08c2.29,.55,4.68-.05,6.93-.59s4.36-1.09,6.08-2.54c.68-.57-.3-1.55-.98-.98-1.52,1.27-3.59,1.73-5.47,2.18-1.98,.48-4.16,1.07-6.19,.59-.87-.21-1.24,1.13-.37,1.34h0Z" fill="#1d1d1b"/>
    </g>
    <g>
      <path d="M35.21,11.68c.05-.81,.16-1.46,.12-2.1-.03-.46,.18-.64,.51-.8,.48-.24,.97-.17,1.44,.02,.69,.26,1.3,.22,1.87-.29,.71-.63,1.47-1.22,2.17-1.86,.72-.66,1.45-1.35,2.46-1.48,.73-.09,1.48-.03,2.22-.02,.45,0,.89,.05,1.34,.08l.04-.17-1.85-.59c.52-.35,1.13-.58,1.78-.52,1.25,.11,2.5,.25,3.73,.48,1.23,.23,2.45,.33,3.69,.23,.69-.06,1.35,0,2.01,.31,.75,.35,1.55,.57,2.33,.85l.12-.15c-.58-.64-1.16-1.27-1.69-1.87,1.55,.32,2.92,1.13,4.12,2.33-.02-.07-.05-.14-.07-.2-.02-.06-.05-.12-.08-.19,.06,0,.1,0,.11,0,1.27,1.51,2.83,2.7,4.33,3.96,1.41,1.18,2.56,2.61,3.46,4.25,.94,1.72,.94,3.48,.35,5.28-.05,.15-.09,.3-.13,.46,0,.01,0,.03,.04,.11,.14,0,.31,.02,.47,0,1.14-.15,2.18,.06,3.11,.76,1.64,1.25,2.48,2.94,2.7,4.97,.3,2.76,.37,5.53,.22,8.29-.1,1.88-.28,3.14-.45,4.47-.43,3.34-.69,5.4-1.15,5.42-.57,.03-1.4-3.09-1.69-5.67-.26-2.29-.03-3.52-.86-5.51-.33-.78-.26-.35-1.25-2.21-1.35-2.56-1.72-3.95-3.23-5.06-.27-.2-.55-.37-.84-.57-2.73,1.89-5.9,2.55-9.13,2.92-5.65,.64-11.31,.52-16.95-.08-1.14-.12-2.26-.38-3.39-.63-.73-.16-1.43-.13-2.14,.11-1.7,.57-2.92,1.65-3.54,3.01-.7,1.54,.23,1.93-.13,4.14-.32,1.96-1.17,2.39-2.46,5.26-.45,1-1.01,2.41-1.46,4.22-.43-1.39-.61-2.54-.69-3.27-.36-3.24,.43-4.49,.28-8.78-.04-1.3-.03-1.45-.1-2.49-.12-1.72,.06-3.41,.78-4.98,.8-1.76,1.22-3.62,1.66-5.49,.18-.79,.4-1.57,.61-2.36,.56-2.1,1.83-3.72,3.41-5.14,.41-.37,.74-.47,1.12,.02,.14,.19,.37,.31,.68,.57Z" fill="#5a481e" stroke="#1d1d1b" stroke-miterlimit="10" stroke-width="1.09"/>
      <path d="M60.95,20.06c-1.53-1.41-3.29-2.46-5.16-3.34,2.03,.62,3.84,1.59,5.16,3.34Z" fill="#372d16"/>
      <path d="M49.24,16.54c1.45,.92,2.58,1.96,3.38,3.4l-3.38-3.4Z" fill="#372d16"/>
    </g>
  </g>
  <g>
    <path d="M99.09,95c-1.71-3.23-3.68-9.3-10.49-14.67-1.1-.87-4.01-2.07-6.88-3.74-.47-.28-6.36-3-6.88-2.83-.5,.16-6.7-1.95-7.14-1.62-5.92,4.48-14.9,10.87-16.24,10.77-3.98-.3-8.96-5-14.7-9.76-.59-.49-4.83,.48-5.55,.71-5.91,1.85-14.27,6.92-16.99,9.55-7.67,7.39-10.07,9.86-12.02,17.54C.01,109.59-3.41,117.97-4.65,126.58c7.27,4.75,9.3,2.49,15.72,8.13,3.38,2.97,12.09-17.14,14.34-31.07l-3.3,21.42c-.21,5,.45,20.61-.21,31.74,0,0-2.13,19.82-2.11,29.44,0,2.18-.73,8.07,.19,9.99,1.62,3.4,8.92-.44,13.19-.89,12.06-1.29,9.32-1.21,21.43-1.37,5.05-.07,19.67-.24,24.5,1.37,1.2,.4,9.18,2.91,10,2.55,2.82-1.21,1-9.51,.84-12.86-.41-8.57-1.97-11.3-2.46-19.87-.26-4.54-2.11-22.44-2.16-27.15l-2.09-32.49c2.23,19.53,5.33,28.07,10.22,25.87,1.85-.83,15.63-7.3,16.9-10.08,1.62-3.55-9.84-23.61-11.27-26.31Z" fill="#633045"/>
    <path d="M99.72,94.64c-.96-1.84-1.76-3.75-2.77-5.56-1.4-2.51-3.12-4.85-5.16-6.88-.98-.98-2.03-1.98-3.19-2.75s-2.47-1.33-3.7-1.96c-1.88-.96-3.69-1.98-5.63-2.84-1.38-.61-2.87-1.43-4.38-1.63-.32-.04-.99-.16-1.54-.31-.97-.26-1.93-.54-2.9-.8-.7-.19-1.42-.41-2.14-.49-1.01-.11-1.55,.53-2.34,1.12-2.27,1.69-4.55,3.35-6.87,4.97-1.97,1.38-3.96,2.77-6.07,3.95-.45,.25-1.01,.64-1.53,.72-.85,.12-2.24-.57-3.06-1-3-1.56-5.6-3.88-8.17-6.04-.74-.62-1.48-1.25-2.23-1.87-.36-.3-.71-.7-1.16-.87-.76-.28-1.72-.07-2.49,.05-4.91,.73-9.46,3.05-13.7,5.55-2.07,1.21-4.11,2.51-5.97,4.03-2.21,1.79-4.24,3.95-6.19,6.02-1.72,1.82-3.34,3.76-4.53,5.98-1.38,2.56-2.09,5.33-2.84,8.12-2.17,8.08-5.26,15.94-6.49,24.25-.05,.34,.04,.63,.33,.82,1.86,1.2,3.8,2.22,5.88,2.98,1.56,.57,3.18,.98,4.69,1.67,.82,.37,1.6,.82,2.36,1.32,1.01,.67,1.86,1.59,2.87,2.23,.67,.42,1.4,.4,2.1,.05,2.13-1.07,3.5-3.84,4.57-5.82,1.93-3.58,3.47-7.39,4.81-11.23,1.66-4.74,3.03-9.61,3.85-14.57l-1.4-.39-2.95,19.14c-.43,2.77-.43,5.46-.4,8.27,.06,6.45,.19,12.9,.06,19.35-.18,8.83-1.4,17.59-1.97,26.4-.32,5-.51,10.04-.65,15.05-.05,1.89-.3,4.75,1.46,6.01s4.52,.53,6.45,.03c2.94-.77,5.68-1.55,8.71-1.88,2.43-.27,4.86-.56,7.29-.78,4.54-.4,9.14-.33,13.69-.38,5.33-.06,10.67-.05,15.99,.35,2.15,.16,4.36,.35,6.44,.99,1.74,.54,3.47,1.09,5.22,1.59,1.05,.29,2.1,.58,3.17,.81,.61,.13,1.36,.36,1.98,.21,1.76-.42,2.09-2.88,2.17-4.34,.14-2.53-.28-5.06-.55-7.56-.33-3.02-.43-6.04-.9-9.05s-1.09-5.97-1.42-8.99c-.24-2.25-.35-4.52-.54-6.78-.43-5.06-.92-10.11-1.34-15.17-.48-5.75-.75-11.53-1.12-17.29l-1.44-22.41-.1-1.51h-1.45c.55,4.82,1.19,9.64,2.2,14.39,.64,2.99,1.38,6.06,2.78,8.8,.76,1.5,1.88,3.15,3.6,3.62,1.55,.42,2.96-.41,4.32-1.05,2.69-1.27,5.35-2.61,7.95-4.05,2.35-1.29,5.03-2.64,6.91-4.61,1.29-1.35,1.02-2.97,.58-4.65-.71-2.68-1.88-5.25-3.04-7.76-2.46-5.32-5.34-10.41-8.09-15.58-.44-.82-1.69-.09-1.25,.73,2.12,3.99,4.34,7.92,6.35,11.96,1.31,2.63,2.58,5.29,3.63,8.04,.56,1.47,1.7,3.77,1.32,5.41-.15,.67-.85,1.17-1.36,1.58-1.02,.82-2.14,1.51-3.25,2.18-2.58,1.55-5.27,2.94-7.97,4.28-1.44,.71-3.14,1.88-4.75,2.15-1.4,.24-2.42-.87-3.11-1.96-1.58-2.49-2.31-5.53-2.96-8.37-1.14-4.97-1.81-10.05-2.4-15.12-.1-.9-1.51-.95-1.45,0l1.1,17.11c.35,5.51,.78,11.02,1.03,16.54,.39,8.84,1.58,17.64,2.15,26.47,.41,6.36,2.06,12.54,2.41,18.91,.13,2.38,.53,4.73,.69,7.11,.07,1.13,.47,5.12-1,5.54-.58,.17-1.61-.26-2.16-.4-1.12-.27-2.23-.59-3.34-.91-1.57-.46-3.12-1.02-4.7-1.44-4.69-1.26-9.88-1.15-14.7-1.23-5.1-.08-10.21,0-15.31,.1-4.12,.08-8.17,.49-12.26,.94-2.88,.32-5.55,.75-8.34,1.55-1.34,.38-2.69,.79-4.07,.99-.93,.13-2.25,.29-3.01-.4s-.72-2.17-.74-3.13c-.03-1.35,.04-2.71,.12-4.06,.13-2.24,.14-4.47,.22-6.71,.32-8.57,1.29-17.08,2.03-25.62,.51-5.98,.34-12.07,.29-18.07-.03-2.9-.07-5.8-.1-8.7-.01-1.61-.11-3.44,.02-4.94,.23-2.7,.83-5.41,1.24-8.08l1.73-11.22,.31-2.04c.14-.91-1.25-1.31-1.4-.39-1.31,7.98-3.89,15.96-7.4,23.25-1.14,2.38-2.43,5.23-4.46,7.01-.39,.34-.82,.67-1.27,.5-.42-.16-.97-.82-1.32-1.1s-.7-.54-1.06-.79c-.77-.55-1.58-1.05-2.43-1.47-1.53-.76-3.16-1.24-4.77-1.78-2.24-.76-4.31-1.82-6.3-3.1l.33,.82c1.07-7.2,3.53-14.07,5.58-21.03,1.46-4.96,2.37-9.92,5.64-14.08,1.65-2.11,3.59-3.99,5.5-5.85,1.79-1.75,3.57-3.33,5.66-4.71,4.12-2.73,8.85-5.56,13.7-6.74,.94-.23,1.89-.43,2.84-.55,.34-.04,.79-.15,1.14-.08,.75,.15,1.44,1.01,2.03,1.5,2.46,2.07,4.89,4.21,7.56,5.99,1.58,1.05,3.89,2.55,5.9,2.39,1.35-.11,2.78-1.25,3.87-1.94,2.2-1.39,4.33-2.89,6.45-4.4,1.06-.76,2.12-1.53,3.17-2.3,.53-.39,1.07-.79,1.6-1.18,.28-.21,.56-.42,.83-.62,.15-.11,.76-.4,.36-.34,.58-.08,1.38,.27,1.93,.42,.98,.26,1.94,.54,2.92,.81,.62,.17,1.25,.36,1.89,.43,.16,.02,.57,.05,.22-.01,.36,.07,.72,.21,1.06,.34,1.77,.66,3.55,1.43,5.23,2.3,2.68,1.39,5.71,2.64,8.01,4.62,2.49,2.15,4.57,4.69,6.22,7.53,1.15,1.98,2.03,4.09,3.08,6.11,.43,.83,1.68,.1,1.25-.73Z" fill="#1d1d1b"/>
  </g>
</svg>