<?xml version="1.0" encoding="UTF-8"?>
<svg id="Layer_1" data-name="Layer 1" xmlns="http://www.w3.org/2000/svg" viewBox="0 0 50 50" width="30" height="30">
  <defs>
    <style>
      .cls-1 {
        fill: #e24305;
      }

      .cls-1, .cls-2 {
        stroke-width: 0px;
      }

      .cls-2 {
        fill: #fff;
      }
    </style>
  </defs>
  <path class="cls-1" d="M25,0C11.21,0,0,11.21,0,25s11.21,25,25,25,25-11.21,25-25S38.79,0,25,0Z"/>
  <path class="cls-2" d="M32.51,26v-13.53c0-.83-.67-1.5-1.5-1.5H11.47c-.83,0-1.5.67-1.5,1.5v21.04l6.01-6.01h15.03c.83,0,1.5-.67,1.5-1.5M38.53,16.98h-3.01v13.53H15.98v3.01c0,.83.67,1.5,1.5,1.5h16.53l6.01,6.01v-22.54c0-.83-.67-1.5-1.5-1.5Z"/>
</svg>