<svg xmlns="http://www.w3.org/2000/svg" viewBox="0 0 103.65 92.33">
  <g>
    <path d="M39.41,58.69c0,7.32-4.91,15.36-5,22.68a17.06,17.06,0,0,0,.62,5.73,7.44,7.44,0,0,0,4.16,4.5,15.87,15.87,0,0,0,4.85.84c7.52.5,15.44,1,22.27-1.63a8.8,8.8,0,0,0,2.78-1.53,5.24,5.24,0,0,0,1.51-2.56c.63-2.23.15-4.55-.33-6.81-1.37-6.42-4.91-16.3-6.28-22.72Z" fill="#e6bd90"/>
    <path d="M38.79,58.69c-.13,7-3.87,13.31-4.78,20.18-.41,3.06-.49,6.69.92,9.51s4.23,4.19,7.33,4.53a93,93,0,0,0,11.2.54,41.46,41.46,0,0,0,10.59-1.24c2.91-.79,6-1.88,7.08-5s0-6.69-.76-9.76C68.64,70.62,66.12,64,64.62,57a.61.61,0,0,0-.6-.45L42.54,57.88l-3.13.19c-.8,0-.8,1.3,0,1.25L60.89,58,64,57.82l-.6-.46c1.21,5.59,3.09,11,4.67,16.53a70,70,0,0,1,2,8.23,9.11,9.11,0,0,1-.39,5.32c-.83,1.74-2.62,2.47-4.34,3.06C59,92.68,52,92.33,45.4,91.9c-3.39-.22-7-.33-9-3.52-1.68-2.68-1.52-6.55-1.09-9.57,1-6.85,4.64-13.12,4.77-20.12A.63.63,0,0,0,38.79,58.69Z" fill="#1d1d1b"/>
  </g>
  <g>
    <g>
      <path d="M112.08,116.12a144.77,144.77,0,0,0-6.19-17.49c-4-7.24-6-15.18-10.85-21.65A45.74,45.74,0,0,0,74.67,62.11h0a5.11,5.11,0,0,0,1.11-1.21A10.2,10.2,0,0,1,70,56.65c-.21-.31-.41-1.09-.75-1.27-.56-.29-1.23.46-1.78.77a32.64,32.64,0,0,0-6.36,4.73l.05.37c.35.36.67.75,1,1.13C61.48,67.16,60.23,69.07,59,74a19.75,19.75,0,0,1-.75,2.37,13.16,13.16,0,0,1-1.3,2.8l-1.76,5a19.6,19.6,0,0,0-2-4.63c-2.73-5.14-4.84-5.44-6.77-10.94C46,67.46,44,64.68,43.59,63.52l.12-.54a1.29,1.29,0,0,0,.06-.47c-.06-.72-.49-1-1.13-1.37a11.78,11.78,0,0,1-3.42-2.75l-1.62-2.3c-1.72,1.47-4.13,4.6-6.17,5.6l.21.09c-6.42,4.83-13.82,6.1-19.17,11.27C7.78,77.59,4.83,83.53,2.1,89.46c-2.87,6.25-3.39,16.21-4.88,22.59-1.71,12.72-3.46,44.83-.5,45.75,3.5,1.08,13.17-1.58,17.09-2.75.84-.25-1.59-27.33,1.33-36.79,2.14-6.9,6.43-19,9.51-20.33l1,21c.12,5.58,0,11.19-.19,16.73l.22,2.05c0,7.88.33,12.89.34,20.78,0,1.78-1.21,9-.37,10.58,1.47,2.79,6.62,2,9.72,2.55,10.82,1.93,21.75-.82,32.75-1,4.58,0,8.5.53,13.08.47a20.19,20.19,0,0,0,4.17-.62c2.56-1,1.4-5.69,1.26-8.44-.57-10.74-2-21.45-1.94-32.21,0-3.87.19-7.74.14-11.6L83,96.55c3.34,1.38,5.82,11.78,8.17,16.08,5.33,9.79,9.71,27.42,10.83,39.59.18,2,15.71-1,17.5-1.84C121.1,149.6,114.83,127,112.08,116.12Z" fill="#252755"/>
      <path d="M112.69,116a103,103,0,0,0-7.5-20c-2.37-4.79-4.09-9.88-6.63-14.59a40.43,40.43,0,0,0-9.69-11.73,48.87,48.87,0,0,0-7.14-5c-1.21-.69-2.46-1.33-3.73-1.9-.92-.41-2.33-1.3-3.34-1.28l.45,1.07a7.62,7.62,0,0,0,1.2-1.34.63.63,0,0,0-.37-.92,9.26,9.26,0,0,1-5.49-4c-.29-.53-.44-1.22-1.06-1.46s-1.33.21-1.9.58A57.42,57.42,0,0,0,62,59.25c-.53.45-1.45,1-1.49,1.72s.78,1.33,1.23,1.85l-.16-.61a44.1,44.1,0,0,1-1.83,7.26c-.86,2.65-1.39,5.39-2.48,8-.45,1.06-1,2-1.35,3.09L54.63,84h1.2a26,26,0,0,0-5-9.2,25.51,25.51,0,0,1-2.54-3.58c-.75-1.38-1.16-2.9-1.95-4.26-.37-.65-.78-1.29-1.18-1.94a5.54,5.54,0,0,1-.88-1.64c-.1-.63.27-1.15-.12-1.82A3.66,3.66,0,0,0,42.6,60.4a14.1,14.1,0,0,1-4.46-4.63.63.63,0,0,0-1-.12c-2,1.77-3.63,4.22-6,5.5a.63.63,0,0,0,0,1.08l.21.09V61.25c-3.69,2.72-7.9,4.42-12,6.45a29.19,29.19,0,0,0-10.16,8A59,59,0,0,0,2.37,87.41,45,45,0,0,0-1.19,99c-1.18,6.59-2.35,13.22-3,19.89s-1,13.23-1.23,19.86c-.16,5.31-.4,10.77.35,16.05.14,1,.28,2.62,1.14,3.35a4.68,4.68,0,0,0,2.79.53,28.23,28.23,0,0,0,4.59-.47,87.54,87.54,0,0,0,9.87-2.38c.65-.18,1-.26,1.17-.92a7.35,7.35,0,0,0,.1-1.69c0-5.21-.29-10.42-.33-15.63,0-5.88-.21-12.08,1.11-17.86a76.83,76.83,0,0,1,3.07-9.35,50.91,50.91,0,0,1,4.43-9.7A5.7,5.7,0,0,1,25,98.47L24,97.93c.37,8,1,16,1,24,0,2.72,0,5.43-.08,8.14a47.61,47.61,0,0,0-.07,6.32c.44,4.07.23,8.27.33,12.36a93.74,93.74,0,0,1,0,12c-.16,1.56-.35,3.12-.44,4.69a9.33,9.33,0,0,0,.21,3.76c1.09,2.86,5.29,2.76,7.76,2.88,2.15.11,4.25.55,6.39.74a61.51,61.51,0,0,0,7.8.12c5.24-.23,10.45-.94,15.69-1.32a142,142,0,0,1,15.71.18,28.34,28.34,0,0,0,5.6-.26c1.29-.21,2.47-.48,3.14-1.71a7.92,7.92,0,0,0,.49-4.34c-.15-1.93-.34-3.85-.46-5.78-.69-10.89-2-21.74-1.77-32.67a93.89,93.89,0,0,0,.05-9.49l-.49-5.83L83.68,97.5l-.08-1-.94.54c1.48.68,2.31,2.48,3,3.87,1,2,1.75,4.12,2.53,6.22,1.49,3.92,3.5,7.55,5.08,11.43a122.43,122.43,0,0,1,7.8,30.9c.14,1.06-.16,3,1,3.64a6.43,6.43,0,0,0,3.17.34,64.3,64.3,0,0,0,10-1.38,38.32,38.32,0,0,0,3.81-.9c.63-.2,1.09-.38,1.26-1.07a7.55,7.55,0,0,0-.09-2.72c-.19-1.43-.47-2.86-.76-4.27C117.56,134,115,125,112.69,116a.63.63,0,0,0-1.21.33c2,7.81,4.12,15.57,5.93,23.42a60.15,60.15,0,0,1,1.67,8.92,10.28,10.28,0,0,1,0,1.11c0,.3,0,.13,0,.14a12.09,12.09,0,0,1-3.1.8,72.62,72.62,0,0,1-9.73,1.51,9.15,9.15,0,0,1-3.5-.07.63.63,0,0,1-.26-.12c.2.19,0-.53,0-.77-.12-1.16-.27-2.32-.43-3.47a124.06,124.06,0,0,0-7.55-29.3c-.88-2.17-1.87-4.26-3-6.33A55.41,55.41,0,0,1,89,105.93a56.3,56.3,0,0,0-2.65-6.25c-.71-1.37-1.63-3-3.1-3.67-.39-.18-1,0-.94.54l.89,10.5c.31,3.73.77,7.48.94,11.22.23,4.76-.2,9.55-.11,14.32.1,5.21.48,10.42.9,15.61.39,4.94.61,9.92,1.09,14.84a22.11,22.11,0,0,1,.25,4.87,2.59,2.59,0,0,1-.85,1.88,5.24,5.24,0,0,1-2.18.55c-4.45.65-9-.17-13.49-.25a132.4,132.4,0,0,0-15.28,1,86.28,86.28,0,0,1-15.16.48c-2.11-.18-4.19-.63-6.31-.74a18.49,18.49,0,0,1-5-.61A2.74,2.74,0,0,1,26,167.29a37.25,37.25,0,0,1,.28-4.6,85,85,0,0,0,.31-10.47c-.09-4.5-.24-9-.26-13.5,0-1.17-.24-2.34-.21-3.51.06-2.62.14-5.24.18-7.86.15-9.51-.5-19-1-28.5l0-.92a.63.63,0,0,0-.94-.53c-2,.93-3.22,3.74-4.12,5.61a90.82,90.82,0,0,0-3.95,9.83,52.39,52.39,0,0,0-2.36,8,65,65,0,0,0-.76,8.24c-.24,6-.07,12,.1,18.07.06,2,.15,4.12.13,6.18,0,.41-.07,1-.07,1.32s-.06-.05.08-.08a3.16,3.16,0,0,0-.58.09c-.73.22-1.46.42-2.19.62a58.67,58.67,0,0,1-10.08,2c-.92.08-2.94.31-3.58-.13a2.63,2.63,0,0,1-.43-.92A23.76,23.76,0,0,1-4.13,151c-.14-2.69-.14-5.4-.1-8.1.09-6.45.43-12.9.93-19.33.22-2.83.47-5.65.78-8.46.34-3.11,1-6.15,1.49-9.23A104,104,0,0,1,1.24,93.73,52.81,52.81,0,0,1,6.45,82.15c2.22-3.93,5-7.78,8.63-10.48,3.39-2.48,7.37-4,11.1-5.85A39.51,39.51,0,0,0,32,62.32a.63.63,0,0,0,0-1.07l-.21-.1v1.08c2.52-1.34,4.19-3.85,6.3-5.7l-1-.13a18.41,18.41,0,0,0,3.7,4.31c.58.44,1.26.72,1.85,1.13.79.55.19,1.4.5,2.17a28.26,28.26,0,0,0,2,3.48c.76,1.3,1.17,2.74,1.86,4.08a20.86,20.86,0,0,0,2.24,3.33c2.23,2.81,4.45,5.95,5.37,9.46a.63.63,0,0,0,1.2,0c.55-1.54,1-3.14,1.65-4.66.28-.67.68-1.29,1-2a46.5,46.5,0,0,0,1.66-5.3c.89-3.19,2.28-6.32,2.6-9.65.07-.65-.15-.92-.62-1.4-.14-.15-.41-.25-.37-.4s1-.7,1.12-.83a47.58,47.58,0,0,1,5-3.53c.18-.12.67-.62.89-.61s.41.5.55.78a8.64,8.64,0,0,0,1.55,2,11.18,11.18,0,0,0,4.74,2.76l-.38-.92a5.81,5.81,0,0,1-1,1.09.63.63,0,0,0,.44,1.06,6,6,0,0,1,1.54.62c.58.23,1.16.48,1.73.75,1.21.56,2.39,1.18,3.54,1.85a47.12,47.12,0,0,1,6.18,4.31,39.58,39.58,0,0,1,9.63,11.38c2.43,4.42,4.11,9.21,6.26,13.77,1.25,2.65,2.53,5.16,3.59,7.9a116.83,116.83,0,0,1,4.35,13A.63.63,0,0,0,112.69,116Z" fill="#1d1d1b"/>
    </g>
    <g>
      <path d="M37.6,56.09c-1.72,1.47-4.13,4.6-6.17,5.6A18.77,18.77,0,0,1,41.6,72l2.11-9a1.29,1.29,0,0,0,.06-.47c-.06-.72-.49-1-1.13-1.37a11.78,11.78,0,0,1-3.42-2.75Z" fill="#252755"/>
      <path d="M37.16,55.65c-2,1.75-3.62,4.25-6,5.5-.53.27-.3,1,.15,1.14A18.21,18.21,0,0,1,41,72.16c.21.52,1,.66,1.21,0l1.66-7.06a6.91,6.91,0,0,0,.48-3A2.44,2.44,0,0,0,43,60.6,12.2,12.2,0,0,1,39.71,58a26.86,26.86,0,0,1-1.57-2.22c-.45-.65-1.54,0-1.07.63a17.46,17.46,0,0,0,4,4.49c.57.42,1.52.67,2,1.23.3.38.09.87,0,1.29l-.42,1.81L41,71.83H42.2A19.61,19.61,0,0,0,31.6,61.08l.15,1.15c2.53-1.31,4.19-3.87,6.3-5.7C38.66,56,37.77,55.12,37.16,55.65Z" fill="#1d1d1b"/>
    </g>
    <g>
      <path d="M61.13,61.25a27.1,27.1,0,0,1,6.07,9.42l1.35-2.52a12.72,12.72,0,0,1,2.28-3.35c1.54-1.45,3.8-2.12,4.94-3.9A10.2,10.2,0,0,1,70,56.65c-.21-.31-.41-1.09-.75-1.27-.56-.29-1.23.46-1.78.77a32.64,32.64,0,0,0-6.36,4.73Z" fill="#252755"/>
      <path d="M60.68,61.69a27,27,0,0,1,5.92,9.15.63.63,0,0,0,1.14.14c1.11-2.07,2.08-4.61,4-6.11,1.56-1.24,3.45-2,4.6-3.66a.64.64,0,0,0-.37-.92,9.71,9.71,0,0,1-4.59-2.86,11.41,11.41,0,0,1-1.29-2,1.29,1.29,0,0,0-1.53-.64A10.11,10.11,0,0,0,66.42,56c-.86.52-1.7,1.07-2.51,1.67s-1.53,1.18-2.26,1.81-1.26.89-1.15,1.74,1.35.8,1.25,0l0-.37-.18.44a32.19,32.19,0,0,1,4-3.25c.72-.49,1.47-.92,2.21-1.38.27-.17.52-.38.79-.55.43-.27.45-.08.63.31a10.23,10.23,0,0,0,6.43,5l-.38-.92c-1.15,1.7-3.28,2.36-4.76,3.71-1.75,1.59-2.71,4-3.81,6.06l1.15.15a28.5,28.5,0,0,0-6.24-9.69A.63.63,0,0,0,60.68,61.69Z" fill="#1d1d1b"/>
    </g>
  </g>
  <g>
    <path d="M60.84,8.18a6,6,0,0,0-2-.7A58.11,58.11,0,0,0,48.36,6.8c-3.82.06-7.86,1.07-10.55,3.78a15.08,15.08,0,0,0-3.14,5.68c-2.88,8-3.35,12.1-3.61,20.55A38.79,38.79,0,0,0,31.72,44c.46,1.73,1.88,3.52,2.72,5.46a26.54,26.54,0,0,0,4.84,8C45,64,55.87,64.16,62.59,58.77s9.7-14.34,10.16-22.94a40.73,40.73,0,0,0-.46-9c-1.45-8.5-2.66-12.37-9.43-17.43a6.12,6.12,0,0,0-.71-.46Z" fill="#e6bd90" stroke="#1d1d1b" stroke-miterlimit="10" stroke-width="0.25"/>
    <g>
      <path d="M70.83,41.1a3.94,3.94,0,0,0-1.9,1.21c-.81,1-.66,1.63-1.74,2.39A34.31,34.31,0,0,1,62,47.31l-1.54.5-5.75.92a17.43,17.43,0,0,1-5.49,0l-5.15-.83a2.88,2.88,0,0,1-.4-.09,9.38,9.38,0,0,1-2-.69,8.66,8.66,0,0,1-1.21-.79c-.64-.45-1.42-.51-2.06-1-.89-.64-1.51-.6-2.25-1.4l-1.86-.86a4.62,4.62,0,0,0-2.19-.47c-.09,0-.14,0-.08.26A14.41,14.41,0,0,0,33,46c1.56,2.73,2.66,5.68,4.39,8.22a41.22,41.22,0,0,0,3.7,4.37c.59.65,1.38.64,2.21,1.19a13,13,0,0,0,1.16.63l1.52.83a20.74,20.74,0,0,0,5.8.88l3.85-.52a13.42,13.42,0,0,0,4-1.5l2.61-1.72a16.91,16.91,0,0,0,4.31-4.29c.31-.56.64-1,1-1.6a23.74,23.74,0,0,0,1.36-2.34,29.63,29.63,0,0,0,2-5.75c.13-.57.19-.91.28-1.4l.15-.6.14-.57a4.11,4.11,0,0,0,.18-.95Z" fill="#9d9d9c"/>
      <path d="M70.67,40.52a5,5,0,0,0-2,1.22c-.6.65-.83,1.54-1.43,2.17a9.56,9.56,0,0,1-2.84,1.68,32.56,32.56,0,0,1-3.1,1.34,36.79,36.79,0,0,1-6,1.11,24.21,24.21,0,0,1-7.83-.22c-1-.16-2-.31-3-.49a10.4,10.4,0,0,1-1.74-.47c-1-.36-1.72-1.07-2.67-1.47-1.54-.64-2.82-1.64-4.31-2.33-1.12-.52-2.7-1.47-3.93-.9a.57.57,0,0,0-.3.52c.24,2.82,2,5.36,3.2,7.85a31.48,31.48,0,0,0,5.17,7.56,9.75,9.75,0,0,0,1.27,1.3,10.54,10.54,0,0,0,1.6.74c.73.37,1.44.81,2.16,1.2a12.14,12.14,0,0,0,4.48,1.26,19.11,19.11,0,0,0,18.29-9,33.88,33.88,0,0,0,3.4-7.2c.34-1.09.53-2.21.78-3.33a15.92,15.92,0,0,0,.46-2.18c0-.41-.41-.65-.76-.58l-.81.18c-.75.17-.43,1.33.32,1.16l.81-.17L71,40.92a27.75,27.75,0,0,1-1,4.51,21.13,21.13,0,0,1-2.18,5.47c-1.49,2.45-2.89,4.79-5.22,6.54a37.33,37.33,0,0,1-3.17,2.13,12.44,12.44,0,0,1-4.91,1.62,22.59,22.59,0,0,1-3.36.38,14.52,14.52,0,0,1-4.9-.81c-1.21-.52-2.29-1.36-3.5-1.88a10.64,10.64,0,0,1-3.6-3.28,22.43,22.43,0,0,1-2.62-3.91c-.77-1.43-1.44-2.92-2.18-4.37a13,13,0,0,1-1.76-4.64l-.29.52c.63-.29,2.85.86,3.46,1.24s1.09.74,1.7,1.06c.82.43,1.73.79,2.52,1.25a12.1,12.1,0,0,0,4.13,1.75c1,.18,2.05.34,3.07.5a24.52,24.52,0,0,0,7.88.27c1.83-.28,3.73-.45,5.53-.88A23.15,23.15,0,0,0,66.26,46a6.13,6.13,0,0,0,2.2-1.7c.78-1.13,1.09-2.09,2.53-2.6C71.72,41.43,71.41,40.27,70.67,40.52Z" fill="#9d9d9c"/>
    </g>
    <g>
      <path d="M72.35,30.09a22.48,22.48,0,0,0-1-4.86c-.33-1.08-.41-3-.86-4.08-.38-.88-.58-2.16-1-3a33.3,33.3,0,0,0-1.64-3.19,6.75,6.75,0,0,0-2-2.44c-.17-.15-1.23-1.55-1.45-1.52s-.31,2.06-.37,2.32c-.36,1.5-.51,2.15-1.79,3a2.74,2.74,0,0,0-1,1.37c-.07.58,1.37.69,1.59,1.62.3,1.27,1.27,2.27,1.92,3.4A31.4,31.4,0,0,1,67.36,29Z" fill="#9d9d9c"/>
      <path d="M73,30.09a37.53,37.53,0,0,0-1.1-5.24c-.2-.79-.27-1.6-.41-2.4a24.47,24.47,0,0,0-.7-2.4A22.51,22.51,0,0,0,69,15.6a11.86,11.86,0,0,0-1.85-2.84c-.39-.4-.79-.74-1.15-1.17a4.34,4.34,0,0,0-1.14-1.16c-1.15-.56-1.23,1.22-1.28,1.89a4.46,4.46,0,0,1-1.26,3.24c-.74.62-2.24,1.86-1.26,2.9.52.55,1.08.54,1.38,1.32A14.66,14.66,0,0,0,64,22.52a26.65,26.65,0,0,1,2.77,6.66.63.63,0,0,0,.43.44l5,1.07c.79.17,1.12-1,.33-1.2l-5-1.08.44.44a38.29,38.29,0,0,0-1.87-5.09c-.76-1.61-1.92-3-2.55-4.6A2.25,2.25,0,0,0,62.67,18c-.16-.11-.52-.22-.64-.38s0,0,0,0c0-.17.28-.44.37-.55.41-.45,1-.74,1.35-1.23a4.11,4.11,0,0,0,.72-1.45,7.14,7.14,0,0,0,.3-1.43,6,6,0,0,0,.15-1.5c0-.24.37-.3-.29-.07s-.26,0-.23.23.43.47.53.59a14.45,14.45,0,0,0,1.15,1.2,9.43,9.43,0,0,1,1.6,2.34,18.56,18.56,0,0,1,1.78,4.15c.21.78.54,1.52.72,2.3s.25,1.65.41,2.47c.36,1.82,1,3.52,1.16,5.38C71.81,30.88,73.06,30.89,73,30.09Z" fill="#9d9d9c"/>
    </g>
    <g>
      <path d="M35.81,29.68c1.13-.26,1.13-.35,1.58-1.44s1.14-2.87,1.74-4.3c.74-1.8,1.41-3.44,1.46-3.54a3.52,3.52,0,0,0,.15-.86,3.82,3.82,0,0,0,.07-.89,2.87,2.87,0,0,0-1.11-1.51A8.27,8.27,0,0,1,37.18,12l0-.33a42.81,42.81,0,0,0-2.27,4.18,41.06,41.06,0,0,0-1.54,4.79c-.43,1.82-.77,2.79-1.23,4.85-.15.64-.29,1.6-.4,2.46s-.36,2.12-.37,2.95l1.71-.42Z" fill="#9d9d9c"/>
      <path d="M36,30.28a2.35,2.35,0,0,0,1.5-.79,9.36,9.36,0,0,0,.92-2.1q1.23-3.08,2.51-6.13c.56-1.38.87-2.92-.26-4.08a10.17,10.17,0,0,1-2.06-2.55,8,8,0,0,1-.81-3,.63.63,0,0,0-1.16-.32,49.87,49.87,0,0,0-2.37,4.45,36.59,36.59,0,0,0-1.58,5,51.31,51.31,0,0,0-2,10.11.64.64,0,0,0,.79.6c1.51-.37,3-.79,4.47-1.23a.62.62,0,0,0-.33-1.2c-1.49.43-3,.85-4.47,1.22l.79.61a50.18,50.18,0,0,1,1.9-9.78,39.52,39.52,0,0,1,1.44-4.64A44,44,0,0,1,37.7,12l-1.17-.31a9.11,9.11,0,0,0,1.53,4.51,15.1,15.1,0,0,0,1.7,1.87,2.26,2.26,0,0,1,.14,2.38c-.61,1.63-1.34,3.22-2,4.83-.36.9-.71,1.79-1.08,2.68s-.39.94-1.18,1.13A.62.62,0,0,0,36,30.28Z" fill="#9d9d9c"/>
    </g>
    <path d="M60.84,8.18a6,6,0,0,0-2-.7A58.11,58.11,0,0,0,48.36,6.8c-3.82.06-7.86,1.07-10.55,3.78a15.08,15.08,0,0,0-3.14,5.68c-2.88,8-3.35,12.1-3.61,20.55A38.79,38.79,0,0,0,31.72,44c.46,1.73,1.88,3.52,2.72,5.46a26.54,26.54,0,0,0,4.84,8C45,64,55.87,64.16,62.59,58.77s9.7-14.34,10.16-22.94a40.73,40.73,0,0,0-.46-9c-1.45-8.5-2.66-12.37-9.43-17.43a6.12,6.12,0,0,0-.71-.46Z" fill="none" stroke="#1d1d1b" stroke-miterlimit="10"/>
    <path d="M60.55,30.85a4.58,4.58,0,0,0-1.33,1.26,3.13,3.13,0,0,0-.43,1,5.3,5.3,0,0,0-.32,1.85c0,1.44.2,2.8.87,3.51,1.12,1.17,3.16,1.16,4.79,1.22a3.42,3.42,0,0,0,1.59-.22,3.41,3.41,0,0,0,1.48-2.77,3.88,3.88,0,0,0-.14-2.11,4.92,4.92,0,0,0-.56-1.18,8.7,8.7,0,0,0-1.45-1.73c-1.44-1-1.67-1.23-3.46-1Z" fill="#fff" stroke="#1d1d1b" stroke-miterlimit="10"/>
    <path d="M42.93,31.51a2.77,2.77,0,0,0-.61-.27,8.62,8.62,0,0,0-2.26-.33,4.93,4.93,0,0,0-1.8.67,4.07,4.07,0,0,0-1.95,3.3c-.19,1.46.07,3.15,1.2,4a4.5,4.5,0,0,0,2.3.7,20.68,20.68,0,0,0,3.24.15A2.33,2.33,0,0,0,44.39,39a6.68,6.68,0,0,0,1-1.23c.81-2.86.82-4.3-1.64-5.75Z" fill="#fff" stroke="#1d1d1b" stroke-miterlimit="10"/>
    <circle cx="40.84" cy="35.32" r="1.76" fill="#1d1d1b" stroke="#1d1d1b" stroke-miterlimit="10" stroke-width="0.25"/>
    <circle cx="62.72" cy="35.32" r="1.76" fill="#1d1d1b" stroke="#1d1d1b" stroke-miterlimit="10" stroke-width="0.25"/>
    <path d="M53.1,37.28c-1.74.69-4,1-4.91,2.88A19.73,19.73,0,0,0,47.36,42c-.27.66-.37,1.37-.62,2a6.81,6.81,0,0,0-.63,2.62c0,.66.27,1.47,1,1.51a12.18,12.18,0,0,0,1.6-.12l.36,0h.12c.14,0,.08.07,0,0s-.26,0,0,0a.88.88,0,0,0,.21,0,1.93,1.93,0,0,0,.34,0c.34,0,.69-.11,1-.15s.66.07,1,0a16.28,16.28,0,0,0,3-1,.62.62,0,0,0-.34-1.2c-.8.21-1.52.66-2.32.87a3.49,3.49,0,0,1-1.07,0,3.48,3.48,0,0,0-.64.07l-.69.09a.88.88,0,0,0-.16,0c-.17,0,0-.07,0,0s.15,0,.08,0c-.23-.06-.09-.07-.34-.09a7.28,7.28,0,0,0-1.23.09l-.72.06a1.13,1.13,0,0,0-.26,0c-.07,0-.07-.09.05,0l.27.15a.88.88,0,0,1,0-.15,3,3,0,0,1,0-.9,8.3,8.3,0,0,1,.36-1.17c.26-.7.45-1.39.64-2.11a8.76,8.76,0,0,1,.65-1.47,3.3,3.3,0,0,1,1.42-1.62,21.55,21.55,0,0,1,3-1.14c.73-.29.41-1.5-.34-1.2Z" fill="#1d1d1b"/>
    <path d="M46.83,54.41c2.08.49,4.25,0,6.28-.53a13.19,13.19,0,0,0,5.52-2.27c.62-.52-.27-1.4-.88-.89a12.09,12.09,0,0,1-5,2c-1.8.42-3.77,1-5.62.52-.78-.18-1.11,1-.33,1.21Z" fill="#1d1d1b"/>
    <path d="M63.78,34.55a.63.63,0,0,0,0-1.25.63.63,0,0,0,0,1.25Z" fill="#fff"/>
    <path d="M42,34.49a.63.63,0,0,0,0-1.25.63.63,0,0,0,0,1.25Z" fill="#fff"/>
  </g>
</svg>
