<?xml version="1.0" encoding="UTF-8"?>
<svg id="Layer_1" data-name="Layer 1" xmlns="http://www.w3.org/2000/svg" viewBox="0 0 50 50" width="30" height="30">
  <defs>
    <style>
      .cls-1 {
        fill: #e24305;
      }

      .cls-1, .cls-2 {
        stroke-width: 0px;
      }

      .cls-2 {
        fill: #fff;
      }
    </style>
  </defs>
  <circle class="cls-1" cx="25" cy="25" r="25"/>
  <path class="cls-2" d="M37.17,23.28c-.49-.64-1.09-1.2-1.65-1.76-1.44-1.29-3.07-2.21-4.44-3.56-3.2-3.13-3.91-8.31-1.87-12.28-2.04.49-3.82,1.61-5.34,2.83-5.56,4.46-7.75,12.34-5.13,19.1.09.21.17.43.17.71,0,.47-.32.9-.75,1.07-.49.21-1.01.09-1.42-.26-.13-.11-.21-.21-.3-.36-2.43-3.07-2.81-7.47-1.18-10.99-3.58,2.92-5.54,7.86-5.26,12.51.13,1.07.26,2.15.62,3.22.3,1.29.88,2.58,1.52,3.71,2.32,3.71,6.33,6.37,10.65,6.91,4.59.58,9.51-.26,13.03-3.43,3.93-3.56,5.3-9.27,3.28-14.17l-.28-.56c-.45-.99-1.65-2.7-1.65-2.7M30.39,36.81c-.6.52-1.59,1.07-2.36,1.29-2.4.86-4.81-.34-6.22-1.76,2.55-.6,4.08-2.49,4.53-4.4.36-1.72-.32-3.13-.6-4.79-.26-1.59-.21-2.94.36-4.42.41.82.84,1.63,1.35,2.28,1.65,2.15,4.25,3.09,4.81,6.01.09.3.13.6.13.92.06,1.76-.71,3.69-2,4.87h0Z"/>
</svg>