<?xml version="1.0" encoding="UTF-8"?>
<svg id="Layer_1" data-name="Layer 1" xmlns="http://www.w3.org/2000/svg" viewBox="0 0 168 150">
  <defs>
    <style>
      .cls-1, .cls-2, .cls-3, .cls-4, .cls-5 {
        stroke-width: 0px;
      }

      .cls-1, .cls-6 {
        fill: #a37c6a;
      }

      .cls-2, .cls-7 {
        fill: #231f20;
      }

      .cls-3 {
        fill: #714c32;
      }

      .cls-4, .cls-8 {
        fill: #fbbe99;
      }

      .cls-8, .cls-6, .cls-9, .cls-10, .cls-11, .cls-7, .cls-12, .cls-13, .cls-14 {
        stroke-miterlimit: 10;
      }

      .cls-8, .cls-6, .cls-9, .cls-11, .cls-7, .cls-12, .cls-15, .cls-13, .cls-14 {
        stroke: #231f20;
      }

      .cls-8, .cls-6, .cls-9, .cls-11, .cls-7, .cls-15, .cls-14 {
        stroke-width: 1.89px;
      }

      .cls-9 {
        fill: #7e92a6;
      }

      .cls-10 {
        stroke: #131718;
        stroke-width: .48px;
      }

      .cls-10, .cls-12, .cls-15, .cls-13, .cls-14 {
        fill: none;
      }

      .cls-11 {
        fill: rgba(204, 204, 203, .4);
      }

      .cls-12 {
        stroke-width: 1.69px;
      }

      .cls-15 {
        stroke-linejoin: round;
      }

      .cls-15, .cls-14 {
        stroke-linecap: round;
      }

      .cls-5 {
        fill: #fff;
      }

      .cls-13 {
        stroke-width: 1.75px;
      }
    </style>
  </defs>
  <g>
    <g>
      <path class="cls-4" d="M100.79,115.7c-.63-3.28-2-6.02-2.5-9.34-.41-2.67.25-7.92-.61-10.38-.52-1.51-1.67-5.35-2.77-5.65-4.49-1.22-21.24.21-22.51.32-1.61.15-4.12,9.04-4.12,9.04,1.68,5.9-.73,10.28-1.9,17.03-.3,1.74-19.35,3.8-18.85,5.45.36,1.2,10.61,9.36,11.41,10.04,1.91,1.6,4.36,2.76,4.9,4.93,6.03,24.22,24.16,25.94,32.46.85.95-2.87,5.03-.12,7.95-.99.85-.25,5.76-1.84,6.4-2.65.83-1.07,7.94-10.52,7.87-12.09-.16-3.6-17.06-3.08-17.73-6.57Z"/>
      <path class="cls-9" d="M44.99,121.49s-17.34-2.05-38.48,52.59c-.71,1.82-11.11,40.11-12.45,53.5-.52,5.18-4.72,28.58,1.94,54.12.09.36,2.8-1.8,10.89.17,4.09,1,7.27-2.44,11.88-2.59,5.37-.17,6.92-3.17,8-5.71.64-1.49-3.9-55.94-.82-64.63,2.79-7.88,4.52-15.73,7.01-22.77,6.49-18.38,11.3-32.06,11.13-31.51-.92,3.04-2.03,6.34-3.41,9.61-4.73,11.26-3.88,38.71-2.95,47.7,1.49,14.45-7.33,86.5-7.33,86.5,3.46,1.48,11.62,3.93,25.13,2.66,24.87-2.33,37.41-.54,37.41-.54,0,0,46.26,3.38,45.4-1.63-2.66-15.59-10.89-57.02-7.63-89.89,2.71-27.38-.4-46.4-3.08-54.54-1.29-3.93,12.3,49.49,11.44,46.19-.86-3.31,5.57,39.1,5.27,36.32-.52-4.81,2.27,30.52,4.54,32.69,6.96,6.65,19.33-5.45,28.96-.54.99.5-5.15-40.47-10.48-72.49-1.61-9.7-9.04-28.42-13.6-43.58-6.66-22.13-23.42-28.05-23.42-28.05l-18.63-6.79c-.97,3.23-11.39,4.03-28.57,6.57-3.07.46-16.83-1.3-19.7-3.66l-3.9-2.54-2.46-1.75-12.09,4.61Z"/>
    </g>
    <path class="cls-8" d="M113.81,51.81c5.86,23.7-11.51,46.19-21.43,49.27-5.39,1.68-10.96,1.48-10.96,1.48s-4.46-.17-8.62-1.48c-9.24-2.91-26.59-25.45-20.57-49.27,3.09-12.26,13.87-30.79,30.8-30.8,16.83,0,27.71,18.32,30.8,30.8Z"/>
  </g>
  <path class="cls-3" d="M119.35,81.59v.78c-.06.06-.1.1-.16.16.06-.33.1-.61.16-.94Z"/>
  <path class="cls-14" d="M73.53,89.21c1.74.77,4.53,1.72,8.04,1.74,6.44.05,11.03-3.06,12.65-4.28"/>
  <g>
    <path class="cls-5" d="M96.52,54.83c-.95.41-1.65,1.05-2.27,1.65-.38.37-.55.84-.74,1.27-.34.79-.59,1.61-.55,2.44.08,1.89.35,3.68,1.5,4.61,1.91,1.55,5.4,1.53,8.2,1.61.93.03,1.9.02,2.73-.29,1.69-.62,2.29-2.21,2.54-3.63.16-.93.25-1.92-.24-2.78-.26-.47-.55-1.16-.97-1.56-.8-.74-1.45-1.72-2.48-2.27-2.46-1.31-2.86-1.63-5.92-1.27l-1.8.22Z"/>
    <path class="cls-12" d="M96.52,54.83c-.95.41-1.65,1.05-2.27,1.65-.38.37-.55.84-.74,1.27-.34.79-.59,1.61-.55,2.44.08,1.89.35,3.68,1.5,4.61,1.91,1.55,5.4,1.53,8.2,1.61.93.03,1.9.02,2.73-.29,1.69-.62,2.29-2.21,2.54-3.63.16-.93.25-1.92-.24-2.78-.26-.47-.55-1.16-.97-1.56-.8-.74-1.45-1.72-2.48-2.27-2.46-1.31-2.86-1.63-5.92-1.27l-1.8.22Z"/>
    <path class="cls-2" d="M103.25,60.78c0,1.66-1.35,3.01-3.01,3.01s-3.01-1.35-3.01-3.01,1.35-3.01,3.01-3.01,3.01,1.35,3.01,3.01"/>
    <path class="cls-10" d="M103.25,60.78c0,1.66-1.35,3.01-3.01,3.01s-3.01-1.35-3.01-3.01,1.35-3.01,3.01-3.01,3.01,1.35,3.01,3.01Z"/>
    <path class="cls-5" d="M102.25,59.24c1.38,0,1.38-2.14,0-2.14s-1.38,2.14,0,2.14"/>
    <path class="cls-5" d="M70.26,55.33c-.32-.16-.68-.3-1.03-.38-1.35-.32-2.37-.43-3.88-.48-.97-.03-2.18.63-3.08.96-2.03.74-3.04,2.77-3.34,4.68-.33,2.06.12,4.45,2.05,5.66,1.13.7,2.56.88,3.94.99,2.27.18,3.29.27,5.56.21.76-.02,1.77-.58,2.3-1.05.29-.26,1.52-1.39,1.65-1.75,1.38-4.05,1.4-6.09-2.82-8.15l-1.34-.69Z"/>
    <path class="cls-13" d="M70.26,55.33c-.32-.16-.68-.3-1.03-.38-1.35-.32-2.37-.43-3.88-.48-.97-.03-2.18.63-3.08.96-2.03.74-3.04,2.77-3.34,4.68-.33,2.06.12,4.45,2.05,5.66,1.13.7,2.56.88,3.94.99,2.27.18,3.29.27,5.56.21.76-.02,1.77-.58,2.3-1.05.29-.26,1.52-1.39,1.65-1.75,1.38-4.05,1.4-6.09-2.82-8.15l-1.34-.69Z"/>
    <path class="cls-2" d="M69.7,60.78c0,1.66-1.35,3.01-3.01,3.01s-3.01-1.35-3.01-3.01,1.35-3.01,3.01-3.01,3.01,1.35,3.01,3.01"/>
    <path class="cls-10" d="M69.7,60.78c0,1.66-1.35,3.01-3.01,3.01s-3.01-1.35-3.01-3.01,1.35-3.01,3.01-3.01,3.01,1.35,3.01,3.01Z"/>
    <path class="cls-5" d="M68.99,59.56c1.38,0,1.38-2.14,0-2.14s-1.38,2.14,0,2.14"/>
  </g>
  <path class="cls-14" d="M83.56,62.43c-2.53,4.76-6.94,13.85-4.27,16.22.72.64,2.18.98,5.37-.26"/>
  <path class="cls-1" d="M57.06,54.52c4.71-2.49,9.23-2.54,13.86-1.3,1.36.36,2.75.67,4.14.85.4.05,1.17-.4,1.23-.72.09-.48-.15-1.31-.52-1.53-4.45-2.63-14-1.67-17.9,1.74-.2.17-.35.41-.8.96Z"/>
  <path class="cls-1" d="M109.86,54.52c-4.71-2.49-9.23-2.54-13.86-1.3-1.36.36-2.75.67-4.14.85-.4.05-1.17-.4-1.23-.72-.09-.48.15-1.31.52-1.53,4.45-2.63,14-1.67,17.9,1.74.2.17.35.41.8.96Z"/>
  <g>
    <g>
      <path class="cls-11" d="M56.96,55.23h20.56c1.12,0,2.02.91,2.02,2.02v6.8c0,1.12-.91,2.02-2.02,2.02h-15.83c-2.61,0-4.73-2.12-4.73-4.73v-6.11h0Z"/>
      <path class="cls-11" d="M91.13,55.23h15.83c1.12,0,2.02.91,2.02,2.02v6.8c0,1.12-.91,2.02-2.02,2.02h-20.56v-6.11c0-2.61,2.12-4.73,4.73-4.73Z" transform="translate(195.39 121.3) rotate(-180)"/>
      <path class="cls-15" d="M79.1,55.95c.87-.23,1.94-.3,3.65-.32,1.88-.02,3.13.11,4.03.35"/>
    </g>
    <polygon class="cls-7" points="50.06 52.42 56.96 55.23 56.96 58.4 49.67 55.23 50.06 52.42"/>
    <polygon class="cls-7" points="116.6 52.42 109.7 55.23 109.7 58.4 116.99 55.23 116.6 52.42"/>
  </g>
  <path class="cls-6" d="M127.24,78.77l-.33-13.01c-.61-13.16-.97-25.87-5.98-37.84-5.1-12.19-14.94-24.63-33.65-22.66-1.56.16-3.18-.06-4.76-.19-18.21-1.49-30,5.11-37.03,21.91-2.66,6.35-3.93,13.39-5.02,20.25-1.04,6.58-1.02,13.33-1.31,17.6l-.92,19.17s0,0,0,0c0,.21-.01.41-.02.62v.11s0,0,0,0c-.94,26.62-1.92,52.16,1.2,77.67.02,1.76.07,4.13.26,6.93.28,4.33.57,5.18,1.23,5.79,1.33,1.23,3.29.7,7.14.25,2.34-.28,5.77-.57,10.06-.54,3.59-17.4,8.13-30.77,9.9-42.33,2.24-14.65,4.11-20.23,2.09-29.53-.32-1.46-.65-2.63-.86-3.36-8.03-6.46-11.12-13.05-12.44-16.88-1.41-4.09-1.74-8.06-2.4-16.01-.55-6.64-.67-12.18-.68-16.07h24.28c.01-2.24.02-4.48.03-6.72,1.01,1.24,2.04,2.56,3.06,3.97.75,1.03,1.46,2.05,2.12,3.05.53-1.44,1.05-2.88,1.57-4.34,1.45-4.08,2.84-8.11,4.16-12.1.86,5.38,1.72,10.76,2.59,16.14l19.87-.02c1.15,7.96,2.1,20.98-2.31,31-3.8,8.64-5.82,11.36-5.82,11.36-1.78,2.4-5.37,6.64-5.94,9.82-.32,1.78-.11,5.49-.06,5.79,0,.04.06.35.11.77.12,1.04,0,1.42,1.63,12.96.28,1.96.61,4.14,1.03,6.72.18,1.07.37,2.19.78,3.68,1.22,4.39,7.55,33.07,6.89,39.84,3.8-.23,7.7-.53,11.67-.89,2.46-.23,4.88-.47,7.27-.74,1.21-14.96,1.96-31.06,2.02-48.16.05-15.54-.48-30.24-1.4-44Z"/>
</svg>