<?xml version="1.0" encoding="UTF-8"?>
<svg id="Layer_1" data-name="Layer 1" xmlns="http://www.w3.org/2000/svg" viewBox="0 0 168 150">
  <defs>
    <style>
      .cls-1 {
        fill: #e5bc8f;
      }

      .cls-1, .cls-2, .cls-3, .cls-4, .cls-5, .cls-6 {
        stroke-miterlimit: 10;
      }

      .cls-1, .cls-2, .cls-3, .cls-4, .cls-6 {
        stroke-width: 2.05px;
      }

      .cls-1, .cls-2, .cls-3, .cls-5 {
        stroke: #000;
      }

      .cls-2 {
        stroke-linecap: round;
      }

      .cls-2, .cls-4, .cls-6 {
        fill: none;
      }

      .cls-3 {
        fill: #b54d2d;
      }

      .cls-7, .cls-5 {
        fill: #231106;
      }

      .cls-7, .cls-8, .cls-9, .cls-10, .cls-11 {
        stroke-width: 0px;
      }

      .cls-4 {
        stroke: #513729;
      }

      .cls-5 {
        stroke-width: .91px;
      }

      .cls-8 {
        fill: #1d1d1b;
      }

      .cls-9 {
        fill: #513729;
      }

      .cls-10 {
        fill: #fff;
      }

      .cls-11 {
        fill: #ddf1fd;
        opacity: .29;
      }

      .cls-6 {
        stroke: #1d1d1b;
      }
    </style>
  </defs>
  <path class="cls-1" d="M127.44,121.27c-.54-1.38-4.81-3.18-13.5-5.97-5.48-1.76-7.45-7.56-10.94-14.51-2.87-5.71-11.34-22.6-20.48-22.65-7.45-.04-15.53,11.09-18.31,20.33-2.03,6.74-1.1,12.01-5.43,15.36-4.48,3.46-9.82,1.19-10.4,2.79-1.07,2.99,15.43,16.81,35.84,17.84,23.71,1.2,44.17-10.72,43.21-13.19Z"/>
  <path class="cls-3" d="M142.87,125.77c18.63,17.01,14.22,29.74,14.74,47.95.23,8.21-137.83,29.6-146.48-4.5-5.5-21.66,16.14-53.07,39.88-53.28,4.42-.04,3.72,6.69,10.97,11.54,9.12,6.11,19.07,7.11,22.24,6.98,3.72-.16,16.55-.42,23.9-7.45,3.57-3.41,6.86-6.74,9.62-9.47,3.33-3.29,21.57,4.97,25.14,8.22Z"/>
  <path class="cls-1" d="M123.53,50.17c.11,1.21.17,10.61-.36,12.38-7.46,24.81-17.22,35.38-17.22,35.38-6.96,7.53-13.77,14.91-23.28,14.74-9.41-.16-16.09-7.51-22.5-15.05,0,0-10.16-11.56-15.36-31.83-1.22-4.77-1.56-9.23-1.56-9.23-.08-1.02-.13-2.08-.14-3.23-.1-14.48,6.47-32.67,21.15-40.58,5.33-2.87,11.38-4.39,49.82,9.4,11.23,4.03,8.65,19.26,9.45,28.02Z"/>
  <path class="cls-7" d="M51.04,51.36c6.13-3.25,12.01-3.3,18.04-1.69,1.77.47,3.57.88,5.39,1.1.52.07,1.52-.53,1.6-.94.11-.62-.2-1.7-.68-1.99-5.79-3.43-18.22-2.17-23.3,2.27-.26.23-.45.53-1.04,1.25Z"/>
  <path class="cls-7" d="M113.52,51.47c-6.13-3.25-12.01-3.3-18.04-1.69-1.77.47-3.57.88-5.39,1.1-.52.07-1.52-.53-1.6-.94-.11-.62.2-1.7.68-1.99,5.79-3.43,18.22-2.17,23.3,2.27.26.23.45.53,1.04,1.25Z"/>
  <g>
    <path class="cls-10" d="M96.58,54.92c-1.05.46-1.83,1.16-2.51,1.83-.42.41-.61.93-.82,1.41-.37.87-.65,1.78-.61,2.7.08,2.1.39,4.08,1.66,5.1,2.12,1.71,5.98,1.69,9.07,1.78,1.03.03,2.1.02,3.03-.32,1.87-.69,2.53-2.45,2.81-4.02.18-1.03.27-2.12-.26-3.08-.29-.52-.61-1.29-1.07-1.72-.89-.82-1.61-1.9-2.75-2.52-2.73-1.45-3.16-1.8-6.55-1.41l-1.99.24Z"/>
    <path class="cls-6" d="M96.58,54.92c-1.05.46-1.83,1.16-2.51,1.83-.42.41-.61.93-.82,1.41-.37.87-.65,1.78-.61,2.7.08,2.1.39,4.08,1.66,5.1,2.12,1.71,5.98,1.69,9.07,1.78,1.03.03,2.1.02,3.03-.32,1.87-.69,2.53-2.45,2.81-4.02.18-1.03.27-2.12-.26-3.08-.29-.52-.61-1.29-1.07-1.72-.89-.82-1.61-1.9-2.75-2.52-2.73-1.45-3.16-1.8-6.55-1.41l-1.99.24Z"/>
    <path class="cls-8" d="M104.04,61.51c0,1.84-1.49,3.34-3.34,3.34s-3.33-1.49-3.33-3.34,1.49-3.34,3.33-3.34,3.34,1.49,3.34,3.34"/>
    <path class="cls-6" d="M104.04,61.51c0,1.84-1.49,3.34-3.34,3.34s-3.33-1.49-3.33-3.34,1.49-3.34,3.33-3.34,3.34,1.49,3.34,3.34Z"/>
    <path class="cls-10" d="M102.92,59.81c1.52,0,1.53-2.37,0-2.37s-1.53,2.37,0,2.37"/>
    <path class="cls-10" d="M67.52,55.48c-.35-.18-.75-.33-1.14-.42-1.5-.35-2.63-.48-4.3-.53-1.07-.03-2.42.7-3.41,1.06-2.25.82-3.37,3.07-3.7,5.18-.36,2.28.13,4.93,2.27,6.27,1.25.78,2.84.97,4.36,1.09,2.51.2,3.64.3,6.16.24.84-.02,1.95-.64,2.54-1.17.32-.29,1.69-1.54,1.82-1.93,1.53-4.48,1.55-6.75-3.12-9.02l-1.48-.77Z"/>
    <path class="cls-6" d="M67.52,55.48c-.35-.18-.75-.33-1.14-.42-1.5-.35-2.63-.48-4.3-.53-1.07-.03-2.42.7-3.41,1.06-2.25.82-3.37,3.07-3.7,5.18-.36,2.28.13,4.93,2.27,6.27,1.25.78,2.84.97,4.36,1.09,2.51.2,3.64.3,6.16.24.84-.02,1.95-.64,2.54-1.17.32-.29,1.69-1.54,1.82-1.93,1.53-4.48,1.55-6.75-3.12-9.02l-1.48-.77Z"/>
    <path class="cls-8" d="M66.9,61.51c0,1.84-1.49,3.34-3.34,3.34s-3.33-1.49-3.33-3.34,1.49-3.34,3.33-3.34,3.34,1.49,3.34,3.34"/>
    <path class="cls-6" d="M66.9,61.51c0,1.84-1.49,3.34-3.34,3.34s-3.33-1.49-3.33-3.34,1.49-3.34,3.33-3.34,3.34,1.49,3.34,3.34Z"/>
    <path class="cls-10" d="M66.11,60.16c1.52,0,1.53-2.37,0-2.37s-1.53,2.37,0,2.37"/>
  </g>
  <path class="cls-2" d="M71.68,96.54c2.34.91,7.88,2.7,14.79,1.39,5.44-1.03,9.27-3.53,11.23-5.02"/>
  <path class="cls-2" d="M82.44,65.7c-5.37,8.28-6.33,15.56-3.58,17.85.41.34,2.27,1.71,7.19-.08"/>
  <g>
    <line class="cls-4" x1="50.59" y1="55.81" x2="42.63" y2="53.96"/>
    <line class="cls-4" x1="114.21" y1="55.54" x2="120.76" y2="54.43"/>
    <g>
      <path class="cls-11" d="M77.38,65.21c-1.69,5.71-7.15,9.65-12.79,9.88-8.36.34-14.87-7.56-15.01-14.32-.02-.81,0-4.7,2.76-7.74,2.92-3.21,7.06-3.44,10.06-3.6,3.64-.2,8.67-.47,12.31,3.26,3.38,3.47,3.83,8.64,2.68,12.52Z"/>
      <path class="cls-11" d="M114.23,62.07c-.18,1.46-.71,5.66-4.14,9.04-3.22,3.18-8.41,5.04-13.56,3.6-5.79-1.62-9.87-6.97-10.11-12.56-.04-.98-.1-4.95,2.68-8.35,4.32-5.28,11.65-4.52,13.86-4.29,2.44.25,7.78.81,10.26,4.9,1.62,2.68,1.25,5.61,1,7.66Z"/>
      <path class="cls-9" d="M62.4,48.75c3.75.05,7.36.67,10.66,2.56,1.61.92,2.98,2.1,4.03,3.64.23.34.39.44.78.18,2.65-1.73,5.37-1.74,8.14-.29.85.45.86.45,1.43-.3,1.78-2.32,4.17-3.77,6.91-4.64,3.96-1.27,8-1.53,12.09-.7,5.12,1.03,8.2,4.37,8.55,9.59.42,6.14-1.92,11.14-6.94,14.71-5.17,3.67-12.5,3.11-17.45-1.16-3.49-3.01-5.3-6.83-5.28-11.47,0-1.25.24-2.47.68-3.64.14-.37.06-.56-.26-.77-2.28-1.5-4.99-1.47-7.17.09-.25.18-.43.31-.31.7,1.49,4.62.52,8.83-2.3,12.64-4.29,5.79-12.25,7.73-18.38,4.44-4.56-2.45-7.15-6.41-8.14-11.45-.45-2.32-.36-4.63.34-6.89,1.03-3.3,3.33-5.33,6.55-6.39,1.97-.65,4-.87,6.07-.85ZM50.59,60.15c.04,2.89.72,5.42,2.12,7.72,2.41,3.95,5.83,6.51,10.55,6.7,5.43.23,9.62-2.14,12.46-6.78,1.32-2.15,1.9-4.53,1.77-7.04-.2-4.07-2.36-6.87-5.87-8.68-3.35-1.73-6.97-2.2-10.7-1.97-1.75.11-3.44.45-5.04,1.19-3.85,1.79-5.23,5.05-5.3,8.86ZM101.61,50.02c-2.65.04-5.45.44-8.09,1.61-3.58,1.58-6.12,4.09-6.68,8.11-.46,3.31.44,6.33,2.33,9.08,3.66,5.32,11.08,7.34,16.62,4.5,5.58-2.86,8.79-9.39,7.61-15.55-.62-3.24-2.48-5.48-5.55-6.71-1.94-.78-3.96-1-6.24-1.04Z"/>
    </g>
  </g>
  <path class="cls-5" d="M46.43,46.71c.69,2.4.32,2.15.74,4.65.33,1.98.49,3.9-.35,5.79-1.47,3.3-1,6.77-.88,10.22.08,2.44-1.72,2.47-1.72,4.86-2.44-6.06-4.18-9.41-5.38-16.05-.34-1.88-.94-3.71-1.07-5.63-.04-.57.02-1.41-.65-1.47-.74-.07-.59.85-.81,1.34-.1.23-.06.53-.59.73-.16-4.66.45-9.1,2.26-13.34,1.76-4.13,3.59-8.24,6.39-11.83-.68-.4-.83.34-1.33.28,0-.13-.05-.29,0-.39,1.38-2.41,2.95-4.69,5.03-6.55,1.41-1.25,2.35-2.88,3.61-4.22,2.14-2.29,4.84-3.84,7.71-5.02,7.64-3.15,15.57-5.61,23.85-5.16,6.74.37,13.66.47,20.13,3.05,3.91,1.56,7.42,3.76,10.35,6.77,1.46,1.51,2.18,3.65,4.06,4.85,1.21.77,2.36,1.64,3.52,2.49,2.6,1.9,4.45,4.3,5.56,7.39,1.5,4.2,3.39,8.27,4.19,12.69.54,2.98.43,5.98-.38,9.07-.7-.64-.47-1.71-1.29-1.95-.47,10.12-3.85,15.14-8.39,23.85-.35-4.65-2.28-5.88-1.43-10.29.6-3.12.25-6.14-.94-9.07-1.54-3.79-2.49-7.66-2.02-11.81.17-1.49-.02-3.02-.51-4.5-.38,5.54.12,11.25-3.74,16.35,1.19-6.31.81-10.63-1.44-15.42,1.33,6.03-.15,11.32-4.12,16.23-.35-1.49.15-2.83-.38-4.21-1,.85-.7,2.31-1.89,3.18-.94-4.05-3.75-7.15-4.72-11.08-.32-1.3,0-2.53.1-3.8.05-.68.07-1.36-.04-2.06-.67,2.48-1.04,5.03-2.21,7.34-1.15,2.28-2.46,4.44-4.39,6.26,2.09-5.04,2.87-10.21,1.82-15.62-1.64,4.79-5.34,8.24-7.83,12.45-2.55,4.32-4.52,8.81-4.4,13.99-1.57-7.42-2.89-14.82-.34-22.33-6.86,4.19-10.71,10.29-11.8,18.6-2.25-4.89-3.21-9.38-1.63-14.17-1.8,3.1-2.34,6.42-1.97,9.89.13,1.26.46,2.51.83,3.73.23.74.04,1.01-.66,1-3.5-.05-6.67-1.03-8.97-3.77-2.34-2.8-3.43-6.08-2.99-9.79.07-.6.24-1.26-.24-2.05-1.73,3.38-1.31,6.83-1.23,10.28-3.15-4.11-4.23-8.84-4.08-13.99-.75,1.85-1.38,3.64-1.5,5.6-.12,1.94.52,3.78.65,5.69"/>
</svg>