<?xml version="1.0" encoding="UTF-8"?>
<svg id="Layer_1" data-name="Layer 1" xmlns="http://www.w3.org/2000/svg" viewBox="0 0 50 50" width="30" height="30">
  <defs>
    <style>
      .cls-1 {
        fill: #fff;
      }

      .cls-1, .cls-2 {
        stroke-width: 0px;
      }

      .cls-2 {
        fill: #a0a0a0;
      }
    </style>
  </defs>
  <path class="cls-2" d="M25,0C11.21,0,0,11.21,0,25s11.21,25,25,25,25-11.21,25-25S38.79,0,25,0Z"/>
  <path class="cls-1" d="M16.41,7.83v3.43h1.72v24.04c0,3.79,3.08,6.87,6.87,6.87s6.87-3.08,6.87-6.87V11.26h1.72v-3.43h-17.17M23.28,31.87c-1.03,0-1.72-.69-1.72-1.72s.69-1.72,1.72-1.72,1.72.69,1.72,1.72-.69,1.72-1.72,1.72M26.72,25c-1.03,0-1.72-.69-1.72-1.72s.69-1.72,1.72-1.72,1.72.69,1.72,1.72-.69,1.72-1.72,1.72M28.43,16.41h-6.87v-5.15h6.87v5.15Z"/>
</svg>