<?xml version="1.0" encoding="UTF-8"?>
<svg id="Layer_1" data-name="Layer 1" xmlns="http://www.w3.org/2000/svg" viewBox="0 0 50 50" width="30" height="30">
  <defs>
    <style>
      .cls-1 {
        fill: #000;
      }

      .cls-1, .cls-2 {
        stroke-width: 0px;
      }

      .cls-2 {
        fill: #7ec346;
      }
    </style>
  </defs>
  <path class="cls-2" d="M25,0C11.21,0,0,11.21,0,25s11.21,25,25,25,25-11.21,25-25S38.79,0,25,0Z"/>
  <path class="cls-1" d="M39.22,17.56H10.78c-.44,0-.81-.36-.81-.81v-2.42c0-1.78,1.44-3.22,3.22-3.22h3.22v-3.49c0-.44.36-.81.81-.81h2.68c.44,0,.81.36.81.81v3.49h8.59v-3.49c0-.44.36-.81.81-.81h2.68c.44,0,.81.36.81.81v3.49h3.22c1.78,0,3.22,1.44,3.22,3.22v2.42c0,.44-.36.81-.81.81ZM10.78,19.71h28.45c.44,0,.81.36.81.81v17.44c0,1.78-1.44,3.22-3.22,3.22H13.19c-1.78,0-3.22-1.44-3.22-3.22v-17.44c0-.44.36-.81.81-.81ZM33.14,26.14l-1.89-1.91c-.31-.32-.82-.32-1.14,0l-7.11,7.06-3.08-3.11c-.31-.32-.82-.32-1.14,0l-1.91,1.89c-.32.31-.32.82,0,1.14l5.54,5.59c.31.32.82.32,1.14,0l9.59-9.51c.32-.31.32-.82,0-1.14h0Z"/>
</svg>