<svg xmlns="http://www.w3.org/2000/svg" viewBox="0 0 103.65 92.33">
  <path d="M35.47,64.42c.13-.6.75-3.27,1.37-3.3L67,59.83A.92.92,0,0,1,67.89,61l-1.66,4.6-30.08.64Z" fill="#0b0c0c" stroke="#1d1d1b" stroke-miterlimit="10" stroke-width="1.42"/>
  <g>
    <path d="M39.8,58.41c0,7.32-5.92,17.11-6,24.43a17.06,17.06,0,0,0,.62,5.73,7.41,7.41,0,0,0,4.16,4.5,15.82,15.82,0,0,0,4.85.84c7.52.51,15.44,1,22.27-1.63a8.56,8.56,0,0,0,2.77-1.53A5.28,5.28,0,0,0,70,88.2c.63-2.24.15-4.56-.33-6.82C68.32,75,64.35,64.83,63,58.41Z" fill="#c78a52"/>
    <path d="M38.39,58.41c-.12,6.56-3.63,12.7-5.19,19-1.51,6.09-1.6,15,5.65,17.27a25.24,25.24,0,0,0,5.94.75c1.94.13,3.87.24,5.82.29a49.32,49.32,0,0,0,11.57-.9c3.3-.72,7.35-1.82,8.83-5.2s.44-7.23-.43-10.59c-1.83-7.07-4.68-13.85-6.23-21A1.44,1.44,0,0,0,63,57H39.8a1.42,1.42,0,0,0,0,2.84H63l-1.36-1c1.26,5.79,3.38,11.37,5.11,17a48.59,48.59,0,0,1,2.1,8.74A6.77,6.77,0,0,1,68,89.16c-1,1.44-3.13,2-4.73,2.43-6.67,1.92-13.93,1.4-20.76.84a8.42,8.42,0,0,1-4.92-1.59,6.68,6.68,0,0,1-2.16-3.94A20.8,20.8,0,0,1,36,77.79c1.66-6.42,5.07-12.64,5.19-19.38A1.42,1.42,0,0,0,38.39,58.41Z" fill="#1d1d1b"/>
  </g>
  <g>
    <path d="M60.23,9.65a6.12,6.12,0,0,0-2-.7,58.92,58.92,0,0,0-10.46-.68c-3.81.06-7.86,1.07-10.55,3.78a15.22,15.22,0,0,0-3.14,5.68c-2.87,8-1.53,12.37-1.8,20.82C32.2,40.12,35,51,35.64,52.44a35.81,35.81,0,0,0,5.78,9.14c5.75,6.42,13.08,6.83,18.92.5,3.31-3.58,4.49-4.19,6.32-8.44a102.81,102.81,0,0,0,5-16.31,25.25,25.25,0,0,0,0-9C70.23,19.77,69,15.9,62.24,10.84a6.62,6.62,0,0,0-.71-.46Z" fill="#c78a52" stroke="#1d1d1b" stroke-miterlimit="10"/>
    <g opacity="0.72">
      <path d="M37.92,11.77a64.6,64.6,0,0,0-3.28,5.62,38.2,38.2,0,0,0-1.72,4.73c-.43,1.81.16,1.63-.3,3.69-.15.64-.18,6.15-.18,6.15l2.76-.81c1.13-.26,1.13-.35,1.57-1.44s.92-2.31,1.51-3.75a15.56,15.56,0,0,0,1-4.18,12.53,12.53,0,0,1,2.18-3.69c1.39-1.39.17-3.74-1-5.32C40.43,12.77,38.19,11.33,37.92,11.77Z" fill="#4a4a49"/>
      <path d="M37.38,11.45c-1,1.62-2,3.2-2.93,4.88a28.81,28.81,0,0,0-1.23,2.93A13.69,13.69,0,0,0,32.15,23c-.09.94,0,1.8-.15,2.75a15.61,15.61,0,0,0-.12,2.06q-.06,2.1-.06,4.2a.62.62,0,0,0,.79.6L34.45,32a9,9,0,0,0,1.87-.58c.79-.43,1-1.5,1.34-2.28a41.81,41.81,0,0,0,1.66-4.32c.28-1,.3-2,.54-3a10.92,10.92,0,0,1,1.21-2.3c.63-1,1.52-1.61,1.59-2.84a6.17,6.17,0,0,0-1.12-3.41,4.06,4.06,0,0,0-1.86-1.69c-.62-.32-1.58-.87-2.2-.28s.3,1.44.88.88c-.29.06-.32.11-.1.13l.34.13a5.44,5.44,0,0,1,.54.27,4.16,4.16,0,0,1,.91.53,5.26,5.26,0,0,1,1.36,3.44c-.08.69-.63,1.11-1,1.64a12.26,12.26,0,0,0-1,1.63,6.29,6.29,0,0,0-.78,2,17,17,0,0,1-.92,3.85c-.3.76-.62,1.53-.93,2.29A11.53,11.53,0,0,1,36,30c-.33.52-1.18.58-1.76.75l-1.93.57.8.6c0-1.33,0-2.67,0-4,0-1.56.26-3,.26-4.6a10.71,10.71,0,0,1,1-3.62,26.63,26.63,0,0,1,1.27-3c.87-1.61,1.88-3.14,2.83-4.7C38.88,11.4,37.8,10.77,37.38,11.45Z" fill="#4a4a49"/>
    </g>
    <g opacity="0.72">
      <path d="M58.35,16.56a2.69,2.69,0,0,0,.33,1.8c.93,1.56,5,4.93,5.55,5.83a30.12,30.12,0,0,1,2.51,6.3l5,1.07a22.47,22.47,0,0,0-1-4.86c-.34-1.08-.41-3-.86-4.08-.38-.88-.58-2.16-1-3a34.67,34.67,0,0,0-1.65-3.19,6.72,6.72,0,0,0-2-2.44l-3.06-3.11C61.09,11.66,58.35,16.56,58.35,16.56Z" fill="#4a4a49"/>
      <path d="M57.72,16.56c-.26,2.55,2.45,4.45,4.09,6a10.38,10.38,0,0,1,2.07,2.27,31.08,31.08,0,0,1,2.26,5.81.63.63,0,0,0,.44.44l5,1.08c.35.07.84-.18.79-.61a26.8,26.8,0,0,0-.73-4c-.36-1.29-.57-2.54-.82-3.85A30.77,30.77,0,0,0,69.71,20a19.89,19.89,0,0,0-1.51-3.2,13.81,13.81,0,0,0-1.38-2.23c-.39-.47-.89-.86-1.32-1.29-1-.95-1.88-1.92-2.82-2.87a.63.63,0,0,0-.88,0,11.9,11.9,0,0,0-2.42,3.2c-.54.87-1.07,1.75-1.57,2.65a.63.63,0,0,0,1.08.63c.46-.83,1-1.65,1.45-2.46a11.7,11.7,0,0,1,2.34-3.14H61.8L64.48,14c.4.41.85.77,1.24,1.19a10.89,10.89,0,0,1,1.28,2,24,24,0,0,1,2.55,6.59c.24,1.15.34,2.32.67,3.46a25.28,25.28,0,0,1,.89,4.32l.79-.6-5-1.08.44.44c-.86-2.78-1.69-5.75-3.82-7.83-.88-.86-1.8-1.69-2.67-2.57S58.82,18,59,16.56C59.05,15.76,57.8,15.77,57.72,16.56Z" fill="#4a4a49"/>
    </g>
    <path d="M58.93,32.32a4.82,4.82,0,0,0-1.32,1.26,3.13,3.13,0,0,0-.43,1,5.34,5.34,0,0,0-.32,1.85c0,1.44.2,2.8.87,3.51,1.11,1.17,3.15,1.16,4.78,1.22a3.4,3.4,0,0,0,1.59-.22,3.38,3.38,0,0,0,1.49-2.76A4.11,4.11,0,0,0,65.45,36a5.59,5.59,0,0,0-.57-1.18,9,9,0,0,0-1.45-1.73c-1.43-1-1.66-1.23-3.45-1Z" fill="#fff" stroke="#1d1d1b" stroke-miterlimit="10"/>
    <path d="M43.31,33a2.5,2.5,0,0,0-.6-.27,8.76,8.76,0,0,0-2.27-.33,5,5,0,0,0-1.79.67,4.05,4.05,0,0,0-2,3.3c-.19,1.46.07,3.15,1.2,4a4.44,4.44,0,0,0,2.3.7,20.75,20.75,0,0,0,3.25.15,2.34,2.34,0,0,0,1.34-.74,7.1,7.1,0,0,0,1-1.24c.8-2.86.81-4.3-1.65-5.75Z" fill="#fff" stroke="#1d1d1b" stroke-miterlimit="10"/>
    <circle cx="41.23" cy="36.79" r="1.76" fill="#1d1d1b" stroke="#1d1d1b" stroke-miterlimit="10" stroke-width="0.25"/>
    <circle cx="61.1" cy="36.79" r="1.76" fill="#1d1d1b" stroke="#1d1d1b" stroke-miterlimit="10" stroke-width="0.25"/>
    <path d="M51.34,36.75A4.4,4.4,0,0,0,50,38a20,20,0,0,0-1.47,2,13.74,13.74,0,0,0-1.41,3.21,15.5,15.5,0,0,0-.46,1.65,7.09,7.09,0,0,0-.44,2.36,2,2,0,0,0,1.13,1.71,5,5,0,0,0,1.54.63,5.09,5.09,0,0,0,1.1-.13,5.17,5.17,0,0,1,.88,0c1.21.08,2.23-.68,3.36-1a.62.62,0,0,0-.33-1.2c-.86.23-1.64.77-2.51.92a6.42,6.42,0,0,1-1,0,5.06,5.06,0,0,0-.87.12l-.35,0s-.3,0-.18,0,0,0-.09,0a3.29,3.29,0,0,0-.39-.17c-.25-.11-.5-.21-.74-.34s-.29-.32-.34-.67a7.38,7.38,0,0,1,.45-2.09,8.93,8.93,0,0,1,.39-1.34,13.45,13.45,0,0,1,1.09-2.68,17.24,17.24,0,0,1,1.32-1.85A4.32,4.32,0,0,1,52,37.83c.73-.34.1-1.42-.63-1.08Z" fill="#1d1d1b"/>
    <path d="M43.54,53.64a21.47,21.47,0,0,1,14.77-2.4c7.35,1.2-.73,13.27-.73,13.27s-6.17-12-12,.46C45.21,65.69,38,56.47,43.54,53.64Z" fill="#4a4a49" stroke="#4a4a49" stroke-miterlimit="10" stroke-width="0.25" opacity="0.6"/>
    <path d="M43.54,53.64a21.47,21.47,0,0,1,14.77-2.4c7.35,1.2-.73,13.27-.73,13.27a11,11,0,0,1-12,.46C44.87,64.56,38,56.47,43.54,53.64Z" fill="#4a4a49" stroke="#4a4a49" stroke-miterlimit="10" stroke-width="0.25" opacity="0.6"/>
    <path d="M46.21,56.88c2.08.49,4.25-.05,6.29-.53A13.24,13.24,0,0,0,58,54.08c.62-.51-.27-1.39-.89-.89a12.05,12.05,0,0,1-5,2c-1.8.42-3.78,1-5.62.53-.79-.19-1.12,1-.34,1.2Z" fill="#1d1d1b"/>
    <path d="M62.17,36a.63.63,0,0,0,0-1.25.63.63,0,0,0,0,1.25Z" fill="#fff"/>
    <path d="M42.42,36a.63.63,0,0,0,0-1.25.63.63,0,0,0,0,1.25Z" fill="#fff"/>
    <path d="M60.23,9.65a6.12,6.12,0,0,0-2-.7,58.92,58.92,0,0,0-10.46-.68c-3.81.06-7.86,1.07-10.55,3.78a15.22,15.22,0,0,0-3.14,5.68c-2.87,8-1.53,12.37-1.8,20.82C32.2,40.12,35,51,35.64,52.44a35.81,35.81,0,0,0,5.78,9.14c5.75,6.42,13.08,6.83,18.92.5,3.31-3.58,4.49-4.19,6.32-8.44a102.81,102.81,0,0,0,5-16.31,25.25,25.25,0,0,0,0-9C70.23,19.77,69,15.9,62.24,10.84a6.62,6.62,0,0,0-.71-.46Z" fill="none" stroke="#1d1d1b" stroke-miterlimit="10"/>
  </g>
  <g>
    <path d="M74.81,183.88c-5,2.6-8.29-.79-10-.43-1.08.22-2,1-3.06,1.2-.48.08-1,0-1.47.09-1.32.18-2.49,1.2-3.83,1.14a5.24,5.24,0,0,1-1.79-.55,8.91,8.91,0,0,0-2.59-.83,21.06,21.06,0,0,0-3,.16c-.82,0-1.64,0-2.44.07-.53.07-1,.22-1.57.25a6.56,6.56,0,0,1-1.4-.11c-1.8-.28-8.31-1.82-10.1-2.18L39.24,72.21c.64.33,3.17,1.05,3.71,1.54,4.51,4,13.32,3.17,20.94-1.54Z" fill="#b2b2b2"/>
    <path d="M74.49,183.33c-2.85,1.4-5.18.75-8-.23a3.34,3.34,0,0,0-2.39-.11c-.66.24-1.25.64-1.91.87s-1.63.14-2.44.34a18.4,18.4,0,0,0-2.07.79,3.65,3.65,0,0,1-2.92-.3,9.43,9.43,0,0,0-5-.71c-.94.08-1.89,0-2.83.09a11.91,11.91,0,0,1-3,.19c-.91-.14-1.8-.35-2.7-.54-2.47-.54-4.92-1.14-7.4-1.64l.47.61.56-11,1.34-26.27,1.63-32,1.4-27.57.46-9.06.14-2.85a5.74,5.74,0,0,0,.08-1.49,1.28,1.28,0,0,1,0-.19l-1,.55c.76.35,1.56.59,2.34.88A11.26,11.26,0,0,1,43.59,75a12.22,12.22,0,0,0,5.78,1.86c5.21.44,10.46-1.48,14.84-4.14l-.95-.55,1.08,11.1L66.94,110l3.17,32.37,2.71,27.77c.45,4.52.66,9.12,1.33,13.61a1.1,1.1,0,0,1,0,.18c.08.81,1.35.82,1.28,0l-1.09-11.09-2.6-26.65-3.17-32.37L65.88,86c-.44-4.51-.66-9.12-1.33-13.6a1.23,1.23,0,0,1,0-.19.65.65,0,0,0-1-.55c-4.2,2.56-9.21,4.4-14.2,4a10.6,10.6,0,0,1-5.56-2c-1.3-1-2.78-1.28-4.25-2a.64.64,0,0,0-1,.55L38,83.26l-1.33,26.27-1.63,32-1.4,27.56-.46,9.06c-.08,1.42-.29,2.92-.23,4.34a1.2,1.2,0,0,1,0,.19.64.64,0,0,0,.46.62c2.29.46,4.56,1,6.84,1.51,1,.22,2,.45,3,.63,1.73.29,3.33-.14,5.06-.14,1,0,1.9-.17,2.86-.19a7.66,7.66,0,0,1,3.28.83,4.59,4.59,0,0,0,4,.07,7.33,7.33,0,0,1,2.5-.68,5.59,5.59,0,0,0,2.09-.48,5.37,5.37,0,0,1,2-.8,3.74,3.74,0,0,1,1.27.34c3.06,1.12,5.7,1.53,8.75,0C75.87,184.07,75.22,183,74.49,183.33Z" fill="#1d1d1b"/>
  </g>
  <g>
    <path d="M38.47,72.21s9,12.1,12.42,9.89,13.17-3.86,13-7.71" fill="none" stroke="#1d1d1b" stroke-linejoin="round" stroke-width="1.42"/>
    <polygon points="48.89 80.66 48.89 87.96 50.91 87.96 50.58 80.89 48.89 80.66" fill="#383838" stroke="#1d1d1b" stroke-linejoin="round" stroke-width="1.42"/>
    <polygon points="46.6 86.69 53.7 86.69 54.86 89.82 44.51 89.82 46.6 86.69" fill="#383838" stroke="#1d1d1b" stroke-linejoin="round" stroke-width="1.42"/>
  </g>
  <g>
    <g>
      <path d="M39,144.9c-.21-2,.4-3.94.69-5.92.84-5.9-1.25-11.8-1.78-17.74a67.55,67.55,0,0,1,.27-11.55,15.09,15.09,0,0,1,.93-4.87c.45-1,1.12-1.93,1.65-2.93,1.87-3.56,1.68-7.86,1-11.84s-1.71-8-1.42-12c.18-2.5.89-5,.77-7.47a11.52,11.52,0,0,0-3.39-7.54l-.35-.63a1.6,1.6,0,0,0-.7-.79,1.56,1.56,0,0,0-1.4.44,26.22,26.22,0,0,0-2.7,2.36,3,3,0,0,0-.77,1,2.18,2.18,0,0,0,0,1.24l-.25.27c-1.1,2-3.38,3-5.47,4-6,2.75-9.19,5.36-14.32,9.5C10,81.9,8.68,85.33,7.39,87.17s-3.83,5.66-4.25,8.16c-.72,4.35-3.23,5.53-4.58,9.59C-3.09,109.85-3.5,115-4.26,120c-.19,1.22-.78,2.34-1.07,3.54a27.14,27.14,0,0,0-.54,4.13l-.93,11.47c-.56,6.78-1.1,15.64,0,22.35.3,1.83.79,3.78,2.2,5s3.55,1.35,5.47,1.34a110.91,110.91,0,0,0,13.38-.87,1.33,1.33,0,0,0,.95-.41c.27-.39.05-.92-.14-1.36a25.64,25.64,0,0,1-1.77-8,73.43,73.43,0,0,1-.44-12.83,48.39,48.39,0,0,1,1.28-6.73c2.65-10.78,5.43-21,9.61-31.27l.62-3c-1.25,6.62-.15,15,.51,21.79a102.68,102.68,0,0,1,.28,11.77c-.11,8.31-.22,18.62-.33,26.93,0,3.26-.09,9.55-.94,12.69-.52,1.91-1.29,4.11-.15,5.72,1.43,2,4.67,1.43,6.6,3,1.17.92,1.67,2.45,2.6,3.61s2.85,1.85,3.8.7a3.26,3.26,0,0,0,.53-1.92L38,176.69a58.08,58.08,0,0,1,1.51-10.34c.72-3.08,1.3-8.89.74-12C39.84,152.31,39.18,147,39,144.9Z" fill="#0b0c0c"/>
      <path d="M39.59,144.9a22,22,0,0,1,.59-5.29,22.9,22.9,0,0,0,.26-4.82A84.34,84.34,0,0,0,39,125.05a47.76,47.76,0,0,1-.59-10.55c.17-3.42,0-7.43,1.77-10.48a17.1,17.1,0,0,0,2.6-7.68,38,38,0,0,0-1-9.32,33,33,0,0,1-.66-10.89c.44-3,.93-5.93-.1-8.86A12.59,12.59,0,0,0,39,63.49c-.49-.59-.87-1.23-1.34-1.83A1.58,1.58,0,0,0,36.3,61c-1.3,0-2.68,1.61-3.54,2.41-1.14,1.07-1.87,1.91-1.6,3.53l.16-.62a12.91,12.91,0,0,1-2.79,2.78c-1.39.84-2.91,1.43-4.36,2.15a52.36,52.36,0,0,0-8,5c-2.32,1.75-5,3.46-6.61,5.94-.82,1.28-1.45,2.66-2.24,4-.62,1-1.36,2-2,3.06A28.78,28.78,0,0,0,3.23,93c-.54,1.26-.69,2.58-1.11,3.87-.88,2.65-3,4.69-4,7.3a50.62,50.62,0,0,0-2.42,11.29,34,34,0,0,1-.9,5.52,25.59,25.59,0,0,0-1.2,5c-.78,7.4-1.39,14.91-1.64,22.35a79.17,79.17,0,0,0,.25,10.78c.29,2.75.6,6.16,3,7.95s6.5,1.33,9.45,1.22q3-.12,6-.4c.95-.09,1.91-.19,2.86-.3a4.05,4.05,0,0,0,1.85-.46c1.25-.9,0-2.64-.3-3.67A28.57,28.57,0,0,1,14,157.62a89.54,89.54,0,0,1-.63-9.68,44,44,0,0,1,1.51-10.63c1-3.87,1.95-7.73,3-11.57s2.18-7.43,3.43-11.09c.63-1.85,1.3-3.68,2-5.51a22.53,22.53,0,0,0,1.21-3.46l.46-2.21-1.22-.34c-.93,5.16-.61,10.46-.13,15.65a158.75,158.75,0,0,1,.92,16.6c-.12,10.25-.19,20.5-.38,30.75,0,2.13-.11,4.26-.3,6.39s-.87,4.21-1.23,6.37c-.31,1.93.11,3.85,1.94,4.85s4.1.7,5.59,2.1S32,189.48,34,190.36a2.53,2.53,0,0,0,3.73-1.8,65.59,65.59,0,0,0,.58-8.17c.19-2.92.32-5.85.74-8.74.37-2.54,1-5,1.44-7.53a43.18,43.18,0,0,0,.53-7.36,50.93,50.93,0,0,0-.68-5.48c-.29-2.12-.56-4.25-.79-6.38-.08-.79-1.34-.8-1.26,0,.35,3.22.76,6.42,1.27,9.61a32.1,32.1,0,0,1-.73,11.67A96.16,96.16,0,0,0,37,181.13l-.25,3.94c-.07,1,.22,3.65-.85,4.23s-2.38-.67-2.91-1.47a22,22,0,0,0-1.73-2.62c-1.26-1.38-3.07-1.61-4.78-2.07a3.64,3.64,0,0,1-2.46-1.58c-.65-1.27-.15-2.85.2-4.14a46.51,46.51,0,0,0,1.14-11.29c.18-9.42.23-18.84.36-28.26,0-3,.1-6.07,0-9.11-.11-2.83-.45-5.64-.73-8.46C24.47,114.74,24,109,25,103.47c.14-.79-1.05-1.14-1.22-.34-.2,1-.33,2-.6,2.94-.64,2.27-1.74,4.48-2.52,6.7-1.73,4.9-3.23,9.87-4.59,14.88a132.09,132.09,0,0,0-3.63,15.16,54.52,54.52,0,0,0,.09,12.83,47,47,0,0,0,1,6.88c.15.58.32,1.16.52,1.73s.58,1.09.46,1.59-.33.44-.94.52l-1,.11-2.14.22q-4.06.36-8.13.44c-2.32,0-5.32.31-7-1.66-1.44-1.7-1.62-4.4-1.83-6.52a67.59,67.59,0,0,1-.3-7.12c0-4.73.37-9.44.75-14.15l.66-8.13a29.91,29.91,0,0,1,1.25-7.64c.83-2.37.94-5,1.3-7.48a58.71,58.71,0,0,1,1.47-7.54,20.14,20.14,0,0,1,2.75-6,14.38,14.38,0,0,0,2.3-5c.78-3.68,3.18-6.42,5-9.6.95-1.66,1.72-3.59,3.08-5a45.2,45.2,0,0,1,5.37-4.28,50.23,50.23,0,0,1,5.23-3.45c1.95-1.12,4-2,6-3a9.19,9.19,0,0,0,3.82-3.38,1.71,1.71,0,0,0,.21-.57c.11-.46,0-.91.24-1.32a3.33,3.33,0,0,1,.53-.59c.43-.42.87-.83,1.33-1.22.62-.54,1.5-1.58,2.33-.76.31.3.55.85.86,1.19a11.33,11.33,0,0,1,1.11,1.47,10.94,10.94,0,0,1,1.42,3.36c.62,2.64,0,5.27-.36,7.9-.69,5.35,1,10.41,1.58,15.68A18.66,18.66,0,0,1,41,99.63c-.68,2.25-2.33,4-2.93,6.3a39.55,39.55,0,0,0-.8,7.61,50.65,50.65,0,0,0,.05,8.17c.54,5.22,2.21,10.35,1.9,15.64-.15,2.54-1,5-.85,7.55C38.39,145.7,39.65,145.71,39.59,144.9Z" fill="#1d1d1b"/>
    </g>
    <g>
      <path d="M120.77,159.52a100.16,100.16,0,0,0-4.72-28c-3.49-10.11-8.82-19.47-12.75-29.41a62.94,62.94,0,0,0-4-9.2,49.72,49.72,0,0,0-4.63-6.2L85.79,76.08a23.76,23.76,0,0,0-4.06-4.14,38.91,38.91,0,0,0-4.3-2.47,38.64,38.64,0,0,1-4.51-3s0-.07,0-.11a.19.19,0,0,0-.1-.13c-.47-.45-.5-1.2-.82-1.76a3.62,3.62,0,0,0-.76-.85L69.34,61.9a5.79,5.79,0,0,1-1.14-1.23,1.15,1.15,0,0,0-.43-.49.88.88,0,0,0-.81.25,9.34,9.34,0,0,0-2,2.14,7.71,7.71,0,0,1-.81,1.07l-.65.45a1.41,1.41,0,0,1-.22.06l-.37.42a4,4,0,0,0,.08.91,50,50,0,0,0-1.37,9.41c-.08,3.73,2.76,6.32,1.29,9.67S66.17,94.05,65.7,97c-1.62,10.19,3.1,10.51,2.23,16.73-2.2,15.9,2.34,24.08,1.63,30.39-.21,1.79.69,3.79.64,5.59a59,59,0,0,0,.62,8.93c1.5,9.55.6,18.35-.28,25.71a11.67,11.67,0,0,0-.16,3.53,3,3,0,0,0,2.15,2.52c1.82.33,3.12-1.65,4.7-2.62,2.11-1.3,5-.8,7-2.32,1.75-1.36,3.38,3.31,2.32-6.08-1.79-16-4.67-27-3.56-53.38.33-7.93.59-15.68-1.65-23.29l-.71-2.89C87.72,111.73,92.44,125,96,138.38q.67,2.52,1.3,5.06c1.26,5.13,2.37,12.47,1.47,17.68-.19,1.13-.36,2.57.6,3.18a2.74,2.74,0,0,0,2,.12l18.39-3.56a1.31,1.31,0,0,0,.77-.32A1.38,1.38,0,0,0,120.77,159.52Z" fill="#0b0c0c"/>
      <path d="M121.4,159.52A106.35,106.35,0,0,0,119,139.64,100,100,0,0,0,112,120c-3.05-6.72-6.29-13.33-9-20.21a40.89,40.89,0,0,0-4.8-9.49c-2.16-3-4.64-5.76-7-8.59l-4.1-4.92a40.06,40.06,0,0,0-4-4.5,23,23,0,0,0-4.6-2.92,41.48,41.48,0,0,1-5.3-3.4l.29.71c.19-.63-.52-1.5-.75-2A8.12,8.12,0,0,0,70.43,62a12.12,12.12,0,0,1-1.68-1.68,2,2,0,0,0-.67-.72c-.83-.41-1.64.37-2.21.89-.83.77-1.31,1.87-2.13,2.62-.42.38-1,.46-1.29,1s-.15.6-.15,1.07a11.06,11.06,0,0,1-.33,2c-.3,1.46-.56,2.92-.74,4.39a15.45,15.45,0,0,0,.54,7.34,15.92,15.92,0,0,1,.85,2.86c.19,1.24-.3,2.14-.55,3.3-.77,3.55,2.05,7,2.87,10.34a6.36,6.36,0,0,1,0,2.46,22.65,22.65,0,0,0-.21,3.68,15.22,15.22,0,0,0,.89,4.68c.42,1.18,1,2.29,1.37,3.48a10,10,0,0,1,.24,4.48,62.1,62.1,0,0,0-.17,14.8c.39,3.43,1.12,6.81,1.63,10.23a20.92,20.92,0,0,1,.29,4,14.14,14.14,0,0,0,0,2.52,29.83,29.83,0,0,1,.58,4.09c0,5.24,1.05,10.33,1.32,15.54A100.22,100.22,0,0,1,70.18,182c-.25,2.25-1.1,5.06,0,7.19a3.09,3.09,0,0,0,4.43,1.37,18.24,18.24,0,0,0,2.25-1.77,8,8,0,0,1,3.71-1.43,12.06,12.06,0,0,0,3-.82c.46-.21.9-.71,1.42-.75s.95.36,1.48.25c.73-.16.91-.89,1-1.54a26.22,26.22,0,0,0-.37-5.73q-.31-2.75-.68-5.49c-.47-3.53-1-7.06-1.42-10.59a201.88,201.88,0,0,1-1.64-25.18c0-11.43,1.84-23.35-1.29-34.53-.31-1.11-.57-2.23-.84-3.35l-1.15.49c6.6,11.15,11.15,23.35,14.63,35.8,1.67,6,3.3,12,3.71,18.19a36.35,36.35,0,0,1,.06,4c0,1.33-.33,2.62-.43,3.93a3.07,3.07,0,0,0,.68,2.47c.9.87,2.19.58,3.29.37,3.87-.73,7.74-1.5,11.62-2.24,1.93-.38,3.87-.74,5.81-1.13,1.27-.25,1.94-.64,2-2a.63.63,0,0,0-1.25,0c0,.95-1.33.89-2,1L116,161l-5.09,1c-3.06.59-6.13,1.21-9.2,1.78-1,.19-2.22.42-2.38-1a5.48,5.48,0,0,1,.12-1.46,31.77,31.77,0,0,0,.34-3.52,47.33,47.33,0,0,0-.55-8,118.42,118.42,0,0,0-3.85-16.17c-1.62-5.59-3.45-11.12-5.61-16.53a126.24,126.24,0,0,0-8.59-17.61A.63.63,0,0,0,80,100a75.75,75.75,0,0,1,2.3,11.46,133.58,133.58,0,0,1,0,16.74,214.56,214.56,0,0,0,.66,27.19c.64,6.75,1.69,13.46,2.54,20.19.25,2,.5,4,.67,5.94.07.79.45,2.75,0,3.38.12-.17.17,0-.12-.13a2.58,2.58,0,0,0-.83-.19c-1.1-.08-1.92.85-2.93,1.16-2,.6-4.13.58-5.89,1.88A20.48,20.48,0,0,1,74,189.48c-1.48.79-2.71-.28-3-1.78a14,14,0,0,1,.27-4.12c.14-1.19.27-2.39.39-3.58.26-2.56.46-5.12.55-7.69a75.27,75.27,0,0,0-.12-8.09c-.19-2.64-.65-5.24-.92-7.87-.23-2.22-.3-4.42-.33-6.65a20.12,20.12,0,0,0-.48-3.37,12.4,12.4,0,0,1-.1-3,35.9,35.9,0,0,0-.94-8A76.2,76.2,0,0,1,68,124.1a60.86,60.86,0,0,1,.21-7.15,26.84,26.84,0,0,0,.4-5.86c-.3-2.44-1.73-4.55-2.27-6.94a17.35,17.35,0,0,1-.19-5.66,9.42,9.42,0,0,0-.44-4.85c-.63-1.7-1.44-3.34-2-5.08A8.11,8.11,0,0,1,63.23,86a21.48,21.48,0,0,1,.65-2.6c.28-1.91-.55-3.68-1.12-5.46-.84-2.64-.47-5.38,0-8.06.21-1.26.48-2.5.73-3.74a2.62,2.62,0,0,0,.11-.72c0-.22-.19-.32-.12-.52s.31-.23.49-.35a5,5,0,0,0,1.34-1.37,11.22,11.22,0,0,1,1.32-1.6c.23-.22.41-.47.76-.5s.48.22.77.55c.81.91,1.81,1.64,2.69,2.48a3.66,3.66,0,0,1,1,1.49c0,.07.41,1.14.53.74a.65.65,0,0,0,.29.71,40.83,40.83,0,0,0,4.31,2.87,34.27,34.27,0,0,1,4.76,2.79c2.71,2.12,4.8,5.18,7,7.81,2.42,2.9,4.89,5.78,7.25,8.73a36.9,36.9,0,0,1,5.46,9.59c2.59,6.53,5.46,12.89,8.42,19.27a111.49,111.49,0,0,1,7.38,19.4,103.57,103.57,0,0,1,3,22C120.17,160.33,121.43,160.33,121.4,159.52Z" fill="#1d1d1b"/>
    </g>
    <g>
      <path d="M39.24,66.34a3.89,3.89,0,0,1-.68,2.06,36.84,36.84,0,0,0-3.33,8.54c-.1.4-.19.8-.29,1.2a3.16,3.16,0,0,1-.76-2.26,25.73,25.73,0,0,0-2-7.91,3.52,3.52,0,0,1-.43-2.49,3,3,0,0,1,.77-1,26.22,26.22,0,0,1,2.7-2.36,1.56,1.56,0,0,1,1.4-.44,1.6,1.6,0,0,1,.7.79l1.8,3.28Z" fill="#0b0c0c"/>
      <path d="M38.61,66.34c0,1-.76,2-1.21,2.92s-.84,1.8-1.21,2.72a39.49,39.49,0,0,0-1.85,6l1-.28c-.63-.6-.56-1.61-.64-2.42a25.4,25.4,0,0,0-.46-2.86,24.71,24.71,0,0,0-.76-2.77c-.32-.94-.78-1.84-1.07-2.79-.37-1.21.38-1.84,1.19-2.6.36-.34.74-.67,1.12-1A4.56,4.56,0,0,1,36,62.32c.64-.21.86.52,1.1,1l.75,1.36c.2.36.49.76.64,1.1a2.59,2.59,0,0,1,.1.59c.09.8,1.35.81,1.26,0a5.47,5.47,0,0,0-.1-.8,9.73,9.73,0,0,0-1-1.8c-.46-.82-.91-2.21-1.83-2.65s-2,.39-2.75,1a12.86,12.86,0,0,0-2.73,2.63,3.26,3.26,0,0,0,0,3.16,29.82,29.82,0,0,1,1.37,4,26,26,0,0,1,.68,4,3.94,3.94,0,0,0,1,2.7.63.63,0,0,0,1-.28,40.54,40.54,0,0,1,2-6.26C37.94,71,38.43,70,39,69a5.61,5.61,0,0,0,.91-2.64A.63.63,0,0,0,38.61,66.34Z" fill="#1d1d1b"/>
    </g>
    <g>
      <path d="M62.89,64.57a7,7,0,0,0,1,3.29,29.56,29.56,0,0,1,3,9.65q1.22-2.62,2.39-5.28a16.6,16.6,0,0,1,1.32-2.59c.72-1.08,1.7-2,2.35-3.12a.23.23,0,0,0,0-.14.19.19,0,0,0-.1-.13c-.47-.45-.5-1.2-.82-1.76a3.62,3.62,0,0,0-.76-.85L69.34,61.9a5.79,5.79,0,0,1-1.14-1.23,1.15,1.15,0,0,0-.43-.49.88.88,0,0,0-.81.25,9.34,9.34,0,0,0-2,2.14c-.45.65-.91,1.43-1.68,1.58Z" fill="#0b0c0c"/>
      <path d="M62.27,64.57c0,2.15,1.39,4.13,2.16,6.07a26.87,26.87,0,0,1,1.79,6.87c.07.55.88.95,1.18.32.66-1.45,1.32-2.89,2-4.35a21.14,21.14,0,0,1,1.9-3.77c.44-.61,1-1.16,1.41-1.75a3.68,3.68,0,0,0,.88-1.41c.06-.49-.31-.74-.51-1.16a7.67,7.67,0,0,0-.68-1.52,28.31,28.31,0,0,0-3-2.79c-.7-.68-1.15-1.94-2.34-1.43a7.28,7.28,0,0,0-2.63,2.6,4,4,0,0,1-1.31,1.3,2.52,2.52,0,0,0-.64.58c-.53.61.36,1.5.89.89.32-.37.29-.27.67-.48a3.66,3.66,0,0,0,1.06-1.05c.35-.49,2-3,2.59-2.5.41.32.73.9,1.13,1.26l1.55,1.4a4.06,4.06,0,0,1,1.36,1.69,5.34,5.34,0,0,0,.71,1.36l-.06-.49a9.87,9.87,0,0,1-1.89,2.5,12.58,12.58,0,0,0-1.41,2.4c-.93,2-1.81,4.07-2.74,6.08l1.17.32a27.41,27.41,0,0,0-1.61-6.61c-.39-1.05-.83-2.07-1.31-3.08a7.53,7.53,0,0,1-1-3.25A.63.63,0,0,0,62.27,64.57Z" fill="#1d1d1b"/>
    </g>
  </g>
</svg>
