<?xml version="1.0" encoding="UTF-8"?>
<svg id="Layer_1" data-name="Layer 1" xmlns="http://www.w3.org/2000/svg" version="1.1" viewBox="0 0 50 50">
  <defs>
    <style>
      .cls-1 {
        fill: #000;
        stroke-width: 0px;
      }
    </style>
  </defs>
  <path class="cls-1" d="M29.5,27.3h3.4v6.4l5.5,3.2-1.7,3-7.3-4.2v-8.4M38.6,15.9H6.8v25h10.6c-1-2.1-1.5-4.4-1.5-6.8,0-8.8,7.1-15.9,15.9-15.9s4.8.5,6.8,1.5v-3.8M6.8,45.5c-2.5,0-4.5-2-4.5-4.5V9.1c0-2.5,2-4.5,4.5-4.5h2.3V0h4.5v4.5h18.2V0h4.5v4.5h2.3c2.5,0,4.5,2,4.5,4.5v13.9c2.8,2.9,4.5,6.8,4.5,11.1,0,8.8-7.1,15.9-15.9,15.9s-8.3-1.7-11.1-4.5H6.8M31.8,23.1c-6.1,0-11,4.9-11,11h0c0,6.1,4.9,11,11,11s11-4.9,11-11h0c0-6.1-4.9-11-11-11Z"/>
</svg>