<?xml version="1.0" encoding="UTF-8"?>
<svg id="Layer_1" data-name="Layer 1" xmlns="http://www.w3.org/2000/svg" viewBox="0 0 25 25">
  <defs>
    <style>
      .cls-1 {
        fill: #231f20;
        fill-rule: evenodd;
      }
    </style>
  </defs>
  <path class="cls-1" d="M7.85,4.03c-.51.12-1.03.25-1.54.37-2.24.85-4.07,2.39-5.01,4.52-.28.64-.49,1.34-.66,2.09-.4,1.81.1,3.77.63,5.01,1.36,3.15,4.12,5.16,8.64,5.09,0-.88.02-1.76.03-2.63-1,.28-2.29-.07-2.98-.34-2.12-.86-4.51-3.32-3.78-6.66.44-2.01,1.53-3.4,3.15-4.23.79-.41,2.29-1,3.6-.63v-2.6c-.38-.02-.76-.04-1.14-.06-.32.03-.63.06-.94.09M24.5,6.57v-2.57c-1.29-.35-3.17.25-4.03.6-3.09,1.27-6.54,5.29-5.09,10.13,1.17,3.9,4.05,6.46,9.12,6.38v-2.6c-3.94.08-5.69-1.68-6.66-4.63v-.03h5v-2.6h-5c.69-3.01,2.93-4.74,6.66-4.66"/>
</svg>