<svg id="Layer_1" data-name="Layer 1" xmlns="http://www.w3.org/2000/svg" width="20.81mm" height="23.39mm" viewBox="0 0 58.99 66.3">
  <g>
    <path d="M23.49,56.69l-.27,0a10.26,10.26,0,0,1-1.36-.13,10.09,10.09,0,0,1-1.12-.23,5.3,5.3,0,0,1-.67-.23,1.17,1.17,0,0,0-.24-.09.33.33,0,0,0-.3.07,10,10,0,0,1-2.24,1.25,10.93,10.93,0,0,1-1.74.54c-.43.09-.86.14-1.3.19s-.87,0-1.3.05l-.72,0a2.93,2.93,0,0,1-1-.07,1.35,1.35,0,0,1-.46-.24,3.34,3.34,0,0,1-1.06-1.41,2.66,2.66,0,0,1-.15-1.37c0-.12,0-.25.07-.37a1.4,1.4,0,0,1,.58-.91c.35-.23.69-.46,1-.67.65-.4,1.28-.81,1.89-1.26a3.66,3.66,0,0,0,.74-.73A7.08,7.08,0,0,0,14.6,50a1.16,1.16,0,0,0,.14-.48c0-.34,0-.68,0-1,0-.05-.1-.05-.16-.07a4.94,4.94,0,0,0-.87-.15,11.29,11.29,0,0,0-1.74-.1,7.87,7.87,0,0,0-1.08.09,7.19,7.19,0,0,0-.8.2.33.33,0,0,0-.16.15c-.29.48-.58,1-.85,1.45-1,1.81-1.88,3.66-2.69,5.55-.22.5-.43,1-.65,1.52,0,0,0,.08,0,.13a.66.66,0,0,0-.09.28.14.14,0,0,1-.2.1.37.37,0,0,1-.12-.07A4.21,4.21,0,0,1,5,57.21a5.57,5.57,0,0,1-.88-1.46c-.14-.35-.29-.71-.41-1.07a6.78,6.78,0,0,1-.33-1.61c-.05-.44-.09-.89-.11-1.34s0-.84,0-1.27a8.2,8.2,0,0,1,.1-.85,3.06,3.06,0,0,1,0-.32A4.29,4.29,0,0,1,3.75,48l.34-.75a1.56,1.56,0,0,1,.27-.4L5,46.27l.46-.5c.57-.62,1.14-1.25,1.74-1.84s1.13-1.14,1.7-1.72l0-.05a4.55,4.55,0,0,1-.27-.64,4.7,4.7,0,0,1-.18-.74,1.16,1.16,0,0,0,0-.18,2.85,2.85,0,0,1-.08-.92,2.2,2.2,0,0,1,.6-1.43A.78.78,0,0,1,9.43,38a14.84,14.84,0,0,0,1.49-.21s0,0-.05-.06l-.95-.33a10.25,10.25,0,0,1-4.2-3c-.38-.45-.78-.89-1.15-1.35s-.82-1.1-1.2-1.68a10.35,10.35,0,0,1-1-2.12,13.69,13.69,0,0,1-.66-2.83,15.1,15.1,0,0,1-.1-2.69c0-.45,0-.91.09-1.36a6.69,6.69,0,0,1,.91-2.74,7.64,7.64,0,0,1,3.51-3,13.35,13.35,0,0,1,2-.72,8.54,8.54,0,0,1,1.58-.26h.51v0s0,0,0,0a.46.46,0,0,1-.07-.07L9.51,15l-.25-.24-.12,0a2,2,0,0,1-1.35.07,2.79,2.79,0,0,1-.92-.44,2.54,2.54,0,0,1-1-1.71,3.07,3.07,0,0,1,.36-2c.07-.12.13-.24.2-.35A2.36,2.36,0,0,1,8,9.28a3.42,3.42,0,0,1,.7-.08,1.85,1.85,0,0,1,1.28.55,3.7,3.7,0,0,1,.68.94,7.53,7.53,0,0,1,.41,1,1.75,1.75,0,0,1,0,1.13s0,.07,0,.11l4-.69V12.1c0-.25,0-.5,0-.75s0-.43,0-.64a14,14,0,0,1,.08-2.15c.05-.4.14-.8.22-1.2,0-.22.12-.44.18-.67l-.13-.05a1.64,1.64,0,0,1-1-.74A2.74,2.74,0,0,1,14,3.74a2.63,2.63,0,0,1,.67-1.15,4,4,0,0,1,1.22-.85,2.12,2.12,0,0,1,1.29-.15,1.9,1.9,0,0,1,1.2.83A5.47,5.47,0,0,1,19,3.58a2.24,2.24,0,0,1,0,1.23,3.18,3.18,0,0,1-.08.33c0,.1-.08.2-.12.31l1.39.87,1.41.89a14.35,14.35,0,0,1,1.79,1.4l.12.11h0l.05,0c.18-.17.38-.33.54-.51s.61-.66.89-1,.49-.73.74-1.1c0,0,0,0,0,0l0,0a2.33,2.33,0,0,1-.68-.75C25,5.09,25,5,24.88,4.8a1.64,1.64,0,0,1-.16-1.13,3.59,3.59,0,0,1,.67-1.49,2.25,2.25,0,0,1,1-.79,1.86,1.86,0,0,1,1.14-.11,2,2,0,0,1,.7.35A2.64,2.64,0,0,1,29.19,3a3.83,3.83,0,0,1,.18,1,2.07,2.07,0,0,1-.23,1,2.2,2.2,0,0,1-.35.51.61.61,0,0,1-.28.19.66.66,0,0,0,0,.28c.07.52.12,1,.16,1.56.06,1.1.05,2.19,0,3.28v.16c.06,0,.06-.07.07-.1a6.53,6.53,0,0,1,1-2,8.09,8.09,0,0,1,1-1.23c.15-.14.3-.29.46-.42a3.52,3.52,0,0,1,2.59-.76,6.18,6.18,0,0,1,1.75.45A13.26,13.26,0,0,1,37.74,8l.6.41a7.52,7.52,0,0,1,1.8,1.76A10.32,10.32,0,0,1,41.2,12a21.34,21.34,0,0,1,.89,2,24.67,24.67,0,0,1,1,3.35c.08.41.18.81.25,1.22,0,.24.08.49.11.74s.08.63.11.95a.64.64,0,0,0,0,.09l0,0,.42,0,1.88.13a.61.61,0,0,1,0-.12l.24-.77a.17.17,0,0,1,.18-.13,1.87,1.87,0,0,1,.32,0c.71.14,1.42.32,2.12.51,1.23.32,2.45.68,3.67,1l.57.15c.31.08.33.18.29.47s-.11.71-.16,1.07l-.15.87c0,.09,0,.17,0,.29l0,0c.69.57,1.38,1.13,2.06,1.71.49.42,1,.84,1.44,1.31.09.1.19.19.27.29a.37.37,0,0,1,0,.48,1,1,0,0,1-.13.16L55.82,29a.26.26,0,0,0,0,.08c.57,1.3,1.15,2.6,1.72,3.91a14.9,14.9,0,0,1,.55,1.45.53.53,0,0,0,.06.1.26.26,0,0,1,0,.3L58,35a3.18,3.18,0,0,1-.32.16l-2.51,1.12c-1.11.5-2.23,1-3.36,1.45-.49.2-1,.44-1.47.64l-2.13.84-.26.1-.15,0a.19.19,0,0,1-.22-.16.74.74,0,0,0,0-.14c-.34-1-.63-1.91-.9-2.89-.15-.55-.3-1.1-.41-1.66q0-.15-.06-.33a.29.29,0,0,0-.08.07,7.9,7.9,0,0,1-.8,1c-.2.24-.39.49-.58.74a4.33,4.33,0,0,0-.27.37,22.18,22.18,0,0,1-2.13,2.7c-.72.82-1.47,1.62-2.26,2.37L39.4,42l-.71.63-.49.38a.62.62,0,0,0-.22.26c-.08.17-.18.33-.27.5a1.61,1.61,0,0,1,.07.49L38,46.64c0,.49.09,1,.14,1.46s.07.68.1,1l.09,1.23c0,.52.07,1,.1,1.58,0,.34,0,.68,0,1l.06,1.52,0,1a6.68,6.68,0,0,1-.07,1.18c0,.09-.05.13-.12.14a.19.19,0,0,1-.19-.09,2,2,0,0,0-.4-.46l-.08-.09a8.93,8.93,0,0,0-1.94-1.69,11.3,11.3,0,0,0-1.47-.86,8.09,8.09,0,0,0-1-.45l-.32-.08a1.42,1.42,0,0,0-.05.16,12.43,12.43,0,0,0-.27,1.6c-.05.55,0,1.1,0,1.65s0,1,0,1.55-.07,1-.13,1.52c0,.29-.07.58-.1.88l-.18,1.84c0,.12,0,.25,0,.38a2.09,2.09,0,0,0,0,.56.79.79,0,0,1-.18.59,2.12,2.12,0,0,1-.8.63,6.63,6.63,0,0,1-1.68.45A1.51,1.51,0,0,1,28,64.23a3.21,3.21,0,0,1-.19-.31,5.28,5.28,0,0,0-.66-1l-.55-.66-.18-.19a6.28,6.28,0,0,1-.81-.9,8.23,8.23,0,0,1-.77-1.15c-.26-.45-.52-.9-.76-1.37a4.86,4.86,0,0,1-.5-1.58C23.55,57,23.52,56.85,23.49,56.69ZM39,33.18a9.52,9.52,0,0,1,1.42-.73l.33-.15c.33-.16.66-.29,1-.42A9.29,9.29,0,0,0,43,31.33s.06,0,0-.08l-1.24,0h-.09c-.23,0-.3-.11-.27-.34s.08-.58.11-.86,0-.3,0-.49l-.11.15c-.2.29-.39.59-.6.88a2.24,2.24,0,0,1-.93.74l-.52.19a4.87,4.87,0,0,1-.67,1.14c.06.2.11.39.18.58Z"/>
    <path d="M29.81,37.41a2.89,2.89,0,0,0-1.47,1.21.59.59,0,0,1-.08-.08,2.2,2.2,0,0,0-.51-.45l-.64-.46a4.29,4.29,0,0,0-.94-.57c-.53-.24-1.06-.49-1.6-.72s-1-.45-1.5-.71a16.82,16.82,0,0,0-1.84-.81c-.41-.15-.83-.31-1.26-.42a4.8,4.8,0,0,0-1.69-.13,3.88,3.88,0,0,0-2.65,1.41,4.24,4.24,0,0,0-.46.65,1.82,1.82,0,0,0-.15.27,1.17,1.17,0,0,0-.11.67h-.12a4.33,4.33,0,0,0-1.43-.14l-.6.08a1,1,0,0,0-.65.34,6.53,6.53,0,0,1-.77-.14,12.16,12.16,0,0,1-2.18-.81A9.51,9.51,0,0,1,7.1,35.21,10.37,10.37,0,0,1,5.92,34c-.27-.32-.56-.63-.82-1a20.27,20.27,0,0,1-1.46-2,9.26,9.26,0,0,1-.83-1.74A13.55,13.55,0,0,1,2.2,27c-.09-.5-.13-1-.17-1.52a14.24,14.24,0,0,1,0-1.6,12.2,12.2,0,0,1,.19-2,5.48,5.48,0,0,1,.89-2.16c.18-.26.37-.53.57-.77a6.87,6.87,0,0,1,1.28-1.13A7,7,0,0,1,6.36,17,15.68,15.68,0,0,1,8,16.39a8.47,8.47,0,0,1,1.4-.28,6.63,6.63,0,0,1,1.26,0,13,13,0,0,1,2.63.45,14.65,14.65,0,0,1,1.62.54,6.51,6.51,0,0,1,1.7,1c.23.18.46.35.68.54s.16.15.25.23a.18.18,0,0,0,.27,0,3.73,3.73,0,0,0,.3-.26,9.7,9.7,0,0,1,.95-.77,11.46,11.46,0,0,1,2.05-1.27,15.88,15.88,0,0,1,3-1.07,9.17,9.17,0,0,1,1.27-.24c.46,0,.93-.11,1.39-.14a10.8,10.8,0,0,1,2.05,0,11.15,11.15,0,0,1,1.9.35,13.57,13.57,0,0,1,3,1.23,12.18,12.18,0,0,1,2,1.42A10.18,10.18,0,0,1,37,19.64a20.66,20.66,0,0,1,1.37,2,6.69,6.69,0,0,1,.52,1.08,14.3,14.3,0,0,1,.73,2.69c.06.35.13.7.18,1.05a9.21,9.21,0,0,1,.09,1.89,5.91,5.91,0,0,1-.14,1.11,4.84,4.84,0,0,1-.14.51,14.68,14.68,0,0,1-.85,1.9.64.64,0,0,1-.14.21s0,0-.06,0a9.09,9.09,0,0,0-1-2c-.08-.13-.16-.25-.25-.37a1.19,1.19,0,0,0-.53-.41.36.36,0,0,0-.25,0c0,.05,0,.07,0,.09a4.23,4.23,0,0,1,.76,1c.15.24.3.48.44.72a7.57,7.57,0,0,1,.65,1.56c.08.26.17.52.25.78,0,0,0,0,0,0,0,.23.12.44.14.66l.09.66a12.16,12.16,0,0,1,.06,1.91c0,.5,0,1-.1,1.5a22.35,22.35,0,0,1-.41,2.56,15,15,0,0,1-.49,1.74,7,7,0,0,1-.66,1.35,3.87,3.87,0,0,0-.21.34,7.62,7.62,0,0,1-.79,1l-.76.8a2.72,2.72,0,0,1-.61.46,4.92,4.92,0,0,1-1.28.52,4.51,4.51,0,0,1-1.55.13,6.13,6.13,0,0,1-1.47-.32l-1.09-.36a13.69,13.69,0,0,0-1.58-.46,4,4,0,0,1-1.28-.51c-.17-.11-.33-.23-.49-.35a1.37,1.37,0,0,1-.16-.18.85.85,0,0,1-.17-.86.46.46,0,0,1,.35-.31.21.21,0,0,1,.15,0l.33.16a3.35,3.35,0,0,0,.93.29,1.16,1.16,0,0,0,.71-.1l.26-.11a2.05,2.05,0,0,0,.46-.25c.12-.1.21-.09.33,0s.22.21.33.3a2.73,2.73,0,0,0,1.36.59,3.48,3.48,0,0,0,.79,0,2,2,0,0,0,1.07-.45A3,3,0,0,0,34,42.51a4.06,4.06,0,0,0,.18-1.39,3.65,3.65,0,0,0-.12-.87,2.67,2.67,0,0,0-.41-.89,5.59,5.59,0,0,0-1.15-1.18A5.15,5.15,0,0,0,31,37.39c-.18,0-.36-.13-.55-.19a5.48,5.48,0,0,1-1.17-.62,2.41,2.41,0,0,1-.36-.29,6.44,6.44,0,0,1-1-1.14,7.83,7.83,0,0,1-.47-.79.62.62,0,0,1-.08-.33,2.66,2.66,0,0,0,0-.28.28.28,0,0,0,0-.12.08.08,0,0,0-.08.06.6.6,0,0,0,0,.37,4.07,4.07,0,0,0,.34,1.09,3.73,3.73,0,0,0,.4.63,5.69,5.69,0,0,0,.91,1,4.25,4.25,0,0,0,.79.54Zm3.7-15.34a1.4,1.4,0,0,0-.16.2,3,3,0,0,0-.25.65c-.05.2-.06.41-.1.61a1.32,1.32,0,0,0,0,.59.09.09,0,0,0,0,.11c0,.1,0,.21.06.31a4.72,4.72,0,0,0,.81,1.67,2.38,2.38,0,0,0,.8.68,1.15,1.15,0,0,0,.6.14.61.61,0,0,0,.49-.28,1.35,1.35,0,0,0,.25-.7,4.82,4.82,0,0,0,0-.93,4,4,0,0,0-.11-.77c-.08-.26-.15-.53-.22-.79a4.15,4.15,0,0,0-.49-1.12,1.07,1.07,0,0,0-.38-.41,1.46,1.46,0,0,0-.73-.26A.55.55,0,0,0,33.51,22.07ZM23,24.57a.34.34,0,0,0-.13.18c0,.05,0,.1,0,.15s-.06.35-.08.53,0,.25,0,.38a4,4,0,0,0,.05.84.62.62,0,0,0,.1.35.18.18,0,0,0,0,.14,4.82,4.82,0,0,0,.71,1.78,1.84,1.84,0,0,0,.44.44.79.79,0,0,0,.44.16,2.84,2.84,0,0,0,.82-.1l.16-.06a1.61,1.61,0,0,0,.65-.59,1.07,1.07,0,0,0,.19-.6,2.35,2.35,0,0,1,0-.26,2.75,2.75,0,0,0,0-.7A9.52,9.52,0,0,0,26,26a2.29,2.29,0,0,0-.24-.59A4.21,4.21,0,0,0,25,24.5a1.75,1.75,0,0,0-.72-.42,1.19,1.19,0,0,0-1.05.18,2.83,2.83,0,0,0-.25.24S23,24.56,23,24.57Zm-7.53,3.82a.88.88,0,0,1,0,.15,3.3,3.3,0,0,0,.19.75c.09.22.18.44.28.65,0,0,0,0,0,0s.1,0,.1,0a.33.33,0,0,0,0-.1L16,29.49a6,6,0,0,1-.29-1.33c0-.54-.08-1.08-.11-1.62a4.87,4.87,0,0,1,0-.54c0-.4.06-.79.1-1.18s.07-.51.11-.76.07-.42.09-.64a4.72,4.72,0,0,0-.13-1.29,2.13,2.13,0,0,0-.62-1.1,5.69,5.69,0,0,0-2.1-1.28c-.33-.12-.67-.22-1-.31a6.88,6.88,0,0,0-1.81-.26c-.23,0-.45,0-.68,0a5.62,5.62,0,0,0-.7.1,6.42,6.42,0,0,0-2.09.84,3.72,3.72,0,0,0-.68.5A5.6,5.6,0,0,0,5,22.26a11.89,11.89,0,0,0-.61,1.53,5.57,5.57,0,0,0-.26,1.07,3.91,3.91,0,0,0,0,.48c0,.35,0,.71,0,1.06a1.45,1.45,0,0,0,.11.51.06.06,0,0,0,0,.05s0,0,0-.07a2.36,2.36,0,0,0,0-.46,3.05,3.05,0,0,1,0-.8c0-.11,0-.22,0-.34s.07-.35.11-.53c0,0,.07-.05.09-.09.12-.22.24-.43.34-.64a3.27,3.27,0,0,1,.8-1A2.43,2.43,0,0,1,6,22.82a4.37,4.37,0,0,1,1.16-.54c.2-.06.4-.12.6-.16a4.11,4.11,0,0,1,.6-.08,4.59,4.59,0,0,1,1,0c.22,0,.45.05.67.1a7.15,7.15,0,0,1,2,.72c.36.2.71.41,1.06.65a3.83,3.83,0,0,1,.84.77,3.27,3.27,0,0,1,.32.5,7.07,7.07,0,0,1,.4,1c.12.35.21.72.32,1.07,0,.15.08.3.13.45a6.77,6.77,0,0,1,.25.8.44.44,0,0,0,.09.18S15.45,28.36,15.48,28.39Z" fill="#8dafd5"/>
    <path d="M26.17,56.36a1.77,1.77,0,0,0-.46,0,8.35,8.35,0,0,1-1.73,0l-1.14-.1a10.16,10.16,0,0,1-2.18-.44l-.39-.16a1.44,1.44,0,0,0-.4-.13.72.72,0,0,0-.58.14,10.7,10.7,0,0,1-3.11,1.52,9.64,9.64,0,0,1-1.29.3l-.34,0a11.6,11.6,0,0,1-1.44.09,8.83,8.83,0,0,0-.89,0,2.28,2.28,0,0,1-.78,0,1,1,0,0,1-.4-.18,2.42,2.42,0,0,1-.5-.51,3.71,3.71,0,0,1-.35-.56,2,2,0,0,1-.2-1.21l.06-.4a1.06,1.06,0,0,1,.12-.34.92.92,0,0,1,.35-.38l1.13-.73c.62-.38,1.22-.77,1.8-1.21a4.46,4.46,0,0,0,.91-.93,6.72,6.72,0,0,0,.64-1,1.81,1.81,0,0,0,.19-.75c0-.51,0-1,.09-1.53s.11-.85.17-1.27.15-.85.23-1.27a1.52,1.52,0,0,1,.18-.53l.66.09a3.88,3.88,0,0,0,1.27-.06,1,1,0,0,0,.52-.26s0,0,0,0,0,0,0,0a2.58,2.58,0,0,0-.4,0,3.35,3.35,0,0,1-1.22.06,7.55,7.55,0,0,1-.83-.13,7.32,7.32,0,0,1-1.73-.57c-.21-.09-.41-.19-.6-.29a5.77,5.77,0,0,0-.95-.43,5.36,5.36,0,0,0-1-.26l-1.42-.28a1.2,1.2,0,0,1-.62-.3l-.16-.18A3,3,0,0,1,9,41.27c-.09-.32-.17-.64-.23-1a2.25,2.25,0,0,1,.07-1.15,1.79,1.79,0,0,1,.39-.65.43.43,0,0,1,.34-.15,7,7,0,0,0,1.28-.13l.95-.11a1.08,1.08,0,0,1,.44,0,6.44,6.44,0,0,1,.74.25,3,3,0,0,1,.71.48,6.27,6.27,0,0,1,.92,1c.31.41.63.81,1,1.18a5.45,5.45,0,0,0,.86.73A8,8,0,0,0,18.71,43a6.77,6.77,0,0,0,1.1.26,6.64,6.64,0,0,0,1.26,0l.56,0A7.1,7.1,0,0,0,22.85,43a4.51,4.51,0,0,0,.88-.28.28.28,0,0,1,.18,0l.34,0a2.93,2.93,0,0,0,1.4-.28c.28-.12.55-.25.82-.39a6.06,6.06,0,0,0,1-.72,4.59,4.59,0,0,0,.37-.39.58.58,0,0,1,.08-.1l.09.12a4.89,4.89,0,0,0,1,1c.13.1.26.18.4.27l.87.55a3.8,3.8,0,0,0,1.43.49,6.21,6.21,0,0,0,1.22.08H33s0,.06-.05.09a2.54,2.54,0,0,1-.69.53,1.56,1.56,0,0,1-.9.16,2.08,2.08,0,0,1-.6-.09,2.27,2.27,0,0,1-.83-.43l-.26-.22-.19-.15a.64.64,0,0,0-.7,0l-.14.09-.15.08-.47.2a.7.7,0,0,1-.43,0,3.47,3.47,0,0,1-.88-.28,2.05,2.05,0,0,0-.41-.16.53.53,0,0,0-.52.13,1.2,1.2,0,0,0-.1,1.72,2.83,2.83,0,0,0,.4.37,4.35,4.35,0,0,0,1.78.83,12.27,12.27,0,0,1,1.46.44c.52.18,1,.36,1.57.52a5.86,5.86,0,0,0,2,.2c.28,0,.56-.08.85-.13a.85.85,0,0,1,0,.16c0,.26-.07.52-.11.77s-.1.65-.16,1a15,15,0,0,1-.5,2.08c-.16.49-.31,1-.45,1.48a11.05,11.05,0,0,0-.32,1.62,8.9,8.9,0,0,0-.09,1.26c0,.5,0,1,0,1.51,0,.29,0,.59,0,.88,0,.48-.08,1-.14,1.44s-.1.8-.14,1.2c-.07.61-.14,1.22-.2,1.83a2.7,2.7,0,0,0,0,.75.38.38,0,0,1-.11.33A1.9,1.9,0,0,1,31,64a6.65,6.65,0,0,1-1.57.43,1,1,0,0,1-1-.45,2.2,2.2,0,0,1-.21-.32,6.45,6.45,0,0,0-.7-1l-.6-.7-.14-.15a9.26,9.26,0,0,1-1.55-2.07l-.63-1.16c0-.06,0-.13-.08-.19A11.91,11.91,0,0,0,25.61,58,11.71,11.71,0,0,0,27,57.25c.23-.14.45-.3.67-.45a7.51,7.51,0,0,0,.92-.77l.07-.1c-.12,0-.12,0-.19,0l-.39.09-.78.17C26.91,56.26,26.54,56.31,26.17,56.36Z" fill="#8dafd5"/>
    <path d="M38.86,12.08c0,.06.09.1.13.16a8.2,8.2,0,0,1,.5.87l.37.71c.08.14.16.28.25.41l0,0s0,0,0-.07a2.88,2.88,0,0,0-.11-.42c-.09-.22-.18-.44-.29-.65-.2-.38-.4-.77-.62-1.14A4.27,4.27,0,0,0,38,10.7a12.19,12.19,0,0,0-1.47-1l-.29-.14A5.24,5.24,0,0,0,35,9.22a2.8,2.8,0,0,0-1.08.09l-.44.13A2.9,2.9,0,0,0,32,10.56,4,4,0,0,0,31.33,12a7.05,7.05,0,0,0-.17,1.21,6.76,6.76,0,0,0,0,1.19,6.13,6.13,0,0,0,.11.73c0,.05,0,.09,0,.15l-.11,0a11.46,11.46,0,0,0-1.4-.35l-.72-.1a.42.42,0,0,1-.21-.06.28.28,0,0,1,0-.09c0-.27,0-.54,0-.81s0-.35,0-.52a13.24,13.24,0,0,1,.17-1.78,5,5,0,0,1,.54-1.59A8.58,8.58,0,0,1,31,8a7,7,0,0,1,.65-.57,2.86,2.86,0,0,1,1.22-.54,3.45,3.45,0,0,1,1.32,0,5.8,5.8,0,0,1,1.41.45,13.64,13.64,0,0,1,2,1.13c.27.18.53.37.79.56a6.12,6.12,0,0,1,1.24,1.25,9.86,9.86,0,0,1,1.18,1.94c.21.44.41.88.61,1.33.28.65.49,1.32.71,2,.32,1,.53,2,.76,3.06a11,11,0,0,1,.18,1.15,11.27,11.27,0,0,1,.08,1.54c0,.54-.05,1.09-.1,1.63s-.1,1-.17,1.43-.16.93-.25,1.39c0,.29-.12.57-.18.86a6,6,0,0,1-.27.82,11.12,11.12,0,0,1-.7,1.43,12.9,12.9,0,0,1-1,1.48,2.12,2.12,0,0,1-.7.56l-.09,0c0-.05,0-.09,0-.12.08-.23.18-.45.26-.68a5.15,5.15,0,0,0,.28-1.35,10.56,10.56,0,0,0,0-1.49,8.5,8.5,0,0,0-.13-1.13c-.11-.66-.23-1.32-.39-2a12.59,12.59,0,0,0-.67-2,7.24,7.24,0,0,0-.38-.73,21.37,21.37,0,0,0-1.93-2.7,10.14,10.14,0,0,0-1.63-1.51,11.09,11.09,0,0,0-1.3-.84l-.13-.09a.73.73,0,0,0,0-.36,5.08,5.08,0,0,1-.17-1.34c0-.16,0-.31,0-.46a4.5,4.5,0,0,1,.15-1,1.22,1.22,0,0,1,.14-.33,4.68,4.68,0,0,1,.55-.77,3,3,0,0,1,.56-.51,2.38,2.38,0,0,1,.8-.35,2.07,2.07,0,0,1,.42-.08,2.14,2.14,0,0,1,.83.11c.12,0,.24.09.36.12a3,3,0,0,1,1,.53l.31.22C38.74,12.07,38.79,12.11,38.86,12.08Z" fill="#8daed4"/>
    <path d="M12.34,15.88l-1.12-.16a.33.33,0,0,1-.16-.07c-.53-.37-1-.8-1.51-1.22l-.09-.09a.22.22,0,0,0-.25-.06l-.15.06a1.71,1.71,0,0,1-1.22.06,2.2,2.2,0,0,1-1-.58,2.14,2.14,0,0,1-.56-1.07,2.63,2.63,0,0,1,.31-1.86,3.36,3.36,0,0,1,.32-.51A1.82,1.82,0,0,1,8,9.73l.38-.07a1.46,1.46,0,0,1,1.22.4,3.45,3.45,0,0,1,.45.56,5.36,5.36,0,0,1,.58,1.32,1.51,1.51,0,0,1,0,.7,2.93,2.93,0,0,1-.05.29.58.58,0,0,0,0,.32c0,.1.08.14.19.14a1.09,1.09,0,0,0,.26,0c.79-.14,1.57-.28,2.36-.39.44-.06.87-.16,1.3-.24l.5-.07c.13,0,.18-.08.18-.2a.06.06,0,0,0,0-.06,4.7,4.7,0,0,1,0-1.06c0-.19,0-.38,0-.56a11.42,11.42,0,0,1,0-1.17c0-.29,0-.59.06-.88s0-.4.09-.6a9.76,9.76,0,0,1,.33-1.42c.07-.24,0-.36-.25-.44-.1,0-.2,0-.3-.09a1,1,0,0,1-.52-.4,2.33,2.33,0,0,1-.4-.93,2.22,2.22,0,0,1,0-1,1.78,1.78,0,0,1,.14-.36,2.54,2.54,0,0,1,.62-.8,3,3,0,0,1,.91-.58A1.6,1.6,0,0,1,17.05,2a1.44,1.44,0,0,1,1,.63,4.82,4.82,0,0,1,.54,1.12,1.79,1.79,0,0,1,0,.89c-.05.26-.12.51-.19.76a.19.19,0,0,0,.06.22c.17.12.33.26.5.37l1.39.89c.5.33,1,.64,1.51,1s.89.69,1.31,1.06l.2.14a.44.44,0,0,0,.49,0l.27-.21a10.77,10.77,0,0,0,.93-1,6.16,6.16,0,0,0,.77-1.05c.1-.17.22-.33.32-.51A2.11,2.11,0,0,0,26.34,6a.19.19,0,0,0-.18-.29.46.46,0,0,1-.28-.13,1.92,1.92,0,0,1-.4-.5l-.22-.41a1.43,1.43,0,0,1-.12-1,3.39,3.39,0,0,1,.6-1.2A1.91,1.91,0,0,1,27,1.71a1.22,1.22,0,0,1,.84.16,1.79,1.79,0,0,1,.61.55,2,2,0,0,1,.38.75,3.59,3.59,0,0,1,.14.87,1.59,1.59,0,0,1-.23.82,1.65,1.65,0,0,1-.28.36.75.75,0,0,1-.18.13.32.32,0,0,0-.18.27,1,1,0,0,0,0,.24c0,.38.09.76.13,1.14s0,.45,0,.68c0,.44,0,.87.05,1.31s0,1.16,0,1.75,0,1,0,1.56a.86.86,0,0,1,0,.28h0a7.66,7.66,0,0,0-1.14-.3.21.21,0,0,0,0-.07c.05-.37.09-.75.13-1.12,0-.18,0-.37.05-.56,0-.37.08-.74.1-1.12s0-.85.06-1.28V7.91a10.1,10.1,0,0,0,0-1.23,1.35,1.35,0,0,0,0-.28c0-.1-.09-.14-.23-.15a.53.53,0,0,0,0,.19l0,.22a11.07,11.07,0,0,1-.25,1.11,24.34,24.34,0,0,1-.73,2.34,7,7,0,0,1-.47,1,2.19,2.19,0,0,0-.23.49.67.67,0,0,1-.06.12,10.18,10.18,0,0,0-1.43.42c-.5.19-1,.36-1.51.6l-.85.4a6.07,6.07,0,0,0-1.19.74c-.05,0-.11.08-.12.16l-.33.19s-.05-.05-.08-.06a.45.45,0,0,0-.42,0l-.21.12a7.67,7.67,0,0,0-1.24.87l-.47.42a5.46,5.46,0,0,0-.74.78l-.26.3-.07,0-.93-.42a1.38,1.38,0,0,0-.34-.12,4.27,4.27,0,0,1-.86-.26l-.7-.29-.82-.39-1.16-.59a4.32,4.32,0,0,0-.45-.19h-.1a.62.62,0,0,0,.13.27,4.89,4.89,0,0,0,.71.73l.49.44v0Zm10.77-5.16a.72.72,0,0,0-.19-.4,11.22,11.22,0,0,0-1.34-1.57c-.32-.32-.67-.62-1-.91A8.42,8.42,0,0,0,18.62,6.6c-.18-.08-.38-.13-.57-.2H18a.24.24,0,0,0-.26.35.87.87,0,0,0,.15.24l.18.18c.29.35.59.69.86,1,.4.52.79,1.05,1.16,1.59s.81,1.2,1.22,1.79l.1.14A7.7,7.7,0,0,1,23.11,10.72Zm-16.27.87s.07,0,.1-.06a1.3,1.3,0,0,1,.76-.35,2.24,2.24,0,0,1,1.39.26,2,2,0,0,1,.9,1,.41.41,0,0,0,0,.08c.06-.12.07-.12.07-.21a2.56,2.56,0,0,0,0-.62,2.48,2.48,0,0,0-.33-.92A1.63,1.63,0,0,0,9,10.1a1.16,1.16,0,0,0-.93,0,2.24,2.24,0,0,0-1,.85,1.68,1.68,0,0,0-.2.48A.41.41,0,0,0,6.84,11.59ZM18,4.79c0-.06.08-.1.1-.14a1,1,0,0,0,.12-.44,1.72,1.72,0,0,0-.25-1,1.19,1.19,0,0,0-.31-.36,1.61,1.61,0,0,0-1.23-.31,1,1,0,0,0-.43.17,1.84,1.84,0,0,0-.5.54.59.59,0,0,0-.06.14l0,0,.08,0A1.67,1.67,0,0,1,17,3.53a2.32,2.32,0,0,1,.92,1.13A.69.69,0,0,0,18,4.79ZM25.82,3h.07a1.27,1.27,0,0,1,1.18,0A1.91,1.91,0,0,1,28.18,4.1s0,.09.07.09a1.25,1.25,0,0,0,.11-.66,1.71,1.71,0,0,0-.71-1.23.94.94,0,0,0-.45-.21,1.13,1.13,0,0,0-.7.11,3.53,3.53,0,0,0-.32.21,1.11,1.11,0,0,0-.35.5S25.83,3,25.82,3Z" fill="#e8cc3c"/>
    <path d="M9.12,42.54l.25.21a2,2,0,0,0,.87.35c.4.09.81.16,1.22.24l.66.14a4.75,4.75,0,0,1,.8.28.57.57,0,0,1-.15.22,17.82,17.82,0,0,0-1.2,1.55l-.82,1.19c-.31.47-.62.94-.92,1.41s-.7,1.11-1,1.69-.51,1-.77,1.46c-.16.31-.32.61-.47.93-.25.52-.49,1-.73,1.56-.17.37-.34.75-.5,1.12s-.43,1-.64,1.52c-.09.21-.16.44-.24.66l0,.11A.49.49,0,0,1,5.21,57a6.3,6.3,0,0,1-.91-1.62A8.15,8.15,0,0,1,4,54.6a7.29,7.29,0,0,1-.27-1.23c0-.3-.09-.6-.11-.89s0-.6-.05-.9a3.13,3.13,0,0,1,0-.68,7.72,7.72,0,0,1,.06-.84c0-.29.08-.57.13-.85a2.73,2.73,0,0,1,.1-.41A4.09,4.09,0,0,1,4,48.31c.13-.29.27-.57.4-.85a1.19,1.19,0,0,1,.26-.36l1-1,.59-.66.06-.07,1-1c.28-.27.56-.53.84-.81l.88-.9A1.36,1.36,0,0,0,9.12,42.54Z" fill="#722f90"/>
    <path d="M15.48,37.46a1.35,1.35,0,0,1,0-.91.75.75,0,0,1,.07-.12,6,6,0,0,1,.85-1,3.59,3.59,0,0,1,1.76-.77,4.67,4.67,0,0,1,2.1.21,19.21,19.21,0,0,1,2.31.93,5.21,5.21,0,0,1,.47.24,13,13,0,0,0,1.25.59l1.05.46.67.31a3.78,3.78,0,0,1,.75.44c.25.19.52.37.78.56a1.67,1.67,0,0,1,.49.5.83.83,0,0,1,.1.63,1.83,1.83,0,0,1-.28.6c-.07.1-.12.21-.18.31a3.05,3.05,0,0,1-.75.77,6.83,6.83,0,0,1-1.56.87,2.32,2.32,0,0,1-1.1.18A5.39,5.39,0,0,1,22.72,42a8.55,8.55,0,0,1-1.16-.61c-.61-.37-1.17-.8-1.74-1.22s-.86-.64-1.3-.95a9.7,9.7,0,0,0-1-.58c-.27-.14-.52-.29-.77-.44l-.63-.39A3.27,3.27,0,0,0,15.48,37.46Z" fill="#722f90"/>
    <path d="M55.3,28.93c.45,1,.84,1.92,1.26,2.87s.84,1.9,1.19,2.88l-.14.07c-1.08.49-2.16,1-3.24,1.45s-2,.86-3,1.31-2,.84-3,1.23l-.5.2c-.31-.9-.57-1.81-.82-2.71a27.93,27.93,0,0,1-.66-2.77l.54-.29,1.88-1L53,30.12l1.11-.58Zm-5.43,6a4.15,4.15,0,0,1,.63-.32v.21c0,.11,0,.21,0,.32a1,1,0,0,0,.53.78l.19.08a.75.75,0,0,0,.55,0,1.66,1.66,0,0,0,1-.78,2.27,2.27,0,0,0,.31-1,2.06,2.06,0,0,1,.45-1.1l.3-.4s.06,0,0-.1l-.11,0a1.61,1.61,0,0,1-.58,0,4.11,4.11,0,0,1-1.09-.25,2.35,2.35,0,0,0-.83-.12.83.83,0,0,0-.22,0,1.33,1.33,0,0,0-.67.41,1,1,0,0,0-.15.21.74.74,0,0,0,.12.88l.09.09-.72.36c-.07-.22-.13-.43-.19-.63s0-.14-.09-.18l-.15.07-.16.09c0,.08,0,.16.07.23.11.35.22.7.32,1.06s.15.54.22.81a.67.67,0,0,0,.06.12,1.23,1.23,0,0,0,.31-.14Z" fill="#eee3c5"/>
    <path d="M38.44,42.24a.49.49,0,0,1,0-.15c.09-.37.2-.72.29-1.09s.14-.68.2-1,.13-.76.18-1.13.08-.72.12-1.08c.05-.6.07-1.21.06-1.81a10.67,10.67,0,0,0-.1-1.38,8.89,8.89,0,0,0-.13-.88v-.07l.23-.15a8.23,8.23,0,0,1,1.33-.66l.07,0c.53-.26,1.07-.46,1.61-.67a11.84,11.84,0,0,0,1.29-.63,5.23,5.23,0,0,1,.93-.43,4,4,0,0,1,.68-.16.56.56,0,0,1,.61.32A2,2,0,0,1,46,32a5.54,5.54,0,0,1,0,1c0,.2-.06.39-.1.58a1.54,1.54,0,0,1-.2.5,6.47,6.47,0,0,1-.6.78A13,13,0,0,0,44.12,36c-.1.13-.19.27-.28.4a18.79,18.79,0,0,1-1.5,1.93c-.79.92-1.61,1.81-2.48,2.64-.32.31-.66.61-1,.91l-.28.25Z" fill="#8caed4"/>
    <path d="M50,26a.72.72,0,0,0-.55-.29l0-.09c.08-.12.17-.23.24-.35a.87.87,0,0,0,0-.84.86.86,0,0,0-.15-.22,1.4,1.4,0,0,0-1.3-.42,1.43,1.43,0,0,0-1.12,1,1.46,1.46,0,0,0-.09.52l-.1,0a.82.82,0,0,0-.84.07,1.28,1.28,0,0,0-.59,1A1.38,1.38,0,0,0,46,27.46a.9.9,0,0,0,.85.26h.11a1.06,1.06,0,0,1-.1.55,6,6,0,0,0-.88-.19,1.67,1.67,0,0,0-.08.55c.39.11.77.23,1.15.37a11.61,11.61,0,0,1-1.57,1.49h-.21a.38.38,0,0,1-.21,0,.44.44,0,0,0-.2,0,4.81,4.81,0,0,1-1.24-.21l0,0c.12-.55.24-1.09.4-1.63l1.53-5.41c.2-.73.46-1.43.69-2.14.11-.31.21-.62.31-.94a1.21,1.21,0,0,0,0-.14c.44,0,5.43,1.4,6.33,1.75h0a0,0,0,0,0,0,0c-.12.67-.24,1.33-.36,2a.46.46,0,0,1-.23.15c-.06,0-.1.06-.15.1a9.8,9.8,0,0,0-.95.87c-.36.35-.72.7-1.07,1.06Z" fill="#eee3c5"/>
    <path d="M38.15,56.05A10.44,10.44,0,0,0,35.82,54a10.05,10.05,0,0,0-2.76-1.33.41.41,0,0,1,0-.12c0-.2.11-.4.17-.6s.14-.46.22-.69.19-.71.28-1.06.19-.93.27-1.4.11-.66.16-1a4,4,0,0,0,0-.5.21.21,0,0,1,.13-.18l.54-.22.21-.11.62-.44a1,1,0,0,0,.15-.14c.1-.11.21-.22.31-.34l.56-.63.26-.3c.1-.12.19-.25.28-.37l.08-.1c0,.18,0,.32,0,.47s.05.46.07.7,0,.3.05.45,0,.4,0,.6,0,.35.06.52c0,0,0,0,0,0,0,.23,0,.46,0,.7s0,.38.06.57c0,0,0,0,0,0,0,.22,0,.44.05.66l.06.68a.06.06,0,0,1,0,0c0,.28,0,.56,0,.84s0,.6.06.9c0,.12,0,.25,0,.38,0,.35,0,.7.05,1s0,.48,0,.72c0,.54,0,1.09,0,1.63,0,.16,0,.32,0,.48S38.15,56,38.15,56.05Z" fill="#722f8f"/>
    <path d="M52.56,24.13a5.9,5.9,0,0,1,.46.39c.26.25.53.47.81.7.64.5,1.26,1,1.87,1.58.25.23.47.47.71.71,0,0,0,0,0,0a3.27,3.27,0,0,1-.3.35l-.26.35-.28.39-.09-.12a.17.17,0,0,0-.2-.05l-.2.09c-.7.33-1.39.7-2.07,1.06l-.49.25-.12.05a2,2,0,0,0-.09-.26,2.2,2.2,0,0,0-.17-.25L52,29.25a1.31,1.31,0,0,0-.27-.12,2.36,2.36,0,0,0-.29,0c0-.07,0-.13,0-.2a1.26,1.26,0,0,0-.15-.81A1,1,0,0,0,51,27.8a.82.82,0,0,0-.71-.11,1.64,1.64,0,0,0-1.11.89A2.09,2.09,0,0,0,49,29a7.31,7.31,0,0,0-.24,1.32c0,.16,0,.32-.07.48a2,2,0,0,0,0,.35.3.3,0,0,0,.2.06l.71.08,0,0s0,.05-.07.06l-.95.49L47,32.66c-.17.08-.33.18-.5.27l-.12.06v-.13a5.46,5.46,0,0,0,0-1,2,2,0,0,0-.17-.72,1,1,0,0,0-.3-.44.27.27,0,0,1-.07-.08l.15-.13c.17-.16.35-.3.51-.46l1.65-1.67,2.63-2.61c.14-.14.29-.28.43-.43a12.29,12.29,0,0,1,1-1Z" fill="#ede3c5"/>
    <path d="M30.34,37.65l.86.31.05,0a4.93,4.93,0,0,1,1.68,1.25l.28.34a2.38,2.38,0,0,1,.49,1.28,5.15,5.15,0,0,1,0,.56,4.13,4.13,0,0,1-.24,1.2,1.42,1.42,0,0,1-.08.18.16.16,0,0,1-.15.11,7.24,7.24,0,0,1-1.8-.11,3.24,3.24,0,0,1-1-.42l-1-.64a4.19,4.19,0,0,1-1.07-1.07l-.05-.07a.29.29,0,0,1,0-.35,1.19,1.19,0,0,0,.13-.25,1.36,1.36,0,0,0,.13-.74.76.76,0,0,1,.14-.51,2.37,2.37,0,0,1,1.41-1Z" fill="#722f90"/>
    <path d="M12.51,37.77s.07-.06.11-.07a1.83,1.83,0,0,1,.39-.09,5.37,5.37,0,0,1,.8,0l.4,0a7.13,7.13,0,0,1,1.37.38,2.7,2.7,0,0,1,.44.24l1.08.65.27.14a8.13,8.13,0,0,1,1.43.89l1.31,1c.29.21.58.42.88.62s.66.41,1,.6a4.3,4.3,0,0,0,.83.35l.31.1-.48.12c-.21.05-.42.1-.63.13s-.34,0-.51,0a6.54,6.54,0,0,1-1.17,0,4.21,4.21,0,0,1-1.05-.14A8.2,8.2,0,0,1,18,42.26a7,7,0,0,1-1.58-.94,4,4,0,0,1-.59-.57c-.27-.3-.51-.62-.76-.93s-.4-.52-.62-.77-.31-.31-.47-.46l-.28-.23a2.79,2.79,0,0,0-1-.52l-.09,0Z" fill="#72348e"/>
    <path d="M38.86,12.08c-.07,0-.12,0-.17,0l-.31-.22a3,3,0,0,0-1-.53c-.12,0-.24-.08-.36-.12a2.14,2.14,0,0,0-.83-.11,2.07,2.07,0,0,0-.42.08,2.38,2.38,0,0,0-.8.35,3,3,0,0,0-.56.51,4.68,4.68,0,0,0-.55.77,1.22,1.22,0,0,0-.14.33,4.5,4.5,0,0,0-.15,1c0,.15,0,.3,0,.46a5.08,5.08,0,0,0,.17,1.34.73.73,0,0,1,0,.36l-.36-.17a9.32,9.32,0,0,0-1.2-.56l-.46-.17a2.51,2.51,0,0,1-.14-.52,5,5,0,0,1-.09-.77,1.83,1.83,0,0,1,0-.52c0-.27,0-.54.06-.8s.07-.52.13-.77a4.07,4.07,0,0,1,.52-1.19,2.51,2.51,0,0,1,.68-.7,2.62,2.62,0,0,1,1-.44,5.29,5.29,0,0,1,.54-.13,2.29,2.29,0,0,1,.64,0,5.12,5.12,0,0,1,1.08.31,3.86,3.86,0,0,1,.6.32,13.36,13.36,0,0,1,1.16.81,3.38,3.38,0,0,1,.69.67c.07.09.15.18.21.27A.75.75,0,0,1,38.86,12.08Z" fill="#4c6989"/>
    <path d="M17.67,16.52l.06-.1a8.61,8.61,0,0,1,1.37-1.26,13.89,13.89,0,0,1,3.88-2,13.36,13.36,0,0,1,1.77-.41H25a.49.49,0,0,1,0,.12c0,.09-.07.19-.11.28-.22.57-.45,1.13-.68,1.7,0,.06-.06.11,0,.17-.51.13-1,.28-1.52.46a15.15,15.15,0,0,0-2.82,1.33c-.3.19-.57.41-.86.61a.13.13,0,0,1-.1,0c-.19-.16-.38-.32-.58-.47Z" fill="#e8cb3b"/>
    <path d="M43.58,20.77c.73.09,1.44.08,2.15.19a.29.29,0,0,1,0,.1c-.33,1-.64,2-.91,3a.87.87,0,0,1-.14.27c-.4.53-.79,1.07-1.22,1.57a.29.29,0,0,0-.07.28c.1.43.2.86.31,1.29a1.94,1.94,0,0,1,.07.33,1.32,1.32,0,0,1-.08.33c-.09.38-.19.75-.28,1.13s-.12.53-.17.8a2,2,0,0,0,0,.34.22.22,0,0,0,.16.23l.2,0,.54.13a.45.45,0,0,1-.3.11l-.68,0-.86-.05-.4-.05s0,0,0,0c0-.47.11-.94.17-1.41,0-.17,0-.34.05-.5a.41.41,0,0,1,0-.19l.44-.95a6.1,6.1,0,0,0,.4-1.3c.1-.52.21-1,.3-1.54s.1-.8.15-1.2.05-.62.09-.94c0-.56.08-1.12.08-1.68A1.93,1.93,0,0,1,43.58,20.77Z" fill="#ece1c4"/>
    <path d="M13.3,44a17.16,17.16,0,0,0,2.13.8l0,.1a2.75,2.75,0,0,0-.16.56c-.07.29-.12.59-.18.88s0,.29-.07.43l-.06.42-.06.43c0,.14,0,.27,0,.41h-.08a4.59,4.59,0,0,0-.9-.16c-.21,0-.41-.05-.62-.07H13l-.3,0a2.74,2.74,0,0,0-.7,0h-.12a6.18,6.18,0,0,0-.85.11,3.77,3.77,0,0,0-.58.14c0-.11,0-.13.06-.19l.24-.37.69-1c.3-.43.61-.85.92-1.27.19-.26.4-.5.61-.74s.19-.24.29-.36Z" fill="#51146d"/>
    <path d="M20.24,14c0-.08.07-.11.12-.16a6.07,6.07,0,0,1,1.19-.74l.85-.4c.49-.24,1-.41,1.51-.6a10.18,10.18,0,0,1,1.43-.42.67.67,0,0,0,.06-.12,2.19,2.19,0,0,1,.23-.49,7,7,0,0,0,.47-1,24.34,24.34,0,0,0,.73-2.34,11.07,11.07,0,0,0,.25-1.11l0-.22a.53.53,0,0,1,0-.19c.14,0,.2,0,.23.15a1.35,1.35,0,0,1,0,.28,10.1,10.1,0,0,1,0,1.23v.22c0,.43,0,.85-.06,1.28s-.06.75-.1,1.12c0,.19,0,.38-.05.56,0,.37-.08.75-.13,1.12a.21.21,0,0,1,0,.07,4.56,4.56,0,0,0-.52,0,13.79,13.79,0,0,0-1.7.17,13.08,13.08,0,0,0-4,1.34Z" fill="#fefdfb"/>
    <path d="M52.24,30.05l-.14.08-1.93.95a.35.35,0,0,1-.23,0,1,1,0,0,0-.3,0L49,31l-.13,0c0-.05,0-.09,0-.13a7.52,7.52,0,0,0,.15-.95,7.26,7.26,0,0,1,.2-.9,1.93,1.93,0,0,1,.32-.62,1.18,1.18,0,0,1,.38-.32,1.71,1.71,0,0,1,.46-.19.58.58,0,0,1,.68.29,1.28,1.28,0,0,1,.12.88.5.5,0,0,1,0,.12c0,.12,0,.16.15.17h.12a.81.81,0,0,1,.79.59S52.23,30,52.24,30.05Z" fill="#ec5151"/>
    <path d="M12.34,15.88l.05,0v0l-.49-.44a4.89,4.89,0,0,1-.71-.73.62.62,0,0,1-.13-.27h.1a4.32,4.32,0,0,1,.45.19l1.16.59.82.39.7.29a4.27,4.27,0,0,0,.86.26,1.38,1.38,0,0,1,.34.12l.93.42.07,0,.26-.3a5.46,5.46,0,0,1,.74-.78l.47-.42a7.67,7.67,0,0,1,1.24-.87l.21-.12a.45.45,0,0,1,.42,0s.05,0,.08.06l-.62.41a9,9,0,0,0-.93.7c-.17.17-.36.32-.52.5s-.48.55-.73.82a4.36,4.36,0,0,0-.57.83l-.13-.06a8.53,8.53,0,0,0-2.55-1.16c-.4-.12-.8-.23-1.21-.32l-.2,0Z" fill="#956a1b"/>
    <path d="M26.17,56.36c.37,0,.74-.1,1.1-.18l.78-.17.39-.09c.07,0,.07,0,.19,0l-.07.1a7.51,7.51,0,0,1-.92.77c-.22.15-.44.31-.67.45a11.71,11.71,0,0,1-1.36.71,11.91,11.91,0,0,1-1.13.43,4,4,0,0,1-.38-1.06c0-.18-.06-.37-.09-.55a.11.11,0,0,1,0-.05l.11,0h.46a5.65,5.65,0,0,0,.91-.11l.33-.06.3-.12S26.15,56.38,26.17,56.36Z" fill="#4c6989"/>
    <path d="M24.13,15.05c0-.06,0-.11,0-.17.23-.57.46-1.13.68-1.7,0-.09.08-.19.11-.28a.49.49,0,0,0,0-.12h0s0,0,0,0c.23,0,.45-.07.68-.09s.65-.05,1-.06a2,2,0,0,1,.34,0c-.06.41-.11.82-.18,1.22s-.11.57-.16.85l-1.25.13L24.32,15Z" fill="#fefefd"/>
    <path d="M26.66,14.71c.05-.28.12-.56.16-.85s.12-.81.18-1.22a3.8,3.8,0,0,1,1.17.37,1.91,1.91,0,0,1,0,.41c0,.14,0,.28,0,.42s0,.27,0,.4,0,.28,0,.42l-.17,0h-.54l-.5,0Z" fill="#e8cb3b"/>
    <path d="M17.67,16.52l.58.42c.2.15.39.31.58.47a.13.13,0,0,0,.1,0l-.51.41a5.49,5.49,0,0,0-.63.56l-.11.1-.9-.81a.36.36,0,0,1,.08-.2A6.37,6.37,0,0,1,17.67,16.52Z" fill="#956a1b"/>
    <path d="M44.57,24.72c-.23.88-.44,1.76-.73,2.63l-.31-1.27Z" fill="#ec5151"/>
    <path d="M15.48,28.39s-.08-.05-.1-.09a.44.44,0,0,1-.09-.18,6.77,6.77,0,0,0-.25-.8c0-.15-.09-.3-.13-.45-.11-.35-.2-.72-.32-1.07a7.07,7.07,0,0,0-.4-1,3.27,3.27,0,0,0-.32-.5,3.83,3.83,0,0,0-.84-.77c-.35-.24-.7-.45-1.06-.65a7.15,7.15,0,0,0-2-.72c-.22-.05-.45-.06-.67-.1a4.59,4.59,0,0,0-1,0,4.11,4.11,0,0,0-.6.08c-.2,0-.4.1-.6.16A4.37,4.37,0,0,0,6,22.82a2.43,2.43,0,0,0-.32.24,3.27,3.27,0,0,0-.8,1c-.1.21-.22.42-.34.64,0,0,0,.08-.09.09a.8.8,0,0,1,0-.15,11,11,0,0,1,.47-1.51,6,6,0,0,1,.45-.92A8.39,8.39,0,0,1,6,21.26a2.94,2.94,0,0,1,.65-.62,6.22,6.22,0,0,1,2.1-.94,3,3,0,0,1,.51-.09l.48-.07a3.67,3.67,0,0,0,.46,0,.54.54,0,0,1,.22,0l.65.07a4.88,4.88,0,0,1,.85.15c.33.08.66.18,1,.27a4.8,4.8,0,0,1,1.15.53,4.28,4.28,0,0,1,1,.81,1.49,1.49,0,0,1,.33.52,3.52,3.52,0,0,1,.22,1.05,3.22,3.22,0,0,1-.06,1,2,2,0,0,0,0,.34c0,.13,0,.26-.05.39s-.06.43-.07.64c0,.58,0,1.15,0,1.73a3.79,3.79,0,0,0,.05.58A7.35,7.35,0,0,1,15.48,28.39Z" fill="#4c6989"/>
    <path d="M23,24.57a.84.84,0,0,1,.66.07.89.89,0,0,1,.22.16c.12.12.22.24.32.36a.62.62,0,0,1,.14.31,3,3,0,0,1,.1.67.84.84,0,0,1-.15.49l-.14.18a1.17,1.17,0,0,1-.92.37A.49.49,0,0,1,23,27.1a.65.65,0,0,1-.15-.1.62.62,0,0,1-.1-.35,4,4,0,0,1-.05-.84c0-.13,0-.25,0-.38s0-.35.08-.53,0-.1,0-.15A.34.34,0,0,1,23,24.57Z" fill="#fcfdfd"/>
    <path d="M33.51,22.07a1.93,1.93,0,0,1,.48,0,.65.65,0,0,1,.44.24,1.69,1.69,0,0,1,.32.66.73.73,0,0,1,0,.36,1.24,1.24,0,0,1-.73,1,.89.89,0,0,1-.7,0,.53.53,0,0,1-.27-.19,1.32,1.32,0,0,1,0-.59c0-.2,0-.41.1-.61a3,3,0,0,1,.25-.65A1.4,1.4,0,0,1,33.51,22.07Z" fill="#fcfdfd"/>
    <path d="M23.11,10.72a7.7,7.7,0,0,0-1.73,1l-.1-.14c-.41-.59-.8-1.2-1.22-1.79S19.3,8.72,18.9,8.2c-.27-.35-.57-.69-.86-1L17.86,7a.87.87,0,0,1-.15-.24A.24.24,0,0,1,18,6.39h.08c.19.07.39.12.57.2a8.42,8.42,0,0,1,1.94,1.24c.35.29.7.59,1,.91a11.22,11.22,0,0,1,1.34,1.57A.72.72,0,0,1,23.11,10.72Z" fill="#fffffd"/>
    <path d="M6.84,11.59a.41.41,0,0,1,0-.19,1.68,1.68,0,0,1,.2-.48,2.24,2.24,0,0,1,1-.85,1.16,1.16,0,0,1,.93,0,1.63,1.63,0,0,1,.73.67,2.48,2.48,0,0,1,.33.92,2.56,2.56,0,0,1,0,.62c0,.09,0,.09-.07.21a.41.41,0,0,1,0-.08,2,2,0,0,0-.9-1,2.24,2.24,0,0,0-1.39-.26,1.3,1.3,0,0,0-.76.35S6.89,11.59,6.84,11.59Z" fill="#fffffd"/>
    <path d="M18,4.79a.69.69,0,0,1-.06-.13A2.32,2.32,0,0,0,17,3.53a1.67,1.67,0,0,0-1.46-.18l-.08,0,0,0a.59.59,0,0,1,.06-.14,1.84,1.84,0,0,1,.5-.54,1,1,0,0,1,.43-.17,1.61,1.61,0,0,1,1.23.31,1.19,1.19,0,0,1,.31.36,1.72,1.72,0,0,1,.25,1,1,1,0,0,1-.12.44S18,4.73,18,4.79Z" fill="#fefdfb"/>
    <path d="M25.82,3s0-.06,0-.09a1.11,1.11,0,0,1,.35-.5,3.53,3.53,0,0,1,.32-.21,1.13,1.13,0,0,1,.7-.11.94.94,0,0,1,.45.21,1.71,1.71,0,0,1,.71,1.23,1.25,1.25,0,0,1-.11.66c-.07,0-.06-.06-.07-.09A1.91,1.91,0,0,0,27.07,3a1.27,1.27,0,0,0-1.18,0h-.07Z" fill="#fefdfb"/>
    <path d="M49.87,35l.21.87a1.23,1.23,0,0,1-.31.14.67.67,0,0,1-.06-.12c-.07-.27-.14-.54-.22-.81s-.21-.71-.32-1.06c0-.07-.05-.15-.07-.23l.16-.09.15-.07c.07,0,.07.12.09.18s.12.41.19.63l.72-.36-.09-.09a.74.74,0,0,1-.12-.88,1,1,0,0,1,.15-.21,1.33,1.33,0,0,1,.67-.41.83.83,0,0,1,.22,0,2.35,2.35,0,0,1,.83.12,4.11,4.11,0,0,0,1.09.25,1.61,1.61,0,0,0,.58,0l.11,0c0,.05,0,.08,0,.1l-.3.4a2.06,2.06,0,0,0-.45,1.1,2.27,2.27,0,0,1-.31,1,1.66,1.66,0,0,1-1,.78.75.75,0,0,1-.55,0l-.19-.08a1,1,0,0,1-.53-.78c0-.11,0-.21,0-.32v-.21A4.15,4.15,0,0,0,49.87,35Z"/>
  </g>
	
</svg>
