<?xml version="1.0" encoding="UTF-8"?>
<svg id="Layer_1" xmlns="http://www.w3.org/2000/svg" version="1.1" viewBox="0 0 25 25">
  <!-- Generator: Adobe Illustrator 29.2.0, SVG Export Plug-In . SVG Version: 2.1.0 Build 108)  -->
  <defs>
    <style>
      .st0 {
        fill: #fff;
      }
    </style>
  </defs>
  <path d="M2.7,3.8c-1.2,0-2.2,1-2.2,2.2v12h2.2c0,1.9,1.4,3.3,3.3,3.3s3.3-1.4,3.3-3.3h6.5c0,1.9,1.4,3.3,3.3,3.3s3.3-1.4,3.3-3.3h2.2v-5.5l-3.3-4.4h-3.3V3.8M18,9.8h2.7l2.2,2.7h-4.9M6,16.3c.9,0,1.6.8,1.6,1.6s-.8,1.6-1.6,1.6-1.6-.8-1.6-1.6.8-1.6,1.6-1.6M19,16.3c.9,0,1.6.8,1.6,1.6s-.8,1.6-1.6,1.6-1.6-.8-1.6-1.6.8-1.6,1.6-1.6Z"/>
  <g>
    <path class="st0" d="M9,10h.5v-1.1c.1-.1.3,0,.4,0,.8,0,1.8-.8,2.5,0s0,1.4-.3,2.1-.2.6-.3.9c-.3,0-.9,0-1-.3h.2c0,0,0-.1,0-.1v-.2c.2,0,.1.2.2.2.3,0,.1-.5-.2-.4,0-.3,0-.5-.2-.7-.2.2-.3.5-.2.7-.1,0-.4,0-.4.2s.2.3.2,0h.1s0,.3,0,.3c0,0,.2,0,.2,0-.3.5-1,.3-1.2-.2s0,0,0,0c.2,0,.3.1.4.2v-.8c-.1.1-.3.2-.5.3,0-.2.1-.4.3-.5h-.9l.2.2v.2c-.1,0-.3-.1-.4-.2v.8c.1,0,.3-.2.4-.2s0,0,0,0c-.2.5-.9.7-1.2.2,0-.1.1,0,.2,0v-.3s0,0,0,0c0,.3.2,0,.2,0s-.3-.2-.4-.2c0-.3,0-.5-.2-.7-.2.2-.3.5-.2.7-.4-.1-.5.3-.2.4s0-.2.2-.2v.2s0,0,0,0h.2c0,.5-.6.4-1,.4,0-.3-.2-.6-.3-.8-.3-.7-1.1-1.3-.4-2.1s1.6-.2,2.4,0,.4,0,.6,0v1.1ZM8.5,9.2c-.7,0-1.7-.7-2.3,0s0,.8.3,1.3l.2-.5c.5-.5,1.2-.2,1.7,0v-.7ZM9.9,9.2v.7c.6,0,1.3-.4,1.8.1l.2.4c.2-.5.7-.8.3-1.3s-1.6,0-2.3,0Z"/>
    <path class="st0" d="M6.8,13h4.8c.3,0,.3.8,0,.8h-4.8c-.3,0-.3-.8,0-.8Z"/>
    <rect class="st0" x="6.7" y="12" width="5" height=".3"/>
    <path class="st0" d="M9.1,7.7c.8-.2,1,1,.3,1.1s-.8-.9-.3-1.1Z"/>
    <polygon class="st0" points="9.5 6.3 9.3 6.8 9.8 6.6 9.8 7.2 9.3 7 9.5 7.5 8.9 7.5 9.1 7 8.7 7.2 8.7 6.6 9.1 6.8 8.9 6.3 9.5 6.3"/>
    <path class="st0" d="M8.8,12.5h.8c.1,0,.1.4,0,.4h-.8c-.1,0-.2-.4,0-.4Z"/>
    <path class="st0" d="M11.7,12.5v.3c-.3,0-.6.1-.5-.2s.4,0,.5-.1Z"/>
    <rect class="st0" x="6.7" y="12.5" width=".5" height=".3"/>
    <rect class="st0" x="10.2" y="12.5" width=".5" height=".3"/>
    <path class="st0" d="M8.3,12.5c0,0,0,.3,0,.3h-.5s0-.3,0-.3h.5Z"/>
  </g>
</svg>